<?xml version="1.0" encoding="utf-8"?>
<!-- Generator: Adobe Illustrator 21.1.0, SVG Export Plug-In . SVG Version: 6.00 Build 0)  -->
<svg version="1.1" id="Layer_1" xmlns="http://www.w3.org/2000/svg" xmlns:xlink="http://www.w3.org/1999/xlink" x="0px" y="0px"
	 viewBox="0 0 407.5 60" style="enable-background:new 0 0 407.5 60;" xml:space="preserve">
<style type="text/css">
	.st0{fill:#B6B8BA;}
	.st1{fill:#8B0021;}
	.st2{fill:#800000;}
</style>
<g>
	<polygon class="st0" points="249.5,4.9 249.5,52 250.9,52 250.9,4.9 	"/>
	<path class="st1" d="M237.7,7.6L237.7,7.6L237.7,7.6c0-0.6,0-1.4,0-2.2V5.3h-0.1c-0.2,0-1.2,0-2.1,0h-2.9c-0.6,0-1.1,0-1.8,0l0,0
		l0,0c-0.1,0.1-0.2,0.3-0.2,0.3c0,0.1,0,0.3,0.1,0.3L231,6c0.8,0.1,0.8,0.2,0.8,1.9v5.8c0,1.7,0,1.8-0.8,1.9l-0.4,0.1l0,0
		c-0.1,0.1-0.1,0.2-0.1,0.4c0,0.1,0.1,0.2,0.1,0.3l0,0l0,0c0.7,0,1.3,0,2,0c0.6,0,1.2,0,2.1,0l0,0l0,0c0.1-0.1,0.1-0.2,0.2-0.3
		c0-0.1,0-0.3-0.1-0.3l-0.6-0.1c-0.8-0.1-0.9-0.2-0.9-1.9v-2.3c0-0.3,0-0.3,0.4-0.3h1.1c0.6,0,1,0,1.2,0.1s0.3,0.2,0.4,0.5l0.2,0.7
		l0,0c0.2,0.1,0.5,0.1,0.6,0l0,0l0,0c0-0.2,0-0.4,0-0.6c0-0.3,0-0.6,0-0.9c0-0.3,0-0.7,0-1s0-0.5,0-0.7l0,0l0,0
		C237,9,236.9,9,236.8,9c-0.1,0-0.2,0-0.3,0.1l-0.2,0.7c-0.1,0.4-0.2,0.4-0.3,0.5c-0.2,0.1-0.7,0.1-1.3,0.1h-1.1
		c-0.4,0-0.4,0-0.4-0.3V6.6c0-0.5,0-0.5,0.4-0.5h1c0.7,0,1.2,0,1.5,0.1c0.7,0.2,0.9,0.6,1,1.4l0,0l0,0c0.1,0.1,0.1,0.1,0.2,0.1
		C237.5,7.8,237.6,7.7,237.7,7.6L237.7,7.6L237.7,7.6z M227.1,10.8c0-2.7-1.8-5.7-5.6-5.7c-3.3,0-5.7,2.5-5.7,5.8
		c0,2.8,2,5.6,5.7,5.6C224.7,16.5,227.1,14,227.1,10.8L227.1,10.8L227.1,10.8z M225.3,11.3c0,3.3-1.9,4.5-3.6,4.5
		c-3.3,0-4.1-3.4-4.1-5.4c0-3.4,2-4.6,3.6-4.6C224.2,5.8,225.3,8.7,225.3,11.3L225.3,11.3L225.3,11.3z M212.4,38.9
		c0,7,5.1,13.2,13.5,13.2c7.3,0,13.1-5.7,13.1-13.6c0-6.8-4.4-13.3-13.1-13.3C218.1,25.1,212.4,31.1,212.4,38.9L212.4,38.9
		L212.4,38.9z M216.2,37.6c0-8.5,5.1-11.3,9-11.3c7.2,0,10,6.9,10,13.3c0,7.7-4.3,11.2-8.9,11.2C218.9,50.8,216.2,43.4,216.2,37.6
		L216.2,37.6L216.2,37.6z M207.8,5.9c0.1-0.1,0.1-0.2,0.1-0.3c0-0.1-0.1-0.2-0.2-0.3l0,0l0,0c-1.1,0.1-1.8,0.1-3,0l0,0l0,0
		c-0.1,0-0.1,0.1-0.2,0.2c0,0.1,0,0.3,0.1,0.4l0,0h0.3c0.3,0,0.5,0.1,0.6,0.2c0,0.2-0.6,1.3-0.9,1.9l-0.1,0.1
		c-0.4,0.8-0.8,1.6-1.4,2.5c-0.4-0.8-0.8-1.6-1.2-2.4c-0.2-0.3-0.3-0.6-0.5-1c-0.1-0.2-0.5-1.1-0.5-1.2c0,0,0.1-0.1,0.6-0.2h0.2l0,0
		c0.1-0.1,0.1-0.2,0.1-0.4c0-0.1-0.1-0.2-0.2-0.2l0,0l0,0c-0.4,0-1,0-1.7,0s-1.3,0-1.8,0l0,0l0,0c-0.1,0-0.1,0.1-0.1,0.2
		s0,0.3,0.1,0.4l0,0l0.5,0.1c0.4,0.1,0.6,0.1,1.2,1.2l1.9,3.7c0.4,0.9,0.5,1.1,0.5,2v0.8c0,1.8,0,1.8-0.8,1.9l-0.5,0.1l0,0
		c-0.1,0.1-0.1,0.2-0.1,0.4c0,0.1,0.1,0.2,0.1,0.2l0,0l0,0c0.8,0,1.4,0,2.1,0c0.6,0,1.2,0,2.1,0l0,0l0,0c0.1,0,0.1-0.1,0.1-0.3
		c0-0.1,0-0.3-0.1-0.4l0,0l-0.6-0.1c-0.7-0.1-0.8-0.2-0.8-1.9v-0.8c0-1.2,0-1.3,0.7-2.6l1-1.8c0.1-0.2,0.2-0.3,0.3-0.5
		c0.6-1.1,1.1-1.9,1.7-2L207.8,5.9L207.8,5.9L207.8,5.9L207.8,5.9z M202.3,25.7c-0.6-0.2-2.6-0.6-4.8-0.6c-5.7,0-9.5,1.8-12,4.5
		c-2.3,2.6-3.4,5.9-3.4,9.2c0,3.4,1.2,6.5,3.5,8.8c2.9,3,7,4.3,11.5,4.3c2,0,4.8-0.5,6.8-1c0.7-0.2,1.4-0.4,1.9-0.4
		c0.2-0.1,0.2-0.4,0-0.5c-0.7-0.3-0.9-1.2-0.9-2.8V45c0-2,0-3.1,1.6-3.3l0.6-0.1c0.3-0.2,0.2-0.8,0-1c-1.2,0.1-2.5,0.1-4,0.1
		c-2.2,0-4.3,0-5.4-0.1c-0.3,0.1-0.3,0.8,0,1l1.7,0.2c2.3,0.3,2.5,0.5,2.5,3.8v1.6c0,1.2-0.2,1.9-0.4,2.2c-0.4,0.7-1.8,1.2-4.2,1.2
		c-7.6,0-11.3-5.9-11.3-13.3c0-5.8,3.2-11.2,10.6-11.2c3.9,0,6.7,1.3,7.8,5.5c0.2,0.2,0.9,0.2,1-0.1c-0.3-2.3-0.6-4.4-0.6-5.6
		C204.2,26.2,203,25.9,202.3,25.7L202.3,25.7L202.3,25.7z M195.8,5.1L195.8,5.1L195.8,5.1c-0.1-0.2-0.2-0.2-0.3-0.2h-0.1l0,0l0,0
		c-0.2,0.4-0.3,0.4-1.1,0.4h-6.5c-0.7,0-1,0-1.1-0.4l0,0l0,0c0,0-0.1-0.1-0.2-0.1c0,0-0.2,0-0.2,0.1l0,0V5c-0.1,0.6-0.3,1.7-0.6,2.4
		v0.1l0,0c0.1,0.2,0.4,0.3,0.6,0.2l0,0l0,0c0.2-0.4,0.3-0.7,0.7-1.1c0.3-0.3,1.1-0.4,1.9-0.4h0.9c0.4,0,0.4,0,0.4,0.4v7.2
		c0,1.8-0.1,1.8-0.9,1.9h-0.6h-0.1c-0.1,0.1-0.1,0.2-0.1,0.3c0,0.1,0,0.2,0.2,0.3l0,0l0,0c1,0,1.5,0,2.2,0c0.6,0,1.1,0,2.1,0l0,0
		l0,0c0.1-0.1,0.2-0.3,0.2-0.3c0-0.1,0-0.3-0.1-0.3l-0.6-0.1c-0.8-0.1-0.8-0.2-0.8-1.9V6.5c0-0.2,0-0.3,0-0.3s0.2,0,0.3,0h1.1
		c0.8,0,1.4,0.1,1.8,0.4c0.1,0.1,0.3,0.5,0.3,1.1l0,0l0,0c0.1,0.1,0.2,0.1,0.3,0.1s0.3-0.1,0.3-0.2l0,0l0,0
		C195.6,7,195.7,5.7,195.8,5.1L195.8,5.1L195.8,5.1z M181.5,13.7V7.9c0-1.8,0-1.9,0.8-1.9h0.4l0,0c0.1-0.1,0.1-0.2,0.1-0.3
		c0-0.1,0-0.2-0.2-0.3l0,0l0,0c-0.7,0-1.3,0-1.9,0c-0.7,0-1.2,0-2,0l0,0l0,0c-0.1,0.1-0.2,0.3-0.2,0.3c0,0.1,0,0.3,0.1,0.3l0,0h0.4
		c0.8,0.1,0.9,0.2,0.9,1.9v5.8c0,1.7,0,1.8-0.9,1.9l-0.4,0.1l0,0c-0.1,0.1-0.1,0.2-0.1,0.4c0,0.1,0.1,0.2,0.1,0.2l0,0l0,0
		c0.8,0,1.3,0,2,0c0.6,0,1.1,0,1.9,0l0,0l0,0c0.1-0.1,0.2-0.3,0.2-0.3c0-0.1,0-0.3-0.1-0.3l-0.4-0.1
		C181.5,15.5,181.5,15.4,181.5,13.7L181.5,13.7L181.5,13.7z M178.9,50.4c-1.6-0.2-2.1-0.8-3.2-4.1l-5.2-15.6
		c-0.6-1.7-1.2-3.5-1.7-5.2c-0.1-0.3-0.3-0.3-0.6-0.3c-0.4,0.5-1.1,1.2-2,1.5c0.1,0.6-0.1,1.4-0.6,2.8L161.7,40
		c-1.6,4.4-2.6,6.9-3.3,8.7c-0.5,1.4-1.4,1.8-2.3,1.9l-1.2,0.1c-0.2,0.2-0.2,0.8,0.1,1c1,0,2.4-0.1,3.6-0.1c1.8,0,3,0,3.9,0.1
		c0.3-0.2,0.3-0.8,0.1-1l-1.2-0.1c-0.9-0.1-1.1-0.3-1.1-0.8c0-0.4,0.3-1.5,0.8-3.2l1.3-4.1c0.3-0.8,0.5-0.9,1.4-0.9h5.7
		c1.1,0,1.3,0.1,1.6,1l1.7,5.3c0.3,0.9,0.5,1.6,0.5,2.1c0,0.4-0.5,0.6-1.3,0.7l-1.1,0.1c-0.3,0.2-0.2,0.8,0.1,1
		c1.1,0,2.5-0.1,4.3-0.1c1.7,0,3,0,4.6,0.1c0.2-0.2,0.3-0.8,0-1L178.9,50.4L178.9,50.4L178.9,50.4z M169.1,39.9h-4.7
		c-1.1,0-1.1,0-0.8-0.9l2.4-6.8c0.4-1.2,0.8-2.1,0.9-2.3h0.1c0.2,0.5,0.6,1.5,0.9,2.4l2,6.3C170.3,39.7,170.2,39.9,169.1,39.9
		L169.1,39.9L169.1,39.9z M170.7,7.5c0-0.6,0.2-1.7,1.8-1.7c1.4,0,1.8,0.9,2,1.7l0,0c0.1,0.1,0.1,0.1,0.2,0.1c0.1,0,0.3,0,0.3-0.2
		l0,0l0,0c0-0.7-0.1-1.6-0.3-2V5.3h-0.1c-0.1,0-0.3,0-0.5-0.1c-0.4-0.1-1-0.2-1.5-0.2c-2,0-3.3,1.2-3.3,2.9c0,1.5,1.1,2.4,1.8,2.9
		l1.5,1c1.1,0.7,1.2,1.5,1.2,2.2c0,0.9-0.6,1.7-1.8,1.7c-1.6,0-2.3-1.3-2.6-2.3l0,0c0-0.1-0.1-0.1-0.2-0.1c-0.1,0-0.3,0-0.3,0.2l0,0
		l0,0c0,0.7,0.2,1.9,0.4,2.3l0,0l0,0c0.3,0.2,1.2,0.6,2.5,0.6c2.1,0,3.5-1.3,3.5-3.1c0-1.3-0.7-2.3-2-3.2L172,9.3
		C171.5,9.1,170.7,8.4,170.7,7.5L170.7,7.5L170.7,7.5z M166.7,16.3c0.1-0.1,0.1-0.2,0.1-0.3c0-0.1-0.1-0.2-0.1-0.2l0,0
		c-0.4,0-0.8-0.2-1-0.4c-1.1-0.9-1.9-2.3-3.1-4.3c-0.1-0.1-0.1-0.2-0.1-0.2c0.5-0.2,2-1,2-2.8c0-1.4-0.7-2-1.4-2.4
		c-0.8-0.4-1.8-0.5-2.7-0.5c-1.4,0-2.6,0-3.5,0.1l0,0c-0.1,0-0.2,0.2-0.2,0.3c0,0.1,0,0.3,0.1,0.3l0,0l0.5,0.1
		c0.5,0.1,0.6,0.2,0.6,1.8v5.8c0,1.7,0,1.8-0.8,1.9l-0.4,0.1l0,0c-0.1,0.1-0.1,0.3-0.1,0.4s0.1,0.2,0.1,0.2l0,0l0,0c0.7,0,1.3,0,2,0
		s1.2,0,1.9,0l0,0l0,0c0.1-0.1,0.1-0.2,0.2-0.3c0-0.1,0-0.3-0.1-0.3l0,0l-0.4-0.1c-0.8-0.1-0.8-0.2-0.8-1.9v-2c0-0.2,0-0.2,0.6-0.2
		s0.8,0.1,1,0.5s0.5,0.8,0.8,1.2c0.3,0.5,0.5,0.9,0.8,1.2c1.1,1.6,1.9,2.1,3.4,2.1C166.2,16.4,166.5,16.4,166.7,16.3L166.7,16.3
		L166.7,16.3L166.7,16.3z M161.9,10.3c-0.5,0.4-1.1,0.4-1.6,0.4c-0.7,0-0.9,0-1,0c0-0.1,0-0.3,0-0.4V6.4c0-0.4,0-0.4,0.9-0.4
		c1.8,0,2.4,1.3,2.4,2.4C162.7,9.3,162.4,9.9,161.9,10.3L161.9,10.3L161.9,10.3z M153.8,14L153.8,14L153.8,14
		c-0.1-0.2-0.2-0.3-0.4-0.3c-0.1,0-0.1,0-0.2,0.1l0,0c-0.5,0.9-0.9,1.4-1.1,1.5c-0.3,0.2-0.8,0.2-2,0.2c-1.3,0-1.7-0.2-1.8-0.3
		c-0.2-0.2-0.3-0.8-0.3-1.6v-2.3c0-0.3,0-0.3,0.4-0.3h0.9c0.6,0,1,0,1.2,0.1s0.3,0.2,0.4,0.5l0.1,0.6v0.1c0.1,0.1,0.2,0.1,0.3,0.1
		s0.3-0.1,0.3-0.1l0,0l0,0c0-0.2,0-0.4,0-0.6c0-0.3,0-0.6,0-1c0-0.3,0-0.7,0-1c0-0.2,0-0.5,0-0.6l0,0l0,0c-0.1-0.1-0.2-0.2-0.3-0.2
		s-0.2,0-0.3,0.1v0.6c-0.1,0.4-0.2,0.4-0.3,0.5c-0.2,0.1-0.6,0.1-1.3,0.1h-0.9c-0.4,0-0.4,0-0.4-0.3V6.6c0-0.5,0-0.5,0.4-0.5h1.1
		c0.7,0,1.2,0,1.5,0.1c0.7,0.2,0.9,0.7,1.1,1.4v0.1l0,0c0.1,0.1,0.1,0.1,0.3,0.1c0.1,0,0.3,0,0.3-0.1l0,0V7.5
		c-0.1-0.9-0.2-1.7-0.2-2V5.4h-0.1c-0.2,0-1.2,0-2.1,0h-3c-0.6,0-1.1,0-1.9,0l0,0l0,0c-0.1,0.1-0.2,0.3-0.2,0.3c0,0.1,0,0.3,0.1,0.3
		l0.3,0.1c0.8,0.1,0.9,0.2,0.9,1.9v5.8c0,1.8-0.1,1.8-0.9,1.9l-0.6,0.1l0,0c-0.1,0.1-0.1,0.2-0.1,0.4c0,0.1,0.1,0.2,0.1,0.3l0,0l0,0
		c0.9,0,1.5,0,2.1,0h1.4c1.4,0,2.8,0,4.2,0h0.1v-0.1C153.3,15.8,153.7,14.5,153.8,14L153.8,14L153.8,14z M143,5.9
		c0.1-0.1,0.1-0.2,0.1-0.3c0-0.1-0.1-0.2-0.1-0.3l0,0l0,0c-0.5,0-1,0-1.5,0c-0.6,0-1.2,0-1.6,0l0,0l0,0c-0.1,0.1-0.1,0.2-0.2,0.3
		c0,0.1,0,0.2,0.1,0.3l0,0h0.3c0.6,0.1,0.6,0.2,0.6,0.2c0,0.1,0,0.3-0.1,0.6c-0.3,0.7-1,2.6-1.5,3.6c-0.1,0.3-0.3,0.6-0.4,1
		c-0.3,0.7-0.7,1.6-1,2.3c-0.7-1.8-1.4-3.5-2.1-5.3c-0.5-1.2-0.7-2-0.8-2.2c0-0.1,0.2-0.1,0.6-0.2h0.3l0,0c0.1-0.1,0.1-0.2,0.1-0.3
		c0-0.1-0.1-0.2-0.2-0.3l0,0l0,0c-0.7,0-1.3,0-1.9,0c-0.7,0-1.2,0-1.6,0l0,0l0,0c-0.1,0.1-0.2,0.2-0.2,0.3c0,0.1,0,0.2,0.1,0.3l0,0
		h0.3c0.6,0.1,0.8,0.4,1.2,1.3l2.8,7c0.3,0.8,0.6,1.6,0.7,2.1v0.1h0.1c0.1,0,0.2,0.1,0.3,0.1s0.2,0,0.2-0.1l0,0l0,0
		c0.3-0.9,1-2.8,1.6-4.2l0.9-2c0.7-1.7,1.3-3,1.8-3.7c0.2-0.3,0.4-0.5,0.7-0.5L143,5.9L143,5.9L143,5.9L143,5.9z M132.7,28.4
		c-2.9,2.3-4.8,6-4.8,10.3c0,5,2.3,8.6,5.4,10.7c2.8,1.9,6,2.6,9.4,2.6c2.4,0,5.1-0.6,6-0.9c0.4-0.2,0.9-0.3,1.3-0.4
		c0.6-0.7,1.6-3.3,1.8-5.3c-0.2-0.3-0.7-0.3-1-0.2c-0.9,2.3-3,5.6-7.9,5.6c-6.2,0-11.2-4.5-11.2-12.7c0-8,4.9-11.8,10.7-11.8
		c5.5,0,7.2,3,7.8,5.7c0.3,0.2,0.8,0.2,1-0.1c-0.3-2.4-0.5-4.8-0.5-5.7c-0.3,0-0.6,0-1.1-0.2c-1.8-0.5-4.7-0.9-6.7-0.9
		C139,25.1,135.4,26.2,132.7,28.4L132.7,28.4L132.7,28.4z M127.8,13.7V7.9c0-1.8,0.1-1.9,0.9-1.9h0.4l0,0c0.1-0.1,0.1-0.2,0.1-0.3
		c0-0.1,0-0.2-0.2-0.3l0,0l0,0c-0.7,0-1.3,0-1.9,0c-0.7,0-1.2,0-2,0l0,0l0,0c-0.1,0.1-0.2,0.3-0.2,0.3c0,0.1,0,0.3,0.1,0.3l0,0h0.4
		c0.8,0.1,0.9,0.2,0.9,1.9v5.8c0,1.7,0,1.8-0.9,1.9l-0.4,0.1l0,0c-0.1,0.1-0.1,0.2-0.1,0.4c0,0.1,0.1,0.2,0.1,0.2l0,0l0,0
		c0.8,0,1.3,0,2,0c0.6,0,1.2,0,1.9,0l0,0l0,0c0.1-0.1,0.2-0.3,0.2-0.3c0-0.1,0-0.3-0.1-0.3l-0.4-0.1
		C127.9,15.5,127.8,15.4,127.8,13.7L127.8,13.7L127.8,13.7z M119.9,45.5V31.7c0-4.1,0.1-4.8,2.3-5l0.9-0.1c0.2-0.2,0.2-0.9-0.1-1
		c-1.9,0.1-3.2,0.1-4.7,0.1c-1.6,0-2.9,0-4.8-0.1c-0.2,0.1-0.3,0.8-0.1,1l0.9,0.1c2.2,0.2,2.3,0.9,2.3,5v13.8c0,4.1-0.1,4.7-2.3,4.9
		l-0.9,0.1c-0.2,0.2-0.2,0.9,0.1,1c1.9-0.1,3.2-0.1,4.8-0.1c1.5,0,2.8,0,4.7,0.1c0.2-0.1,0.3-0.8,0.1-1l-0.9-0.1
		C120,50.2,119.9,49.6,119.9,45.5L119.9,45.5L119.9,45.5z M121.9,5.9c0.1-0.1,0.1-0.2,0.1-0.3c0-0.1-0.1-0.2-0.2-0.3l0,0l0,0
		c-0.5,0-0.9,0-1.6,0c-0.6,0-1.1,0-1.9,0l0,0l0,0c-0.1,0-0.2,0.1-0.2,0.2s0,0.3,0.1,0.4l0,0h0.3c0.5,0.1,0.8,0.2,0.9,0.3
		c0.2,0.3,0.3,1.5,0.3,3.3V13c0,0.2,0,0.3,0,0.5c-0.5-0.6-1.1-1.2-1.8-2.1l-2.2-2.5c-1.6-1.8-2.5-3-2.7-3.5V5.3h-0.1
		c-0.2,0-0.4,0-0.7,0c-0.3,0-1.1,0-1.8,0l0,0l0,0c-0.1,0-0.1,0.1-0.2,0.2c0,0.1,0,0.3,0.1,0.4l0,0h0.3c0.4,0.1,0.7,0.2,0.9,0.3
		c0.3,0.3,0.3,0.6,0.3,1.1v4.8c0,0.8,0,2.6-0.2,3.1c0,0.1-0.2,0.2-0.6,0.3l-0.5,0.1l0,0c-0.1,0.1-0.1,0.2-0.1,0.3s0.1,0.2,0.1,0.3
		l0,0l0,0c0.5,0,1,0,1.6,0c0.5,0,1.1,0,1.8,0l0,0l0,0c0.1-0.1,0.1-0.1,0.1-0.2s0-0.2-0.1-0.3l0,0l-0.5-0.1c-0.4,0-0.6-0.1-0.7-0.2
		c-0.2-0.3-0.3-1.5-0.3-3.3V8.5c0-0.3,0-0.6,0-0.8c0.3,0.3,0.7,0.8,1,1.3c0.3,0.3,0.5,0.6,0.7,0.8l3.7,4.3c1.2,1.4,1.8,2.1,2,2.4
		v0.1h0.1c0.2,0,0.4-0.1,0.4-0.3l0,0l0,0c0-0.2,0-0.8,0-2.8V9.4c0-0.8,0-2.6,0.2-3.1c0,0,0.2-0.2,0.8-0.3L121.9,5.9L121.9,5.9
		L121.9,5.9L121.9,5.9z M107.8,5.9c0.1-0.1,0.1-0.2,0.1-0.3c0-0.1-0.1-0.2-0.1-0.2l0,0l0,0c-0.5,0-1,0-1.6,0s-1.2,0-1.8,0l0,0l0,0
		c-0.1,0-0.1,0.1-0.1,0.3c0,0.1,0,0.2,0.1,0.3l0,0h0.4c0.4,0,0.6,0.1,0.7,0.3c0.2,0.3,0.3,1.5,0.3,3.3v1.9c0,1.9-0.5,4.2-3,4.2
		c-2.1,0-3.1-1.3-3.1-4.2V7.9c0-1.7,0.1-1.8,0.8-1.9h0.4l0,0c0.1-0.1,0.1-0.2,0.1-0.3c0-0.1-0.1-0.3-0.2-0.3l0,0l0,0
		c-0.7,0-1.3,0-1.9,0s-1.2,0-1.9,0l0,0l0,0c-0.1,0.1-0.1,0.2-0.2,0.3c0,0.1,0,0.2,0.1,0.3l0,0H97c0.8,0.1,0.8,0.2,0.8,1.9v3.8
		c0,2,0.4,3.2,1.3,3.9c0.7,0.6,1.7,0.9,3,0.9c1.2,0,2.4-0.5,3.1-1.2c0.8-0.8,1.1-2.1,1.1-4V9.5c0-0.8,0-2.7,0.2-3.3
		c0.1-0.2,0.3-0.3,0.7-0.3L107.8,5.9L107.8,5.9L107.8,5.9L107.8,5.9z M89.6,26.6c0.2-0.2,0.2-0.9-0.1-1c-1.6,0.1-2.9,0.1-4.4,0.1
		c-1.6,0-2.9-0.1-4.8-0.1c-0.2,0.1-0.3,0.8-0.1,1l1,0.1c2,0.2,2.2,0.8,2.2,4.9v14c0,4.1-0.1,4.5-2.2,4.9l-0.6,0.1
		c-0.2,0.2-0.2,0.9,0.1,1c1.5,0,2.8-0.1,4.4-0.1c1.5,0,2.8,0,4.8,0.1c0.2-0.1,0.3-0.8,0.1-1l-1.1-0.1c-2.1-0.2-2.3-0.8-2.3-4.9v-5.5
		c0-1.2,0.1-1.2,1.9-1.2h10.8c1.8,0,1.9,0.1,1.9,1.2v5.5c0,4.1,0,4.5-2.3,4.9l-0.7,0.1c-0.2,0.2-0.2,0.9,0.1,1
		c1.7-0.1,3-0.1,4.6-0.1c1.5,0,2.8,0,4.6,0.1c0.2-0.1,0.3-0.8,0.1-1l-0.9-0.1c-2.2-0.3-2.3-0.8-2.3-4.9v-14c0-4.1,0.1-4.7,2.3-4.9
		l0.8-0.1c0.2-0.2,0.2-0.9-0.1-1c-1.7,0.1-3,0.1-4.5,0.1c-1.6,0-2.8,0-4.6-0.1c-0.2,0.1-0.3,0.8-0.1,1l0.7,0.1
		c2.2,0.2,2.3,0.8,2.3,4.9v4.5c0,1.2-0.1,1.2-1.9,1.2H88.5c-1.8,0-1.9,0-1.9-1.2v-4.5c0-4.1,0.1-4.7,2.3-4.9L89.6,26.6L89.6,26.6
		L89.6,26.6z M88.1,14L88.1,14L88.1,14c-0.1-0.2-0.2-0.3-0.4-0.3c-0.1,0-0.1,0-0.2,0.1l0,0c-0.5,0.9-0.9,1.4-1.1,1.5
		c-0.3,0.2-0.8,0.2-2,0.2c-1.3,0-1.7-0.2-1.8-0.3c-0.2-0.2-0.3-0.8-0.3-1.6v-2.3c0-0.3,0-0.3,0.4-0.3h0.9c0.6,0,1,0,1.2,0.1
		s0.3,0.2,0.4,0.5l0.1,0.6v0.1c0.1,0.1,0.2,0.1,0.3,0.1c0.1,0,0.3-0.1,0.3-0.1l0,0l0,0c0-0.2,0-0.4,0-0.6c0-0.3,0-0.6,0-1
		c0-0.3,0-0.7,0-1c0-0.2,0-0.5,0-0.6l0,0l0,0c-0.1-0.1-0.2-0.2-0.3-0.2c-0.1,0-0.2,0-0.3,0.1l-0.2,0.7c0.1,0.3,0,0.3-0.1,0.4
		c-0.2,0.1-0.6,0.1-1.3,0.1h-0.9c-0.4,0-0.4,0-0.4-0.3V6.6c0-0.5,0-0.5,0.4-0.5h1.1c0.7,0,1.2,0,1.5,0.1c0.7,0.2,0.9,0.7,1.1,1.4
		v0.1l0,0c0.1,0.1,0.1,0.1,0.3,0.1c0.1,0,0.3,0,0.3-0.1l0,0V7.5c-0.1-0.9-0.2-1.7-0.2-2V5.4h-0.1c-0.2,0-1.2,0-2.1,0h-3
		c-0.6,0-1.1,0-1.9,0l0,0l0,0c-0.1,0.1-0.2,0.3-0.2,0.3c0,0.1,0,0.3,0.1,0.3L80,6c0.8,0.1,0.9,0.2,0.9,1.9v5.8
		c0,1.8-0.1,1.8-0.9,1.9l-0.6,0.1l0,0c-0.1,0.1-0.1,0.2-0.1,0.4c0,0.1,0.1,0.2,0.1,0.2l0,0l0,0c0.9,0,1.5,0,2.1,0h1.4
		c1.4,0,2.8,0,4.2,0h0.1v-0.1C87.6,15.8,88,14.5,88.1,14L88.1,14L88.1,14z M74.9,13.7V7.9c0-1.7,0-1.8,0.8-1.9H76h0.1
		c0.1-0.1,0.1-0.2,0.1-0.3c0-0.1,0-0.2-0.2-0.3l0,0l0,0c-0.8,0-1.3,0-1.9,0c-0.7,0-1.2,0-1.9,0l0,0l0,0C72.1,5.5,72,5.7,72,5.7
		C72,5.8,72,6,72.1,6h0.4c0.8,0.1,0.9,0.2,0.9,1.9v1.9c0,0.4,0,0.4-0.7,0.4h-4.5c-0.7,0-0.7,0-0.7-0.4V7.9c0-1.7,0-1.8,0.8-1.9h0.3
		h0.1c0.1-0.1,0.1-0.2,0.1-0.3c0-0.1,0-0.2-0.2-0.3l0,0l0,0c-0.7,0-1.2,0-1.8,0c-0.4,0-0.8,0-1.2,0c-0.3,0-0.5,0-0.8,0l0,0l0,0
		c-0.1,0.1-0.2,0.3-0.2,0.3c0,0.1,0,0.3,0.1,0.3l0,0h0.4C65.9,6,66,6.2,66,7.9v5.8c0,1.7,0,1.8-0.8,1.9l-0.3,0.1l0,0
		c-0.1,0.1-0.1,0.2-0.1,0.4c0,0.1,0.1,0.2,0.1,0.2l0,0l0,0c0.2,0,0.4,0,0.6,0c0.4,0,0.8,0,1.2,0c0.6,0,1.1,0,2,0l0,0l0,0
		c0.3,0,0.3-0.2,0.3-0.3s0-0.3-0.1-0.3l-0.5-0.1c-0.8-0.1-0.9-0.2-0.9-1.9v-2.3c0-0.4,0-0.4,0.7-0.4h4.5c0.7,0,0.7,0,0.7,0.4v2.3
		c0,1.7,0,1.8-0.9,1.9l-0.3,0.1l0,0c-0.1,0.1-0.1,0.2-0.1,0.4c0,0.1,0.1,0.2,0.1,0.2l0,0l0,0c0.8,0,1.3,0,1.9,0s1.2,0,1.9,0l0,0l0,0
		c0.1-0.1,0.2-0.3,0.2-0.3c0-0.1,0-0.3-0.1-0.3l-0.4-0.1C75,15.5,74.9,15.4,74.9,13.7L74.9,13.7L74.9,13.7z M62,5.1L62,5.1L62,5.1
		c-0.1-0.2-0.2-0.2-0.3-0.2h-0.1l0,0l0,0c-0.2,0.4-0.3,0.4-1.1,0.4H54c-0.7,0-1,0-1.1-0.4l0,0l0,0c0,0-0.1-0.1-0.2-0.1
		c0,0-0.2,0-0.2,0.1l0,0V5c-0.1,0.6-0.3,1.7-0.6,2.4v0.1l0,0c0.1,0.2,0.4,0.3,0.6,0.2l0,0l0,0c0.2-0.4,0.3-0.7,0.7-1.1
		c0.3-0.3,1.1-0.4,1.9-0.4H56c0.4,0,0.4,0,0.4,0.4v7.2c0,1.8-0.1,1.8-0.9,1.9h-0.6h-0.1c-0.1,0.1-0.1,0.2-0.1,0.3
		c0,0.1,0,0.2,0.1,0.3l0,0l0,0c1,0,1.5,0,2.2,0c0.6,0,1.1,0,2.1,0l0,0l0,0C59,16.3,59,16.1,59,16s0-0.3-0.1-0.3l-0.6-0.1
		c-0.8-0.1-0.8-0.2-0.8-1.9V6.5c0-0.2,0-0.3,0-0.3s0.2,0,0.3,0H59c0.8,0,1.4,0.1,1.8,0.4c0.1,0,0.2,0.4,0.3,1l0,0l0,0
		c0.1,0.1,0.2,0.1,0.3,0.1s0.3-0.1,0.3-0.2l0,0l0,0C61.7,7,61.8,5.7,62,5.1L62,5.1L62,5.1z M51.2,38.7c0,5,2.3,8.6,5.4,10.7
		c2.8,1.9,6,2.6,9.4,2.6c2.4,0,5.1-0.6,6-0.9c0.4-0.2,0.9-0.3,1.3-0.4c0.6-0.7,1.6-3.3,1.8-5.3c-0.2-0.3-0.7-0.3-1-0.2
		c-0.9,2.3-3,5.6-7.9,5.6C60,50.8,55,46.3,55,38.2c0-8,4.9-11.8,10.7-11.8c5.5,0,7.2,3,7.8,5.7c0.3,0.2,0.8,0.2,1-0.1
		c-0.3-2.4-0.5-4.8-0.5-5.7c-0.3,0-0.6,0-1.1-0.2c-1.8-0.5-4.7-0.9-6.7-0.9c-3.9,0-7.5,1.1-10.2,3.3C53.1,30.7,51.2,34.4,51.2,38.7
		L51.2,38.7L51.2,38.7z M41.4,32.2V5.1C20.2,3,4.3,5.1,4.3,5.1v27.1C6,50.6,22.7,52.7,22.9,52.7C25.8,52.1,39.8,49.2,41.4,32.2
		L41.4,32.2L41.4,32.2z M10.2,38.9c0.3,0.2,0.7,0.3,1.1,0.5c0.5,1.2,0,2.4-0.2,1.9C10.6,40.5,10.5,39.8,10.2,38.9L10.2,38.9
		L10.2,38.9z M10.2,25.6L10.2,25.6c-0.1,0-2.4,1.5-3.9,0.8c1.1-0.6,5-3.2,6.1-3.9c0.5,0.1,0.7-0.1,0.9-0.2c-0.4,0-1.8,0.2-1.1-1
		c0.3,1.1,2.2,0.1,2.8-0.1c1.9-0.4,1.9,1.6,1.7,2.5c-0.1,0.3,0.6,0.5,0.9,0.5c-0.5,1.4-1.5,0.1-1.6,0.6c0,0.2-0.7,0.4-0.7,0.9
		c0,0.7,0.3,0.3,0.3,0.9c0,0.5-0.2,0.1-0.2,0.7c0.1,0.9,1.6-0.1,2.2,0.1c0.3,0.1,0.5,0.4,0.8,0.4c0.1-0.1,0-0.4,0-0.6
		c0-0.3-0.6-0.3-0.8-0.7c-0.2-0.4,0.2-1.4,0.5-1.7c0.4,1.7,1.9,1.2,2.2,3c0.1,0.5-0.5,1.1,0,1.9c-0.4,0.4-0.9,2.4,0,3.3
		c-0.1,0.4-0.3,1.4,0.4,2c-0.3,0.6-0.2,1.3,0,2c-0.5,0-0.4-2.8-3.3-2.9c-0.1,0-0.1,0.3,0,0.5c0.3,0.6,0.8,0.6,0.7,2.1
		c0,0.5-0.3-0.1-0.5-0.2c-0.4-0.3-0.6-0.4-0.8-1.4c-1.2,1-1.1,2.1-1,2.7c0,0-0.3-0.7-0.6-1.5c0,0,1.2-1.5,1.4-1.9
		c2.5-4.5-1.6,1.5-1.6,1.4c-0.2-0.5-0.4-1-0.5-1.1c0-0.1,0.7-0.8,1-1.5c1.9-4.1-1.1,1.4-1.2,1.3c-0.2-0.2-0.4-0.5-0.6-0.4
		c0,0.6-0.2,0.5-0.1,1.2c-0.3,0.4-1,1.1-1.5,1.5c0,0-0.1-1.1-0.1-1.2c0.2-0.3,1.2-1.3,1.4-1.6c3.1-5-1.5,1.2-1.5,1.2
		c0-0.2-0.3-0.5-0.6-0.8c0,0,1-1.4,1.3-1.9c1.9-4-1.5,1.8-1.6,1.8s-0.1,0-0.2-0.1c-0.1,0,0.1-1.2,0.2-1.8c0.3-1.3-0.4-0.3-0.6,1.9
		c-0.2,0-0.6,0.1-0.8,0.2c0.1,0.6,0.2,0.1,0.5,0.7c0.3,0.6-0.4,1.7,0.2,2.5c0.2,0.3,0.2,0.3,0.2,0.4c-0.4,0-0.6,0-0.8,0.3
		c-0.4-2-0.4-3-0.3-5.1c0-0.9,0.3-2.4,0.2-2.4s-2.2,5.4-2.7,6.5c-0.9-0.3,0.5-5,2.3-7.3c0.2-0.7-0.9,0.7-1.6,1.3
		c-0.6,0.5-1.4,1.2-2.2,1c1.1-1.2,3.5-3.4,3.8-3.9C9.4,28,7.5,30,5.5,29.2C7.2,28.4,10.2,26.8,10.2,25.6L10.2,25.6L10.2,25.6z
		 M13.9,35.9c0,0.5,0,0.9,0.1,1.4c0.2,0.8,0.1,0.5-0.2,0.3c-0.2-0.3-0.5-0.5-0.6-0.8C13.2,36.5,13.3,36.5,13.9,35.9L13.9,35.9
		L13.9,35.9z M18.8,23.6c-0.3-0.5,0.4-1,0.4-1c0,1.5,1.8,0.5,2.7,0.9c0.2,0.1,0.4,0.3,0.5,0.5C21.3,23.3,19.4,24.8,18.8,23.6
		L18.8,23.6L18.8,23.6z M8.1,12c-1.6,0-1.6-2.5,0-2.5S9.7,12,8.1,12L8.1,12L8.1,12z M8.1,17c-1.7,0-1.7-2.5,0-2.5
		C9.7,14.5,9.7,17,8.1,17L8.1,17L8.1,17z M11.2,11.6H9.8v-1.4h1.4V11.6L11.2,11.6z M11.2,16.5H9.8v-1.4h1.4V16.5L11.2,16.5z
		 M22.6,19c0,0-1.5-0.8-3.2-0.9s-5.1,1.3-7.6,1.1V7.4c0,0,3,0.4,4.2-0.1c4.1-1.6,6.7,0.2,6.7,0.2L22.6,19L22.6,19L22.6,19z
		 M25.4,20.9c0.1,0.4-0.3,0.6-0.3,0.6c0.6,0.1,0.9-0.2,1-0.5c0.2,1-0.8,1.1-1.1,1.1c0,0,0.5,0.1,0.5,0.5c0.1,0.9,0.6,0.8,0.7,0.7
		c0,0.1-0.2,0.6-0.8,0.2c-0.1,0.1,0.2,0.3,0.2,0.7c0.1,0.5,0.1,1,0.7,1.4c-0.4,0.3-0.8-0.5-0.8-0.4s0.5,0.4-0.1,1.9
		c-0.3-0.2-0.1-0.1-0.5-0.5c-0.2-0.2-0.3-0.3-0.1,0.1c0.4,0.5,0.4,1.5,0.3,1.8c-0.3-0.1-0.2-0.4-0.6-0.7c0,0.1,0.1,0.9,0.5,1.2
		c0.6,0.6,0.9,1.3,0.9,1.4c0.1,0.5-0.1,1.2-0.2,1.9c-0.3,0-0.6-0.9-0.6-0.9c-0.1,0.1,0,0.9,0.6,1.4c0.3,0.8,0.2,1.3,0.1,1.3
		s-0.4-0.8-0.6-0.7c0.8,2.1,0.2,2.9,0,3.5c-0.2-0.7-0.3-1.2-0.5-1.9c-0.4,0.4-0.5,0.9-1.1,1.4c0-0.9-0.5-3-0.9-3.4
		c0,0-0.7,1.9-1,2.7c-0.4,1.1-0.5,2.5,0,3.5c-1-1.5-1.1-4.2-0.2-4.6c0.1-0.2-0.1-0.8-0.2-0.8c-0.1,0.3,0,0.6-0.3,0.9
		c-0.7-0.2-0.4-1-0.3-1.3c0.9-1.1,0.3-1.3,0.3-1.3c-0.1,0.2-0.2,0.5-0.4,0.7c-0.6-1-0.2-2.5,0.9-3.7c0-0.4-0.5,0.3-0.8,0.3
		c-0.1-0.8,0.2-2.3,1.7-2.3C22.1,27,22,27,21.9,26.7c0.4-0.1,1.9-0.2,1.6-1.3c-0.1,0.1-0.2,0.3-0.5,0.6c-0.2,0.2-0.5,0.2-0.7-0.1
		c0.7-0.2,0.4-1-0.4-0.8c-0.3,0.1-0.6-0.2-0.7-0.5c0.2,0.2,0.6,0.1,0.8-0.1c1-0.6,1.5,0.3,1.7,0.5c0,0,0.4-0.9-0.9-1.2
		c-0.1-0.3-0.4-0.9-1.3-0.8c-0.3-1.1-1.2-0.6-1.2-0.1c-1-0.7,0-1.7,0.4-1.8c0.3,0,0.2,0.9,0.7,0.8c0.1,0-0.4-0.6-0.2-0.9
		c0.4-0.3,0.4,0.3,0.6,0.1c0.1-0.4,0.5-0.6,0.9-0.6C23.7,20.3,24.5,21.4,25.4,20.9L25.4,20.9L25.4,20.9z M34.4,19.2
		c-2.2,0.2-6.7-1.1-7.8-1.1c-2.4,0-3.5,0.9-3.5,0.9s0-11,0-11.4c0,0,3.1-1.5,5.4-0.6c2.8,1.1,6,0.6,6,0.6L34.4,19.2L34.4,19.2
		L34.4,19.2z M37.3,14.7c1.2-0.2,1.4,1.3,1.4,1.3l0,0c-0.3-0.2-0.9-0.3-1.3-0.1c-1.3,0.9-2.5,0.9-2.5,0.9v-2.2
		C34.8,14.5,35.1,15,37.3,14.7L37.3,14.7L37.3,14.7z M38.7,11.6c0-0.1,0-0.2,0-0.3c0-0.2-0.6-0.4-1.1-0.2c-0.6,0.3-2.1,1.2-2.7,1V10
		c1.4,0.6,1.9,0.1,2.4,0.1c1.4,0,1.4,1.3,1.4,1.3C38.7,11.5,38.7,11.6,38.7,11.6L38.7,11.6L38.7,11.6z M37.2,34.6
		c-0.4,0.1-1.5,0.5-1.7,1c0.1-2.4-0.6-4.7-0.8-5.2c-0.5-1.1,0.2,2.5,0.3,3.4c0,0-3.8-5-1.5-1.1c0.6,1,1.5,1.7,1.5,1.7
		c0,0.7,0,1.2-0.2,1.6c-0.2,0.2-5.2-6.8-2.5-2c0.3,0.6,2.3,2.4,2.3,2.5c-0.1,0.3-0.3,0.7-0.7,1c-0.1-0.1-1.1-0.9-1.2-0.9
		c-0.1-0.5-0.1-1-0.7-0.7c0,0-2.4-2.9-1.3-0.9c0.5,0.9,0.8,1,1,1.2c0,0-0.4,0.5-0.5,1.1c0,0.2-2.1-2.4-1.3-0.7
		c0.3,0.5,1.2,1.1,1.2,1.1c-0.1,0.3-0.2,0.7-0.3,0.9c-0.1,0.3-2,1.8-1.9,1.8c0,0,0.4-1.2,1.1-1.8c0.4-0.3,0.4-0.3,0.7-0.4
		c0-0.2-0.2-0.5-0.4-0.5c-0.3-0.1-1.1,0.1-1.1,0.1c0.1-0.4-0.3-1.4-0.3-2.4c-0.3,0-0.9,0.5-1,0.8c-0.1,1.7-0.5,1.2-0.8,2.5
		c-0.4-0.5,0-1.3-0.3-1.8c-0.5-0.7-0.6-1.1-0.7-2c0.1-0.1,0.6-0.7,0.2-1.9c-0.1-1.9,0.8-2.7-0.7-4c0.1,0,0.2-1,0.2-1
		c1.1,0.6,0.9-0.7,1.3-1c0.7-0.4,0.6-0.8,0.3-1.4c2,0.6-0.1,1.9,0.8,2c0.6,0,1.1-0.1,1.3-0.6c0.3-0.5-0.1-0.8,0.8-1.5
		c0.1-0.1,0.3-0.6-0.4-0.7c-0.1,0,0-0.6,0-0.6c-0.5,0.5-0.7,1.1-1.5,0.7c-0.4-0.2-0.7,0-0.9,0.1c0,0-0.1-0.4,0.3-0.5
		c0.9-0.3,1.2-0.7,1.1-0.9c-0.1-0.5-0.2,0-0.1-0.5c0-0.2,0.2-0.5,0.4-0.7c0.6-0.8,1.1-0.5,1.2-0.4c0.4-0.3,0.4-0.3,0.8-0.4
		c0.6-0.2,1.8,0.2,2.5,0.5c0.3,0.2,0.7,0.3,1.1,0.2c0,0.2-0.1,0.3-0.3,0.4s-0.5,0-0.5,0.2c0,0.1,0.3,0.1,0.5,0.2
		c1,0.3,2.4,1.3,1.5,1.1c-0.1,0,0.6,0.6,1.2,1.3l2,2c-0.1,0.1-0.8,0-3-2.1c-0.3,0.3,2.7,2.6,3.9,5.1c-0.1,0.1-1.7-0.5-2.2-1.1
		C37,28,36.1,25.6,35.7,26c0,0,1.6,2.7,2.5,4.3c0.4,0.8,0.8,2,0.8,2.8c0.1,4.3-0.5,4-0.5,4c-1-3.4-1.4-7.3-2.9-9.1
		C35,27.2,37.1,31.1,37.2,34.6L37.2,34.6L37.2,34.6z M32.8,38.5c-0.4,0.4-0.7,0.5-0.6,0.3c0.1-0.2,0.2-0.4,0.2-0.6
		C32.5,38.2,32.8,38.5,32.8,38.5L32.8,38.5L32.8,38.5z M32.5,38c0.1-0.4,0.1-0.6,0.1-0.9c0-0.1,0-0.1,0-0.2c0,0,1,0.8,1,0.9
		c-0.2,0.3-0.4,0.4-0.7,0.6C32.9,38.1,32.5,38,32.5,38L32.5,38L32.5,38z M35.6,39c-1.3,1.3-3.3,0.9-4.9,1.6
		c-1.4,0.5-2.4,1.9-3.9,2.2c-0.4,0.1-0.5,0.4-0.2,0.4c0.2,0,1.1,1,2.5,0.2c0.5-0.3,2-1.1,2.2-1.2c-0.8,0.8-1.2,1.5-2,1.9
		c-0.4,0.3-2.3,0.9-4.1,0.6c-0.8-0.2-1.4,0.6-1.2,0.6c0.4-0.1,0.9-0.1,1.2,0.3c0.5,0.4,1.3,1,1.9,0.2c0.2-0.3,1.3-0.8,2.2,0.2
		c-1-0.1-0.9,1.9-2.9,1.6c-0.7,0-2.3-1.7-2.8-1.2c-0.8,0.9,1.7,1.8,0.6,3c-1,1.1-2.2-0.9-2.2-0.9c0.6,0.3,1.8,0.4,1.3-0.6
		c-0.2-0.4-0.6-0.8-0.6-1.6c-0.1-0.4-2.4,3-3.9,1.5c-0.6-0.6-1.8-1.9-2.9-2.4c2.9-0.3,3.3,0.9,3.5,1.1c0.9,1.3,1.8,0,2-0.2
		c0.3-0.4,0.7-0.8,0.6-0.9c-1.1-0.5-2.4-0.7-3.4-0.2c2.1-2.9,3.7-0.2,3.7-0.2c0.2,0.1-0.1-1.7-2.1-1.8c-1.3-0.1-2.4,1.1-3.3,1.1
		c-0.7,0-2.9-1.5-3.4-2.8c1.3,1,2.9,1.5,3.9,0.9c1.9-1.1,4.2,0.6,4.4,0.4c-0.5-0.4-1.7-2.1-4.9-1.1c-1.2,0.7-1.8-0.5-2.5-0.6
		c1.3-1.2,2.2-0.6,2.7-0.5c0.1,0-0.5-0.6-1-0.6c-3.6-0.4-5.8-1.4-5.8-1.4s0.3-0.7,1.8-0.2c0,0-1.4-0.9-1.4-2c0-0.7,0.4-1.4-0.1-2
		c2.1-0.1,0.6,2.9,2,3.6c0,0-0.4-0.7,0.2-1.3c0.3,0.9,1,1.3,1.6,1.5c0.1-0.1,0.3-0.3,0.3-0.3c-0.5-0.9-0.6-2-0.5-3.2l0,0
		c0.1,0,0.3,0.4,0.5,0.7c0.3,0.7,0.3,1.6,0.9,2.4c0.3,0.4,0.5,0.9,0.8,1.1c0.1-0.3,0-0.8,0-1c-0.1-0.5-0.4-1.4,0.5-2.2
		c0.4,1.2,0.9,0.8,1,1.4c0.1,0.8,0.1,0.7,0,1.3c0,0.8,0.8,1.1,1.4,1.6c1.5,0.8,2.4,1.3,3.1,2.3c0.3-1.8-4.3-2.1-3.7-5.5
		c-0.1-1.4,0.2-1.5-0.8-2.3c1.9,0.1,2.9,3.2,3,3.8c0.2,1.1,0.8,1.1,1.7,2.5c0.1,0-1.5-3.7,0.4-6.8c0,0,0.7,1.6,0.4,2.7
		c-0.2,0.6,0,1.4,0,1.8c0,0.4-0.1-1.5,1.3-2.5c0.1,0.7,0.8,1.8,0.1,3.1C24,40.6,24,40,24,41.8c0.1,0,0.3-1.2,0.8-1.9
		c1.1-1.5,0.3-2.2,1.4-3.5c0.1,0.6,0.2,0.4,0.3,0.9c0.1,1.3-1.1,2.6-0.8,2.6c0.3,0,0.8-0.3,1-1.3c0,0,0.5,0.9,0,1.2
		c-0.8,0.5-0.9,1.1-0.8,1.7c0.6-0.8,1.5-1.6,1.3-2.7c0.1-0.7,0.8-0.9,0.9-2.5c0-0.3,0.3-0.6,0.5-0.7c-0.1,0.9,0.5,1.8-0.2,2.8
		c0.2,0.1,0.8-0.8,1.7-0.5c-1.8,0.3-1.3,2.4-2.7,3.3c-0.4,0.3-0.4,0.6-0.5,0.6c1.3-0.1,2.2-1.6,2.4-1.7c1.3-0.9,1.5-1,2-2.4
		c0.2-0.5,0.1-0.8,0.8-1.5c0.3,0.7-0.1,2.2-0.2,2.5c-0.2,0.7-1,1.3-0.9,1.3c3.4-1.5,3.3-2.6,4.2-3.7c0.2-0.4,1.4-1.1,1.9-1.2
		c-0.1,0.2-0.6,0.6-0.6,1c0,0.8-0.3,1.2-0.7,1.9c0.2,0.3,0.6-0.5,1-0.1C36.3,38,36.1,38.7,35.6,39L35.6,39L35.6,39z M36.2,38.8
		c-0.2,1-0.5,2-1.1,2.8c-0.4,0.6-0.6-0.6-0.2-1.7C35.4,39.7,35.9,39.3,36.2,38.8L36.2,38.8L36.2,38.8z M33.6,13.1
		c-0.1,0-0.2-0.1-0.3-0.1s-0.2,0.2,0,0.2c0.1,0,0.2,0.1,0.4,0.1C33.7,13.3,33.7,13.2,33.6,13.1L33.6,13.1L33.6,13.1z M33.2,13.6
		c0.1,0,0.2,0,0.4,0.1c0.1,0,0.1-0.2,0-0.2s-0.2-0.1-0.3-0.1C33.2,13.4,33.1,13.6,33.2,13.6L33.2,13.6L33.2,13.6z M33.2,15.8
		c-0.1-0.1-0.3-0.3-0.5-0.4c-0.1,0.1-0.3,0.2-0.5,0.3c-0.1-0.1-0.2-0.3-0.4-0.4c-0.1,0.1-0.5,0.4-0.6,0.5c0.2,0,0.5,0.1,0.6,0.3
		c0,0.2,0,1.2,0,1.4c0.1,0,0.3,0,0.5,0c0-0.1,0-1.4,0-1.5c0.1,0,0.1-0.1,0.2-0.1c0.1,0.1,0.3,0.3,0.4,0.4c0.1-0.1,0.3-0.3,0.4-0.4
		C33.5,15.8,33.3,15.7,33.2,15.8L33.2,15.8L33.2,15.8z M32.7,14.1c0.1-0.2,0.3-0.6,0.3-0.9c0-0.3-0.2-0.9-0.7-1
		c-0.6,0.2-1,0.7-1,1.3c0,0.4,0.3,1.1,0.9,1.1C32.3,14.4,32.5,14.2,32.7,14.1L32.7,14.1L32.7,14.1z M32.3,14.2
		c-0.1-0.1-0.5-0.4-0.6-0.7s-0.1-0.7,0.2-1c0.3,0.1,0.6,0.4,0.6,0.7C32.5,13.6,32.4,14,32.3,14.2L32.3,14.2L32.3,14.2z M32.3,11.5
		l0.5-0.5c0,0-0.2-0.2-0.3-0.3c0-0.1,0-1.1,0-1.2c-0.3-0.3-0.6-0.4-0.7-0.3c-0.3,0-0.6,0.4-0.6,0.5C31,9.8,31,9.9,31,10
		c0.1,0,0.1,0.1,0.2,0.1l0,0c-0.1,0.1-0.3,0.5-0.3,0.7s0.2,0.6,0.4,0.7c0.2-0.1,0.4-0.3,0.7-0.4C32,11.3,32.1,11.4,32.3,11.5
		L32.3,11.5L32.3,11.5z M32,10.3c-0.2-0.1-0.7-0.3-0.8-0.4V9.8c0.1-0.2,0.2-0.3,0.3-0.3c0.1,0,0.5,0.2,0.5,0.4
		C32,9.9,32,10.1,32,10.3L32,10.3L32,10.3z M32,11c-0.1,0-0.2,0-0.4,0.1c-0.1-0.1-0.4-0.5-0.2-0.9c0,0-0.1,0-0.1-0.1
		c0.2,0.1,0.5,0.2,0.7,0.3c0,0.2,0,0.3,0,0.4S32,11,32,11L32,11L32,11z M30.7,8.9c-0.1,0-0.8,0-0.8,0c-0.1-0.2-0.1-0.3,0.1-0.6
		c0.1-0.1-0.1-0.2-0.1-0.1c0,0.1-0.4,0.6-0.8,0.8c-0.2,0.1,0.2,0.3,0.2,0.3c0,0.5,0.1,1.2,0.2,1.5c0.1,0.2,0.3,0.5,0.4,0.4
		s0.3-0.4,0.3-0.5c0.1-0.1,0-0.2-0.1-0.1c-0.1,0.1-0.2,0-0.2-0.1s-0.1-1.2-0.1-1.2s0.8-0.1,0.9-0.1C30.7,9.1,30.7,8.9,30.7,8.9
		L30.7,8.9L30.7,8.9z M28.4,10.9l0.3-0.5c-0.3,0-0.4-0.1-0.5-0.3V8.9l-0.4-0.4h-0.1L27.1,9c-0.1,0.1,0.1,0.1,0.2,0l0.4,0.2v1.1
		c0,0.1,0.1,0.3,0.3,0.4h0.4V10.9z M28.1,8.3l0.2-0.2V7.9L28,7.6l-0.3,0.2v0.3l0.2,0.2L28.1,8.3L28.1,8.3z M27.2,8
		c-0.2,0-0.7,0-0.9,0s-0.2,0.1,0,0.1c0.1,0,0.2,0,0.3,0.3c0.1,0.2-0.3,1.1-0.4,1.4c-0.1-0.2-0.5-1-0.5-1.1s0.2-0.2,0.2-0.2
		c0.1,0,0.1-0.1,0-0.2c-0.3,0-1.3-0.1-1.5-0.2c-0.1,0-0.2,0.1,0,0.1s0.3,0,0.5,0.2c0.2,0.3,0.9,1.8,1,2.4c0.1-0.1,0.7-2.1,0.8-2.3
		c0-0.2,0.2-0.4,0.4-0.5C27.3,8.1,27.3,8,27.2,8L27.2,8L27.2,8z M24,12.8c0,0.8,0.3,0.9,0.7,1.1c0.3,0.2,0.9,0.2,1.4,0
		c0.2,0,0.3-0.1,0.2,0.1c0,0.1,0.1,0.1,0.1,0s0-0.8,0-0.8c0-0.1-0.1-0.1-0.1,0s0,0.1-0.1,0.3c-0.3,0.5-1,0.4-1.4-0.1
		c-0.1-0.2-0.3-0.4-0.1-0.5c0.2,0,0.6,0.1,1,0.1c0.2,0,0.6,0.1,0.7,0.1c0,0,0.1,0.1,0.1,0s0-0.4,0-0.5s-0.1,0-0.1,0
		c-0.1,0-0.5,0.1-0.7,0.2c-0.2,0-0.8,0.1-0.9,0c-0.2-0.1-0.1-0.4,0-0.6c0.4-0.6,1.2-0.5,1.5-0.1c0.1,0.2,0.1,0.2,0.1,0.3
		s0.1,0.1,0.1,0s0-0.9,0-1s-0.1-0.1-0.1,0s-0.1,0.1-0.3,0.1c-0.3-0.1-1,0-1.3,0.2C24.5,11.9,24,12.3,24,12.8L24,12.8L24,12.8z
		 M24.2,14.2c0,0.2,0.1,2.2,0.1,2.5c0,0.2,0.2,0.3,0.4,0.5c0.1-0.1,0.3-0.4,0.5-0.5c0.1-0.1,0-0.1,0-0.1c-0.1,0.1-0.3,0-0.3-0.2
		s0-1.9,0-2.2C24.6,14.2,24.3,14.2,24.2,14.2L24.2,14.2L24.2,14.2z M25.8,15.9c-0.1,0.1-0.4,0.5-0.4,0.7s0.1,0.5,0.3,0.6
		c0.2-0.2,0.4-0.4,0.8-0.6c0,0.2,0.2,0.2,0.3,0.3c0.1-0.1,0.4-0.5,0.5-0.6s0-0.1-0.1-0.1c-0.1,0.1-0.2,0-0.4-0.2c0-0.1,0-1,0-1
		c-0.2-0.2-0.3-0.4-0.5-0.4c-0.3,0-0.6,0.5-0.7,0.6C25.6,15.4,25.7,15.8,25.8,15.9C25.7,15.8,25.7,15.8,25.8,15.9L25.8,15.9
		L25.8,15.9z M26,16c0.2,0.1,0.2,0,0.5,0c0,0.2,0,0.3,0,0.4c-0.1,0.1-0.2,0.1-0.4,0.2C25.9,16.5,25.7,16.4,26,16L26,16L26,16z
		 M25.8,15.3c0.1-0.2,0.2-0.2,0.2-0.2c0.1,0,0.4,0.2,0.3,0.3c0,0.1,0,0.3,0,0.5c-0.2,0-0.4,0.1-0.6-0.2
		C25.8,15.7,25.8,15.4,25.8,15.3L25.8,15.3L25.8,15.3z M27.5,15c-0.2,0.1,0.2,0.3,0.2,0.3c0,0.5-0.1,1.3,0.1,1.5
		c0.1,0.2,0.3,0.3,0.5,0.2c0.1-0.1,0.3-0.4,0.4-0.4c0.1-0.1,0-0.2-0.1-0.1s-0.3,0-0.4-0.1c0-0.1-0.1-1.2,0-1.2c0,0,0.3,0,0.4,0
		s0.1-0.2,0-0.2s-0.3,0-0.4-0.1c0-0.1,0-0.4,0.1-0.6c0.1-0.1-0.1-0.2-0.1-0.1C28.1,14.5,27.8,14.8,27.5,15L27.5,15L27.5,15z
		 M27.6,12.8c0,0.5-0.2,0.9-0.5,1.2c0.4-0.1,0.5-0.4,0.7-0.7c0.1,0.2,0.4,0.4,0.6,0.5c0.1-0.1,0.5-0.5,0.6-0.6
		c-0.3-0.1-0.8-0.3-0.9-0.6c-0.1-0.2-0.1-0.3,0-0.5c0.1,0.1,0.7,0.4,1-0.1c-0.3-0.1-0.6-0.3-0.7-0.5c-0.1,0.1-0.3,0.4-0.5,0.5
		c0-0.2-0.3-0.3-0.5-0.4c-0.1,0.1-0.5,0.4-0.7,0.5c-0.1,0,0,0.2,0.1,0.1c0.1,0,0.2-0.2,0.4-0.2C27.4,12.1,27.6,12.3,27.6,12.8
		L27.6,12.8L27.6,12.8z M29.7,12.8c0.1-0.3,0.2-0.4,0.3-0.5c0.1,0.1,0.2,0.3,0.4,0.3c0.2,0,0.4-0.1,0.4-0.2
		c-0.1-0.1-0.5-0.5-0.6-0.6c-0.2,0.1-0.9,0.5-1,1c-0.1,0.7,0.1,0.8,0.4,1.2c0.2,0.2,0.4,0.2,0.6,0.2c0.1-0.1,0.6-0.6,0.7-0.6
		c0-0.1,0-0.1-0.1-0.1c-0.1,0.1,0,0.1-0.1,0.1s-0.4,0.1-0.6,0C30,13.5,29.6,13.2,29.7,12.8L29.7,12.8L29.7,12.8z M29.3,15
		c-0.1,0.1-0.3,0.2-0.5,0.5c0.2,0,0.3,0,0.3,0.2c0.1,0.1,0,0.8,0,1s0.1,0.3,0.3,0.5c0.2,0,0.7-0.3,0.8-0.4c0,0.2,0.2,0.4,0.4,0.4
		c0.1-0.1,0.2-0.2,0.3-0.3c-0.1-0.1-0.1-0.1-0.2-0.3c0-0.2,0-0.8,0-1.1c-0.1-0.2-0.3-0.4-0.5-0.5c-0.1,0.1-0.3,0.3-0.5,0.5
		c0.1,0,0.4,0,0.5,0.2c0,0.2,0,0.5,0,0.8c0,0.3-0.8,0.2-0.8,0s0-0.8,0-1C29.6,15.3,29.5,15.2,29.3,15L29.3,15L29.3,15z M24.5,21.8
		L24.5,21.8c-0.4-0.1-0.8-0.4-1.1-0.5c-0.5-0.2-1.1,0.2-1.1,0.3c0,0.1,0.2,0.2,0.6-0.1c-0.3,0.4,0,0.7,0,0.7c-0.1,0-0.3-0.1-0.5-0.1
		c0,0.1,0.2,0.2,0.3,0.3C23.3,22.7,23.8,21.9,24.5,21.8L24.5,21.8L24.5,21.8z M23.2,22.2c0,0,0.2-0.2,0.2-0.4c0-0.2-0.2-0.4-0.2-0.4
		c0.2,0,0.6,0.3,0.7,0.4L23.2,22.2L23.2,22.2L23.2,22.2z M19.3,16.6l0.2-0.2c-0.2,0-0.1,0-0.2-0.2v-1L19,14.7h-0.1l-0.5,0.5
		c-0.1,0.1,0,0.2,0.1,0l0.3,0.2v1c0,0.1,0.1,0.2,0.3,0.3L19.3,16.6L19.3,16.6z M19.4,13.2c0.2,0.5,0.5,0.6,0.8,0.6
		c0.1-0.2,0.2-0.4,0.3-0.5c0.1-0.2,0-0.3-0.1-0.1s-0.4,0-0.6-0.1c-0.2-0.2-0.3-0.6-0.1-0.8c0.1-0.2,0.3-0.1,0.6-0.1
		c0.2,0,0.2-0.2,0.2-0.3c-0.1,0-0.2-0.1-0.4-0.2c-0.2,0.1-0.4,0.3-0.5,0.4C19.5,12.3,19.2,12.7,19.4,13.2L19.4,13.2L19.4,13.2z
		 M20.1,15.8c-0.2,0.2-0.3,0.4-0.3,0.6c0,0.2,0.1,0.5,0.3,0.6c0.2-0.2,0.5-0.4,0.7-0.4c0.1,0.2,0.3,0.3,0.4,0.4
		c0.1-0.1,0.3-0.3,0.4-0.4s0-0.2-0.1-0.1s-0.2,0-0.3-0.1c0-0.1-0.1-1.2-0.1-1.2c-0.2-0.2-0.4-0.6-0.6-0.5c-0.3,0-0.6,0.4-0.7,0.5
		C19.9,15.2,20,15.7,20.1,15.8C20.1,15.7,20.1,15.7,20.1,15.8L20.1,15.8L20.1,15.8z M20.8,15.8c-0.2,0-0.4-0.1-0.6-0.2
		c0,0-0.1-0.3,0-0.4c0.1-0.2,0.1-0.2,0.2-0.2s0.5,0.2,0.4,0.4C20.8,15.5,20.8,15.7,20.8,15.8L20.8,15.8L20.8,15.8z M20.2,15.9
		c0.2,0.1,0.3,0.1,0.5,0.1c0,0.1,0,0.2,0,0.3c0,0.1,0,0.1,0,0.1c-0.1,0-0.3,0.1-0.4,0.1C20.3,16.4,19.9,16.2,20.2,15.9L20.2,15.9
		L20.2,15.9z M21.7,13.9l0.2-0.2c-0.2,0-0.2,0-0.4-0.1v-1.1L21.3,12h-0.1l-0.5,0.5c-0.1,0.1,0,0.2,0.1,0l0.2,0.2v1.1
		c0,0.1,0.1,0.2,0.3,0.3L21.7,13.9L21.7,13.9z M21.3,9.9c-0.1,0-0.2,0.2,0.3,0.2C21.7,10.2,21.9,10,21.3,9.9L21.3,9.9L21.3,9.9z
		 M21.3,9.6c-0.1,0-0.2,0.3,0.3,0.2C21.8,9.8,21.8,9.6,21.3,9.6L21.3,9.6L21.3,9.6z M21.4,11.3L21.2,11L21,11.2v0.3l0.2,0.2h0.2
		l0.2-0.2v-0.2H21.4z M20.9,8.9c-0.2-0.1-0.3-0.4-0.8-0.4c-0.4,0-0.9,0.4-1,0.6c-0.2,0.3,0,0.6,0.3,0.8c-0.2,0.1-0.4,0.4-0.6,0.6
		c0.1,0.1,0.5,0.3,0.8,0.3c0.4,0,0.8-0.2,1-0.4c0.4-0.3,0.3-0.7-0.1-0.9h-0.1C20.7,9.2,20.9,9,20.9,8.9L20.9,8.9L20.9,8.9z
		 M19.9,9.8c0.1,0.1,0.3,0.1,0.4,0.2c0.2,0.1,0.1,0.4-0.1,0.5s-0.7-0.2-0.7-0.3C19.6,10.1,19.7,10,19.9,9.8L19.9,9.8L19.9,9.8z
		 M20.3,9.2c0,0-0.1,0.1-0.3,0.2c-0.1,0-0.1,0-0.2,0c-0.2,0-0.3-0.2-0.4-0.3s0.2-0.2,0.3-0.2C19.9,8.9,20.2,9,20.3,9.2L20.3,9.2
		L20.3,9.2z M18.6,10.1c-0.6,0.2-0.9-0.3-0.9-0.5c0.2-0.3,0.7-0.7,0.9-0.9c-0.2-0.2-0.2-0.4-0.5-0.4s-0.9,0.3-1,1.1s0.6,1.2,1.1,1.2
		c0.2,0,0.4-0.2,0.5-0.3C19,10.2,18.9,10.1,18.6,10.1L18.6,10.1L18.6,10.1z M17.7,9.5c-0.2-0.5-0.1-0.7,0.2-0.9
		C18,8.8,18.1,8.9,18.2,9C18,9.1,17.8,9.4,17.7,9.5L17.7,9.5L17.7,9.5z M17,9.1C17.1,9,17,8.9,17,9.1c-0.2-0.2-0.3-0.4-0.4-0.5
		c-0.1,0.1-0.3,0.2-0.5,0.3c-0.1-0.1-0.2-0.1-0.4-0.3c-0.1,0.1-0.4,0.3-0.5,0.4c0.2,0.1,0.4,0.1,0.4,0.3s0,1.2,0,1.4
		c0.1,0,0.3,0,0.4,0c0-0.1,0-1.4,0-1.6c0.1,0,0.1-0.1,0.2-0.1c0.1,0.1,0.2,0.3,0.3,0.3C16.6,9.3,16.9,9.2,17,9.1L17,9.1L17,9.1z
		 M15.1,11.7c-0.3,0-0.6,0.3-0.8,0.6c0,0.1,0,0.5,0.1,0.5l0.1,0.1c-0.2,0.2-0.3,0.3-0.3,0.5s0.2,0.4,0.4,0.6
		c0.1-0.2,0.3-0.3,0.5-0.4c0,0.2,0.1,0.3,0.2,0.4c0.1-0.1,0.4-0.4,0.5-0.5s0-0.2-0.1-0.1c-0.1,0-0.2,0-0.2-0.1s0-1.2,0-1.2
		C15.4,12,15.2,11.7,15.1,11.7L15.1,11.7L15.1,11.7z M15.1,12.8c-0.3,0.2-0.4,0.2-0.6,0c-0.1-0.1-0.1-0.3,0-0.4
		c0.1-0.1,0.2-0.3,0.3-0.3s0.3,0.3,0.3,0.4C15.1,12.5,15.1,12.7,15.1,12.8L15.1,12.8L15.1,12.8z M15.1,13.3c0,0.1,0,0.1,0,0.2
		c-0.1,0-0.1,0-0.2,0.1c-0.1-0.1-0.6-0.3-0.3-0.5c0.2,0.1,0.3,0,0.5-0.1C15.1,13.1,15.1,13.3,15.1,13.3L15.1,13.3L15.1,13.3z
		 M14.9,11c0,0-0.1-0.1-0.1-0.2c0-0.1,0-0.7,0-0.8s-0.1-0.1-0.1,0s0,0.3-0.1,0.5c-0.3,0.4-0.8,0.6-1.2,0.1c-0.1-0.2-0.2-0.5-0.2-0.6
		c0-0.3,0.2-0.6,0.2-0.6c0.5-0.6,1.1-0.2,1.2,0.1c0,0.2,0.1,0.4,0.1,0.5s0.2,0.1,0.2,0s0-1.1,0-1.1c0-0.1-0.1-0.1-0.1,0
		c0,0.2-0.1,0.2-0.2,0.1c-0.2-0.1-0.8-0.2-1.1,0s-0.7,0.5-0.7,1c0,0.8,0.3,0.9,0.6,1.1c0.3,0.2,0.8,0.1,1.2-0.1
		c0.2,0,0.2,0.1,0.3,0.2C14.8,11.3,15,11.2,14.9,11L14.9,11L14.9,11z M12.7,12.2c-0.3,0.4-0.4,1.1,0,1.5c0.2,0.2,0.4,0.3,0.8,0.3
		c0.1-0.2,0.1-0.2,0.3-0.5c-0.3,0.1-0.5,0-0.8-0.2c-0.5-0.4-0.3-1-0.2-1.2c0.2-0.4,0.6,0.2,0.7,0.2c0.1-0.1,0.2-0.2,0.4-0.4
		c-0.1-0.2-0.3-0.4-0.3-0.5C13.3,11.6,12.9,11.9,12.7,12.2L12.7,12.2L12.7,12.2z M12.9,15.8c-0.1,0.8,0.6,1.2,0.9,1.4
		c0.1-0.2,0.3-0.5,0.4-0.7c0.1-0.2,0-0.2-0.1-0.1c-0.2,0.2-0.6,0-0.7-0.2c0.2-0.2,0.8-0.7,1.1-0.9c-0.2-0.2-0.4-0.6-0.5-0.8
		C13.8,14.7,13,15,12.9,15.8L12.9,15.8L12.9,15.8z M13.6,15c0.1,0.2,0.3,0.5,0.4,0.6c-0.2,0.2-0.6,0.5-0.7,0.5
		C13.1,15.8,13,15.4,13.6,15L13.6,15L13.6,15z M15.1,14.7c-0.1,0.1-0.3,0.3-0.5,0.4c0.1,0.1,0.3,0.3,0.3,0.5s0,1.1,0,1.4
		c0.2,0,0.1,0,0.4,0c0-0.2,0-1.4,0-1.5c0.1-0.1,0.1-0.1,0.2-0.2c0.1,0.1,0.3,0.1,0.3,0.2c0,0.1,0,0.7,0,0.9c-0.1,0.3,0,0.4,0.1,0.7
		c0.1-0.1,0.5-0.4,0.6-0.5c0.1-0.1,0-0.1-0.1-0.1s-0.1,0-0.1,0c0-0.1-0.1-0.8-0.1-1.2s-0.2-0.5-0.3-0.6c-0.1,0.1-0.4,0.3-0.5,0.4
		C15.3,15.1,15.3,14.9,15.1,14.7L15.1,14.7L15.1,14.7z M16.7,13.7c0.1-0.1,0.2-0.3,0.3-0.3c0.1-0.1,0-0.2-0.1-0.1
		c-0.1,0.1-0.2-0.1-0.3-0.1c-0.1-0.1-0.1-1-0.1-1l0.6-0.1c0.1,0,0.1-0.2,0-0.2s-0.5,0.1-0.5,0s-0.1-0.4,0.1-0.7c0.1-0.1,0-0.2,0-0.1
		c-0.1,0.1-0.4,0.7-0.6,0.8c-0.2,0.1-0.2,0.1,0,0.2c0.1,0,0.2,0.1,0.2,0.1c0,0.5-0.1,1.1,0.1,1.3C16.4,13.7,16.6,13.8,16.7,13.7
		L16.7,13.7L16.7,13.7z M18.7,13.9c-0.1,0.1-0.2,0.3-0.4,0.4c0.1,0.1,0.3,0.3,0.4,0.3c0.1-0.1,0.2-0.3,0.4-0.4
		C18.9,14.2,18.8,14.1,18.7,13.9L18.7,13.9L18.7,13.9z M17.8,13.4c0.2,0,0.5,0.1,0.8,0.1c0.4,0,0.7-0.6,0.5-1.1s-0.6-0.4-1-0.5
		c-0.3-0.1-0.4-0.3-0.1-0.5c0.4-0.3,0.9,0.2,0.9,0.2c0.1,0.1,0.1,0.1,0.1,0c0-0.4,0-0.2-0.1-0.5c0-0.1-0.1-0.1-0.1,0
		s-0.2,0.1-0.3,0.1c-0.1,0-0.4-0.1-0.7,0.1c-0.2,0.1-0.6,0.4-0.4,0.8c0.1,0.2,0.9,0.4,1.1,0.6c0.2,0.1,0.2,0.5,0.1,0.6
		c-0.2,0.2-0.9,0-1-0.1s-0.2-0.3-0.2-0.4c0-0.2-0.2-0.2-0.2,0s0,0.7,0.1,0.8c0,0.1,0.2,0.1,0.2,0C17.6,13.5,17.7,13.4,17.8,13.4
		L17.8,13.4L17.8,13.4z M17,15.1c-0.1,0.1,0.2,0.3,0.1,0.3c0,0.5-0.1,1,0.1,1.2c0.1,0.2,0.4,0.3,0.5,0.1c0.1-0.1,0.3-0.4,0.3-0.5
		c0.1-0.1,0-0.2-0.1-0.1c-0.2,0.2-0.3,0.1-0.4,0s-0.1-0.7,0-0.8c0,0,0.3,0,0.4,0s0.1-0.2,0-0.2s-0.4,0-0.4,0c0-0.1,0.1-0.5,0.1-0.7
		c0-0.1-0.1-0.2-0.1-0.1C17.4,14.4,17.1,15,17,15.1L17,15.1L17,15.1z"/>
</g>
<g>
	<path class="st2" d="M258.5,21.6l2.2-2.6c1.5,1.2,3.1,2,5,2c1.5,0,2.4-0.6,2.4-1.6v0c0-0.9-0.6-1.4-3.4-2.1
		c-3.4-0.9-5.6-1.8-5.6-5.1v0c0-3,2.4-5.1,5.9-5.1c2.4,0,4.5,0.8,6.2,2.1l-1.9,2.8c-1.5-1-3-1.7-4.4-1.7c-1.4,0-2.2,0.6-2.2,1.5v0
		c0,1.1,0.7,1.5,3.6,2.2c3.4,0.9,5.3,2.1,5.3,5v0c0,3.3-2.5,5.2-6.2,5.2C263,24.2,260.5,23.4,258.5,21.6z"/>
	<path class="st2" d="M274,17.6L274,17.6c0-3.7,2.6-6.7,6.4-6.7c4.3,0,6.3,3.3,6.3,7c0,0.3,0,0.6,0,1h-9c0.4,1.7,1.5,2.5,3.1,2.5
		c1.2,0,2.1-0.4,3.1-1.3l2.1,1.8c-1.2,1.5-2.9,2.4-5.3,2.4C276.8,24.3,274,21.6,274,17.6z M283,16.6c-0.2-1.6-1.2-2.7-2.7-2.7
		c-1.5,0-2.5,1.1-2.8,2.7H283z"/>
	<path class="st2" d="M288.7,17.6L288.7,17.6c0-3.7,2.8-6.7,6.7-6.7c2.4,0,3.9,0.8,5.1,2.2l-2.2,2.4c-0.8-0.9-1.6-1.4-2.9-1.4
		c-1.8,0-3.1,1.6-3.1,3.5v0c0,2,1.3,3.6,3.3,3.6c1.2,0,2.1-0.5,3-1.4l2.1,2.2c-1.2,1.4-2.7,2.4-5.3,2.4
		C291.5,24.3,288.7,21.3,288.7,17.6z"/>
	<path class="st2" d="M302.9,19.5v-8.3h3.6v7.2c0,1.7,0.8,2.6,2.2,2.6c1.4,0,2.3-0.9,2.3-2.6v-7.2h3.6V24H311v-1.8
		c-0.8,1.1-1.9,2.1-3.8,2.1C304.5,24.2,302.9,22.4,302.9,19.5z"/>
	<path class="st2" d="M318,11.1h3.6v2.6c0.7-1.8,1.9-2.9,4.1-2.8v3.8h-0.2c-2.4,0-3.9,1.5-3.9,4.5V24H318V11.1z"/>
	<path class="st2" d="M327,17.6L327,17.6c0-3.7,2.6-6.7,6.4-6.7c4.3,0,6.3,3.3,6.3,7c0,0.3,0,0.6,0,1h-9c0.4,1.7,1.5,2.5,3.1,2.5
		c1.2,0,2.1-0.4,3.1-1.3l2.1,1.8c-1.2,1.5-2.9,2.4-5.3,2.4C329.9,24.3,327,21.6,327,17.6z M336.1,16.6c-0.2-1.6-1.2-2.7-2.7-2.7
		c-1.5,0-2.5,1.1-2.8,2.7H336.1z"/>
	<path class="st2" d="M349.9,7.2h6.6c5.3,0,8.9,3.6,8.9,8.4v0c0,4.7-3.6,8.4-8.9,8.4h-6.6V7.2z M356.5,20.7c3,0,5.1-2,5.1-5v0
		c0-3-2-5.1-5.1-5.1h-2.9v10.1H356.5z"/>
	<path class="st2" d="M367.5,20.3L367.5,20.3c0-2.9,2.1-4.2,5.2-4.2c1.3,0,2.2,0.2,3.1,0.5v-0.2c0-1.5-0.9-2.4-2.8-2.4
		c-1.4,0-2.4,0.3-3.6,0.7l-0.9-2.8c1.4-0.6,2.8-1,5-1c2,0,3.4,0.5,4.3,1.4c1,1,1.4,2.4,1.4,4.1V24h-3.5v-1.4c-0.9,1-2.1,1.6-3.9,1.6
		C369.5,24.2,367.5,22.9,367.5,20.3z M375.9,19.5v-0.6c-0.6-0.3-1.4-0.5-2.3-0.5c-1.6,0-2.5,0.6-2.5,1.8v0c0,1,0.8,1.6,2,1.6
		C374.8,21.7,375.9,20.8,375.9,19.5z"/>
	<path class="st2" d="M383,20.4v-6.1h-1.5v-3.1h1.5V7.9h3.6v3.3h3v3.1h-3v5.5c0,0.8,0.4,1.2,1.2,1.2c0.7,0,1.3-0.2,1.8-0.5v2.9
		c-0.8,0.5-1.7,0.7-2.9,0.7C384.5,24.2,383,23.3,383,20.4z"/>
	<path class="st2" d="M391.6,20.3L391.6,20.3c0-2.9,2.1-4.2,5.2-4.2c1.3,0,2.2,0.2,3.1,0.5v-0.2c0-1.5-0.9-2.4-2.8-2.4
		c-1.4,0-2.4,0.3-3.6,0.7l-0.9-2.8c1.4-0.6,2.8-1,5-1c2,0,3.4,0.5,4.3,1.4c1,1,1.4,2.4,1.4,4.1V24h-3.5v-1.4c-0.9,1-2.1,1.6-3.9,1.6
		C393.6,24.2,391.6,22.9,391.6,20.3z M400,19.5v-0.6c-0.6-0.3-1.4-0.5-2.3-0.5c-1.6,0-2.5,0.6-2.5,1.8v0c0,1,0.8,1.6,2,1.6
		C398.8,21.7,400,20.8,400,19.5z"/>
	<path class="st2" d="M259.6,35.2h12.7v3.3h-9v3.4h7.9v3.3h-7.9v3.5h9.1V52h-12.8V35.2z"/>
	<path class="st2" d="M275.3,39.1h3.6V41c0.8-1.1,1.9-2.1,3.8-2.1c2.8,0,4.4,1.8,4.4,4.8V52h-3.6v-7.2c0-1.7-0.8-2.6-2.2-2.6
		c-1.4,0-2.3,0.9-2.3,2.6V52h-3.6V39.1z"/>
	<path class="st2" d="M289.6,45.6L289.6,45.6c0-3.7,2.8-6.7,6.7-6.7c2.4,0,3.9,0.8,5.1,2.2l-2.2,2.4c-0.8-0.9-1.6-1.4-2.9-1.4
		c-1.8,0-3.1,1.6-3.1,3.5v0c0,2,1.3,3.6,3.3,3.6c1.2,0,2.1-0.5,3-1.4l2.1,2.2c-1.2,1.4-2.7,2.4-5.3,2.4
		C292.5,52.3,289.6,49.3,289.6,45.6z"/>
	<path class="st2" d="M304.1,34.5h3.6V52h-3.6V34.5z"/>
	<path class="st2" d="M310.4,48.3L310.4,48.3c0-2.9,2.1-4.2,5.2-4.2c1.3,0,2.2,0.2,3.1,0.5v-0.2c0-1.5-0.9-2.4-2.8-2.4
		c-1.4,0-2.4,0.3-3.6,0.7l-0.9-2.8c1.4-0.6,2.8-1,5-1c2,0,3.4,0.5,4.3,1.4c1,1,1.4,2.4,1.4,4.1V52h-3.5v-1.4c-0.9,1-2.1,1.6-3.9,1.6
		C312.4,52.2,310.4,50.9,310.4,48.3z M318.8,47.5v-0.6c-0.6-0.3-1.4-0.5-2.3-0.5c-1.6,0-2.5,0.6-2.5,1.8v0c0,1,0.8,1.6,2,1.6
		C317.7,49.7,318.8,48.8,318.8,47.5z"/>
	<path class="st2" d="M323.8,39.1h3.9l2.9,8.6l2.9-8.6h3.8l-5.1,13h-3.3L323.8,39.1z"/>
	<path class="st2" d="M338,45.6L338,45.6c0-3.7,2.6-6.7,6.4-6.7c4.3,0,6.3,3.3,6.3,7c0,0.3,0,0.6,0,1h-9c0.4,1.7,1.5,2.5,3.1,2.5
		c1.2,0,2.1-0.4,3.1-1.3l2.1,1.8c-1.2,1.5-2.9,2.4-5.3,2.4C340.9,52.3,338,49.6,338,45.6z M347.1,44.6c-0.2-1.6-1.2-2.7-2.7-2.7
		c-1.5,0-2.5,1.1-2.8,2.7H347.1z"/>
</g>
</svg>
