<?xml version="1.0" encoding="UTF-8"?>
<!-- Generator: Adobe Illustrator 16.0.0, SVG Export Plug-In . SVG Version: 6.00 Build 0)  -->
<!DOCTYPE svg PUBLIC "-//W3C//DTD SVG 1.1//EN" "http://www.w3.org/Graphics/SVG/1.1/DTD/svg11.dtd" [
	<!ENTITY st0 "fill:#FFFFFF;">
]>
<svg version="1.1" id="RGB_Maroon" xmlns="http://www.w3.org/2000/svg" xmlns:xlink="http://www.w3.org/1999/xlink" x="0px" y="0px" width="756px" height="152px" viewBox="0 0 756 152" style="enable-background:new 0 0 756 152;" xml:space="preserve">
<g>
	<path style="fill:#FFFFFF;" d="M751.81,10.72l0.05-0.09l0-0.1c-0.1-1.84-0.16-4.21-0.16-6.68V3.35l-0.48,0.11   c-0.61,0.14-3.74,0.14-6.76,0.14h-9.34c-1.91,0-3.61-0.04-5.87-0.15l-0.1,0l-0.09,0.04c-0.42,0.21-0.49,0.8-0.5,0.98   c-0.03,0.44,0.1,0.8,0.36,0.97l0.98,0.16c2.58,0.31,2.7,0.59,2.7,6.01v18.28c0,5.37-0.13,5.65-2.7,5.96l-1.4,0.17l-0.1,0.09   c-0.29,0.29-0.33,0.76-0.28,1.1c0.06,0.38,0.23,0.66,0.48,0.79l0.09,0.05l0.1,0c2.38-0.1,4.09-0.15,6.33-0.15   c2.05,0,3.81,0.05,6.74,0.15l0.1,0l0.09-0.04c0.33-0.17,0.48-0.62,0.5-0.99c0.03-0.44-0.1-0.79-0.36-0.95l-1.9-0.21   c-2.59-0.22-2.74-0.55-2.74-5.96v-7.06c0-0.98,0-0.98,1.29-0.98h3.45c1.78,0,3.11,0.04,3.79,0.24c0.71,0.23,1.1,0.69,1.37,1.65   l0.54,2.1l0.09,0.08c0.5,0.43,1.58,0.41,1.9-0.08l0.06-0.1v-0.12c0-0.53-0.04-1.21-0.08-1.96c-0.05-0.92-0.12-1.96-0.12-2.97   c0-1.03,0.06-2.12,0.12-3.08c0.04-0.79,0.09-1.5,0.09-2.05v-0.12l-0.06-0.1c-0.24-0.36-0.76-0.4-0.97-0.4   c-0.42,0-0.79,0.14-0.98,0.37l-0.54,2.19c-0.29,1.23-0.63,1.35-1.01,1.49c-0.54,0.18-2.1,0.29-4.19,0.29h-3.45   c-1.29,0-1.29,0-1.29-0.98V7.6c0-1.64,0-1.64,1.13-1.64h3.1c2.1,0,3.76,0,4.83,0.29c2.18,0.57,2.83,2.02,3.27,4.51l0.02,0.14   l0.11,0.09c0.2,0.17,0.47,0.26,0.77,0.26C751.14,11.25,751.62,11.09,751.81,10.72L751.81,10.72z M717.73,20.59   c0-8.57-5.63-17.8-18.01-17.8c-10.53,0-18.46,7.87-18.46,18.31c0,8.75,6.34,17.6,18.46,17.6C709.99,38.7,717.73,30.91,717.73,20.59   L717.73,20.59z M711.87,22.17c0,10.46-6.19,14.18-11.49,14.18c-10.47,0-13.27-10.6-13.27-16.87c0-10.58,6.33-14.33,11.75-14.33   C708.47,5.14,711.87,14.31,711.87,22.17L711.87,22.17z M670.35,108.71c0,21.93,16.33,41.3,43.37,41.3   c23.52,0,42.28-17.91,42.28-42.52c0-21.44-14.13-41.79-42.28-41.79C688.62,65.7,670.35,84.34,670.35,108.71L670.35,108.71z    M682.53,104.81c0-26.68,16.45-35.33,29.12-35.33c23.27,0,32.17,21.69,32.17,41.79c0,24-13.89,34.97-28.51,34.97   C691.31,146.24,682.53,122.84,682.53,104.81L682.53,104.81z M655.61,5.4c0.26-0.23,0.4-0.59,0.37-0.98   c-0.03-0.39-0.22-0.73-0.52-0.91l-0.11-0.07l-0.12,0.01c-3.61,0.21-5.74,0.21-9.55,0l-0.1-0.01l-0.09,0.05   c-0.28,0.14-0.48,0.43-0.54,0.78c-0.07,0.41,0.06,0.83,0.33,1.11l0.1,0.1l1.05,0.11c0.99,0.12,1.6,0.36,1.78,0.5   c-0.16,0.73-1.94,4.02-3.01,6.02l-0.23,0.43c-1.22,2.36-2.63,4.91-4.42,7.97c-1.34-2.42-2.64-5.08-3.91-7.65   c-0.5-1.01-0.99-2.02-1.49-3.01c-0.37-0.73-1.51-3.33-1.53-3.73c0-0.1,0.23-0.31,1.8-0.53l0.79-0.12l0.09-0.09   c0.27-0.28,0.39-0.78,0.29-1.22c-0.08-0.35-0.3-0.6-0.6-0.7l-0.08-0.02l-0.08,0.01c-1.24,0.1-3.06,0.15-5.4,0.15   c-2.35,0-4.21-0.05-5.86-0.15l-0.12-0.01l-0.1,0.06c-0.25,0.14-0.42,0.41-0.48,0.75c-0.07,0.41,0.04,0.83,0.28,1.11l0.09,0.11   l1.56,0.28c1.34,0.23,2.02,0.34,3.73,3.65l5.99,11.68c1.44,2.76,1.58,3.33,1.58,6.12v2.59c0,5.51-0.13,5.79-2.69,6.06l-1.71,0.17   l-0.1,0.1c-0.29,0.29-0.33,0.76-0.27,1.11c0.06,0.37,0.24,0.66,0.48,0.78l0.09,0.04l0.1,0c2.74-0.1,4.51-0.15,6.64-0.15   c2.06,0,3.88,0.06,6.89,0.15l0.1,0L646.7,38c0.25-0.12,0.42-0.41,0.48-0.78c0.06-0.35,0.01-0.82-0.28-1.11l-0.1-0.1l-2.07-0.16   c-2.35-0.18-2.69-0.56-2.69-6.06v-2.64c0-3.8,0.11-4.18,2.33-8.03l3.2-5.53c0.29-0.5,0.57-0.98,0.84-1.45   c2-3.49,3.44-6.01,5.6-6.38l1.53-0.27L655.61,5.4L655.61,5.4z M637.82,67.53c-2.07-0.49-8.53-1.83-15.47-1.83   c-18.4,0-30.46,5.72-38.62,14.25c-7.55,8.04-10.97,18.52-10.97,28.88c0,10.72,3.9,20.35,11.21,27.66   c9.38,9.5,22.66,13.52,37.16,13.52c6.58,0,15.35-1.46,21.81-3.17c2.31-0.61,4.51-1.1,5.97-1.1c0.49-0.37,0.49-1.1,0.12-1.46   c-2.19-0.85-2.92-3.78-2.92-8.65v-6.82c0-6.21,0.12-9.62,5.24-10.23l1.95-0.24c0.85-0.73,0.73-2.56-0.12-3.04   c-4.02,0.24-8.17,0.36-12.92,0.36c-7.19,0-13.89-0.12-17.42-0.36c-0.85,0.36-0.98,2.56,0,3.04l5.36,0.61   c7.55,0.85,7.92,1.59,7.92,11.82v4.88c0,3.9-0.61,6.09-1.22,6.94c-1.34,2.07-5.85,3.66-13.41,3.66c-24.49,0-36.55-18.4-36.55-41.79   c0-18.28,10.36-35.09,33.99-35.09c12.43,0,21.56,4.14,24.98,17.3c0.73,0.73,2.93,0.61,3.29-0.37c-1.1-7.31-1.83-13.65-1.83-17.67   C643.91,68.87,640.14,68.02,637.82,67.53L637.82,67.53z M617.05,2.82l0.04-0.14l-0.06-0.13c-0.19-0.38-0.71-0.42-0.93-0.42   c-0.13,0-0.31,0.01-0.48,0.08l-0.13,0.05l-0.07,0.12c-0.65,1.13-0.92,1.22-3.62,1.22h-20.98c-2.27,0-3.29-0.12-3.5-1.25l-0.02-0.12   l-0.09-0.09c-0.14-0.14-0.37-0.21-0.7-0.21c-0.12,0-0.53,0.01-0.76,0.16l-0.14,0.09l-0.03,0.16c-0.36,2.03-1.11,5.24-1.91,7.5   l-0.05,0.16l0.07,0.15c0.31,0.61,1.35,0.91,1.9,0.49l0.08-0.06l0.04-0.09c0.52-1.18,1-2.29,2.19-3.37   c1.12-1.03,3.65-1.17,5.98-1.17h2.79c1.13,0,1.13,0,1.13,1.23v22.7c0,5.5-0.32,5.74-2.79,5.96l-1.83,0.15l-0.17,0.06   c-0.3,0.19-0.47,0.57-0.45,1.02c0.02,0.34,0.15,0.77,0.48,0.93l0.09,0.04l0.1,0c3.11-0.09,4.98-0.15,7.04-0.15   c1.98,0,3.62,0.05,6.64,0.15l0.1,0L607.1,38c0.42-0.21,0.49-0.8,0.5-0.98c0.03-0.44-0.1-0.79-0.35-0.96l-1.8-0.21   c-2.54-0.22-2.69-0.55-2.69-5.96V7.13c0-0.52,0-1,0.08-1.08c0.09-0.09,0.64-0.09,1-0.09h3.6c2.72,0,4.57,0.39,5.66,1.19   c0.48,0.35,0.89,1.64,1.11,3.44l0.01,0.11l0.07,0.09c0.19,0.23,0.53,0.36,0.92,0.36c0.48,0,0.88-0.21,1.05-0.54l0.05-0.1   l-0.01-0.11C616.15,8.94,616.5,4.85,617.05,2.82L617.05,2.82z M570.77,29.78V11.71c0-5.55,0.15-5.89,2.73-6.11l1.38-0.11l0.08-0.06   c0.25-0.17,0.38-0.52,0.35-0.96c-0.01-0.18-0.08-0.77-0.5-0.98l-0.09-0.04l-0.1,0c-2.4,0.1-4.2,0.15-6.28,0.15   c-2.18,0-3.93-0.05-6.38-0.15l-0.1,0l-0.09,0.04c-0.41,0.21-0.48,0.8-0.49,0.98c-0.03,0.44,0.1,0.79,0.35,0.96l0.09,0.06l1.37,0.11   c2.59,0.22,2.74,0.56,2.74,6.11v18.07c0,5.47-0.13,5.75-2.75,6.06l-1.4,0.17l-0.1,0.1c-0.29,0.29-0.33,0.76-0.28,1.11   c0.06,0.37,0.23,0.66,0.48,0.78l0.09,0.05l0.1,0c2.59-0.1,4.28-0.15,6.38-0.15c2.02,0,3.7,0.05,6.28,0.15l0.1,0l0.09-0.04   c0.42-0.21,0.49-0.81,0.5-0.98c0.03-0.44-0.1-0.79-0.35-0.96l-1.44-0.21C570.9,35.53,570.77,35.25,570.77,29.78L570.77,29.78z    M562.4,145.02c-5.24-0.61-6.82-2.44-10.36-12.92l-16.69-48.98c-1.83-5.36-3.77-10.96-5.36-16.33c-0.24-0.85-1.09-1.1-1.82-1.1   c-1.34,1.58-3.41,3.78-6.34,4.63c0.37,1.95-0.37,4.26-2.07,8.65l-12.43,32.9c-5.12,13.65-8.53,21.57-10.72,27.17   c-1.7,4.39-4.38,5.73-7.31,5.97l-4.02,0.37c-0.73,0.61-0.49,2.56,0.25,3.05c3.29-0.12,7.67-0.37,11.69-0.37   c5.73,0.12,9.51,0.12,12.67,0.37c1.09-0.49,1.09-2.44,0.24-3.05l-4.02-0.37c-2.93-0.24-3.54-0.97-3.54-2.44   c0-1.34,0.86-4.63,2.68-10.11l4.27-12.79c0.85-2.56,1.58-2.93,4.63-2.93h18.4c3.65,0,4.14,0.37,5,3.05l5.36,16.57   c0.98,2.93,1.58,5.12,1.58,6.46c0,1.22-1.71,1.95-4.26,2.2l-3.54,0.37c-0.85,0.61-0.73,2.56,0.24,3.05   c3.53-0.12,8.16-0.37,14.01-0.37c5.48,0,9.75,0.12,14.74,0.37c0.61-0.49,0.85-2.44,0-3.05L562.4,145.02L562.4,145.02z    M530.97,111.88h-14.98c-3.41,0-3.53-0.12-2.56-2.92l7.68-21.2c1.34-3.65,2.56-6.58,2.92-7.19h0.24c0.73,1.46,1.83,4.76,2.8,7.68   l6.58,19.86C534.74,111.39,534.5,111.88,530.97,111.88L530.97,111.88z M535.94,10.39c0-1.96,0.73-5.25,5.65-5.25   c4.48,0,5.84,2.91,6.53,5.45l0.07,0.15c0.16,0.2,0.44,0.31,0.77,0.31c0.38,0,0.9-0.15,1.12-0.49l0.06-0.1v-0.12   c0-2.07-0.43-4.97-0.93-6.33l-0.09-0.25h-0.27c-0.36,0-1.04-0.09-1.68-0.29c-1.21-0.33-3.11-0.67-4.82-0.67   c-6.43,0-10.75,3.67-10.75,9.12c0,4.64,3.54,7.67,5.66,9.06l4.82,3.15c3.51,2.25,3.99,4.59,3.99,6.78c0,2.71-1.84,5.44-5.96,5.44   c-5.14,0-7.38-3.96-8.36-7.28l-0.05-0.11c-0.15-0.23-0.43-0.35-0.77-0.35c-0.34,0-0.82,0.13-1.08,0.5l-0.08,0.11l0.01,0.13   c0.1,2.29,0.75,6.05,1.42,7.28l0.05,0.1l0.09,0.05c0.99,0.58,3.78,1.93,8.12,1.93c6.7,0,11.21-3.93,11.21-9.78   c0-4.06-2.14-7.36-6.53-10.08l-4.06-2.54C538.53,15.34,535.94,13.3,535.94,10.39L535.94,10.39z M523.15,38.11   c0.24-0.19,0.36-0.49,0.31-0.78c-0.04-0.28-0.21-0.5-0.46-0.6l-0.11-0.03c-1.21-0.09-2.44-0.58-3.28-1.33   c-3.5-2.93-6.28-7.21-10.12-13.41c-0.27-0.43-0.3-0.62-0.3-0.71c1.69-0.7,6.45-3.19,6.45-8.78c0-4.25-2.41-6.4-4.42-7.45   c-2.55-1.38-5.81-1.57-8.66-1.57c-4.65,0-8.25,0.13-11.35,0.41l-0.14,0.04c-0.29,0.15-0.49,0.47-0.52,0.87   c-0.04,0.44,0.13,0.85,0.41,1.06l0.08,0.06l1.72,0.21c1.66,0.2,1.89,0.56,1.89,5.55v18.23c0,5.37-0.13,5.65-2.7,5.96l-1.42,0.17   l-0.1,0.12c-0.29,0.33-0.32,0.82-0.25,1.16c0.07,0.34,0.24,0.59,0.47,0.71l0.09,0.04l0.1,0c2.26-0.09,4.1-0.15,6.33-0.15   c2.1,0,3.86,0.06,6.03,0.15l0.1,0l0.09-0.05c0.37-0.19,0.47-0.67,0.49-0.87c0.05-0.45-0.07-0.84-0.31-1.04l-0.08-0.07l-1.18-0.17   c-2.61-0.36-2.71-0.58-2.71-5.96v-6.4c0-0.73,0-0.73,2-0.73c1.95,0,2.61,0.47,3.29,1.45c0.77,1.12,1.67,2.54,2.54,3.92   c0.91,1.44,1.76,2.79,2.44,3.75c3.49,4.97,6.12,6.56,10.83,6.56c0.98,0,1.84-0.1,2.35-0.27L523.15,38.11L523.15,38.11z    M507.85,19.22c-1.45,1.1-3.43,1.24-4.99,1.24c-2.29,0-3-0.09-3.21-0.15c-0.06-0.21-0.06-0.81-0.06-1.39V7.04   c0-1.14,0-1.23,2.91-1.23c5.71,0,7.73,4,7.73,7.43C510.24,16.05,509.48,17.95,507.85,19.22L507.85,19.22z M481.62,30.67l0.02-0.12   l-0.05-0.11c-0.22-0.49-0.76-0.71-1.2-0.71c-0.25,0-0.48,0.07-0.65,0.19l-0.12,0.14c-1.46,2.91-2.77,4.38-3.43,4.75   c-1.09,0.55-2.63,0.72-6.32,0.72c-4.23,0-5.32-0.51-5.86-1.04c-0.72-0.76-0.86-2.42-0.86-5.01v-7.16c0-0.98,0-0.98,1.29-0.98h2.95   c1.77,0,3.1,0.04,3.81,0.24c0.71,0.18,1.07,0.63,1.29,1.64l0.45,1.98l0.08,0.16c0.19,0.23,0.55,0.37,0.95,0.37   c0.46,0,0.84-0.17,1.01-0.47l0.05-0.09v-0.1c0-0.5-0.04-1.15-0.08-1.89c-0.06-0.93-0.12-1.97-0.12-2.99c0-1.06,0.06-2.15,0.12-3.11   c0.04-0.78,0.08-1.47,0.08-2.02v-0.1l-0.05-0.09c-0.17-0.29-0.54-0.47-1.01-0.47c-0.4,0-0.76,0.14-0.95,0.37l-0.49,2.25   c-0.23,1.16-0.52,1.33-0.96,1.48c-0.54,0.18-2.07,0.29-4.19,0.29h-2.95c-1.29,0-1.29,0-1.29-1.03V7.6c0-1.64,0-1.64,1.13-1.64h3.65   c2.16,0,3.8,0.05,4.83,0.29c2.31,0.58,2.78,2.04,3.48,4.26l0.1,0.3l0.07,0.13c0.17,0.21,0.47,0.33,0.83,0.33   c0.35,0,0.84-0.12,1.07-0.46l0.08-0.11l-0.07-0.75c-0.26-2.96-0.5-5.47-0.78-6.24l-0.12-0.33l-0.34,0.08   c-0.56,0.14-3.71,0.14-6.76,0.14h-9.54c-1.96,0-3.63-0.04-5.97-0.15l-0.1,0l-0.09,0.04c-0.42,0.2-0.49,0.8-0.5,0.98   c-0.03,0.44,0.1,0.8,0.35,0.97l0.98,0.16c2.6,0.31,2.75,0.65,2.75,6.01v18.28c0,5.5-0.32,5.74-2.79,5.96l-1.81,0.16l-0.1,0.1   c-0.29,0.29-0.33,0.76-0.28,1.11c0.06,0.38,0.23,0.66,0.48,0.79l0.09,0.04l0.1,0c2.93-0.1,4.7-0.15,6.89-0.15h4.57   c4.43,0,8.88,0.05,13.6,0.15l0.25,0.01l0.11-0.23C479.98,36.39,481.26,32.45,481.62,30.67L481.62,30.67z M446.79,5.38   c0.27-0.28,0.32-0.76,0.28-1.09c-0.05-0.37-0.21-0.65-0.46-0.79l-0.1-0.06l-0.12,0.01c-1.7,0.1-3.26,0.15-4.9,0.15   c-1.99,0-3.91-0.05-5.25-0.15l-0.12-0.01l-0.1,0.06c-0.28,0.16-0.47,0.5-0.51,0.9c-0.04,0.4,0.09,0.78,0.35,1l0.09,0.08l1.03,0.11   c1.78,0.2,1.94,0.58,1.94,0.58c0,0.33-0.05,0.84-0.43,1.84c-0.87,2.21-3.29,8.02-4.71,11.36c-0.38,0.86-0.85,1.99-1.38,3.23   c-0.96,2.28-2.13,5.06-3.13,7.24c-2.4-5.52-4.62-11.06-6.86-16.71c-1.49-3.65-2.34-6.3-2.5-6.96c0.08-0.16,0.52-0.38,2.04-0.58   l0.88-0.12l0.09-0.08c0.26-0.22,0.39-0.6,0.35-1c-0.04-0.4-0.23-0.74-0.51-0.9l-0.1-0.06l-0.11,0.01   c-2.26,0.11-4.04,0.15-6.12,0.15c-2.12,0-3.74-0.05-5.25-0.15l-0.12-0.01l-0.11,0.07c-0.29,0.18-0.49,0.53-0.52,0.91   c-0.03,0.39,0.11,0.75,0.37,0.98l0.09,0.08l1.04,0.11c1.97,0.23,2.65,1.14,3.79,3.92l8.94,22.03c1.06,2.64,1.84,4.89,2.32,6.7   l0.05,0.19l0.18,0.07c0.29,0.12,0.6,0.18,0.91,0.18c0.29,0,0.57-0.08,0.78-0.22l0.12-0.08l0.04-0.13   c0.87-2.73,3.31-8.71,5.26-13.21l2.74-6.24c2.35-5.34,4.31-9.36,5.66-11.63c0.65-1.04,1.32-1.51,2.33-1.59l1.67-0.11L446.79,5.38   L446.79,5.38z M413.64,76.06c-9.26,7.19-15.35,18.77-15.35,32.29c0,15.72,7.55,26.8,17.3,33.51c8.9,5.97,19.37,8.16,30.34,8.16   c7.8,0,16.57-1.83,19.25-2.8c1.34-0.48,2.8-0.97,4.27-1.22c1.83-2.31,5-10.35,5.85-16.69c-0.49-0.85-2.32-1.09-3.17-0.49   c-2.8,7.19-9.75,17.42-25.46,17.42c-19.98,0-36.19-14.13-36.19-39.72c0-25.22,15.84-37.04,34.48-37.04   c17.67,0,23.15,9.5,24.98,17.79c0.85,0.73,2.68,0.61,3.29-0.24c-0.97-7.43-1.58-15.11-1.71-17.91c-1.1,0.12-1.95-0.12-3.41-0.49   c-5.73-1.58-14.99-2.92-21.57-2.92C433.87,65.7,422.54,69.12,413.64,76.06L413.64,76.06z M398.06,29.78V11.71   c0-5.49,0.18-5.89,2.74-6.11l1.37-0.11l0.08-0.06c0.25-0.17,0.38-0.52,0.35-0.97c-0.01-0.18-0.08-0.77-0.5-0.98l-0.09-0.04l-0.1,0   c-2.4,0.1-4.2,0.15-6.28,0.15c-2.18,0-3.93-0.05-6.38-0.15l-0.1,0l-0.09,0.04c-0.42,0.21-0.49,0.8-0.5,0.98   c-0.03,0.44,0.1,0.79,0.36,0.96l0.08,0.06l1.37,0.11c2.56,0.22,2.74,0.62,2.74,6.11v18.07c0,5.47-0.13,5.75-2.75,6.06l-1.4,0.17   l-0.1,0.09c-0.29,0.29-0.33,0.76-0.28,1.11c0.06,0.37,0.24,0.66,0.48,0.78l0.09,0.04l0.1,0c2.58-0.1,4.27-0.15,6.38-0.15   c2.01,0,3.76,0.05,6.28,0.15l0.1,0l0.09-0.04c0.42-0.21,0.49-0.8,0.5-0.98c0.03-0.44-0.1-0.79-0.36-0.96l-1.44-0.21   C398.19,35.53,398.06,35.25,398.06,29.78L398.06,29.78z M372.58,129.55V86.17c0-12.91,0.24-14.99,7.43-15.6l3.05-0.24   c0.73-0.49,0.49-2.68-0.24-3.05c-6.09,0.24-10.23,0.37-15.11,0.37c-5.12,0-9.26-0.12-15.35-0.37c-0.73,0.37-0.98,2.56-0.25,3.05   l3.05,0.24c7.19,0.61,7.43,2.68,7.43,15.6v43.38c0,12.91-0.24,14.62-7.43,15.47l-3.05,0.37c-0.73,0.73-0.49,2.68,0.25,3.05   c6.09-0.24,10.23-0.37,15.35-0.37c4.87,0,9.02,0.12,15.11,0.37c0.73-0.37,0.97-2.56,0.24-3.05l-3.05-0.37   C372.82,144.17,372.58,142.46,372.58,129.55L372.58,129.55z M378.86,5.38c0.24-0.25,0.37-0.64,0.32-1.04   c-0.04-0.36-0.22-0.67-0.49-0.84l-0.11-0.07l-0.12,0.01c-1.67,0.1-2.99,0.15-5.21,0.15c-1.79,0-3.46-0.04-5.97-0.15l-0.08,0   l-0.07,0.03c-0.29,0.11-0.5,0.39-0.57,0.76c-0.08,0.45,0.05,0.91,0.35,1.17L367,5.48l0.98,0.11c1.74,0.22,2.63,0.48,2.87,0.84   c0.61,0.96,0.96,4.71,0.96,10.3V27.6c0,0.49,0,1.06-0.03,1.45c-1.76-1.82-3.6-3.88-5.89-6.44l-7.06-7.92   c-5.02-5.63-7.9-9.33-8.55-10.98l-0.11-0.29l-0.31,0.05c-0.61,0.09-1.44,0.15-2.28,0.15c-0.89,0-3.59,0-5.71-0.15l-0.11-0.01   l-0.1,0.05c-0.27,0.14-0.46,0.41-0.51,0.77c-0.07,0.42,0.05,0.87,0.31,1.13l0.1,0.1l1,0.12c1.35,0.17,2.36,0.55,2.91,1.1   c0.95,1.04,1.02,1.97,1.02,3.39l0,15.13c0,2.45,0.01,8.2-0.63,9.84c-0.12,0.26-0.55,0.61-1.92,0.79l-1.51,0.17l-0.1,0.1   c-0.23,0.23-0.34,0.59-0.31,0.97c0.03,0.38,0.2,0.71,0.46,0.89l0.11,0.08l0.14-0.01c1.77-0.1,3.13-0.15,5.26-0.15   c1.72,0,3.44,0.04,5.92,0.15l0.13,0.01l0.11-0.08c0.24-0.17,0.4-0.44,0.45-0.76c0.06-0.37-0.04-0.76-0.26-1.06l-0.1-0.14   l-1.75-0.17c-1.22-0.1-2.07-0.39-2.28-0.77c-0.55-0.96-0.86-4.72-0.86-10.32V13.69c0-0.91,0.01-1.88,0.11-2.57   c0.81,0.9,2.15,2.49,3.36,3.92c0.83,0.98,1.6,1.89,2.09,2.46l11.78,13.4c3.91,4.45,5.79,6.66,6.47,7.63l0.12,0.17h0.2   c0.67,0,1.17-0.31,1.34-0.83l0.03-0.08l-0.01-0.09c-0.07-0.59-0.15-2.6-0.15-8.84l0-12.82c-0.01-2.6-0.03-8.01,0.72-9.6   c0.06-0.13,0.67-0.56,2.55-0.85l0.84-0.12L378.86,5.38L378.86,5.38z M333.35,5.31c0.23-0.27,0.33-0.69,0.27-1.07   c-0.05-0.32-0.22-0.58-0.47-0.73l-0.1-0.07l-0.12,0.01c-1.76,0.1-3.13,0.15-5.31,0.15c-1.95,0-3.83-0.05-5.77-0.15l-0.13-0.01   l-0.11,0.07c-0.23,0.16-0.4,0.45-0.44,0.79c-0.05,0.38,0.04,0.75,0.26,1.01l0.1,0.12l1.43,0.11c1.17,0.1,1.96,0.41,2.23,0.87   c0.59,1.04,0.92,4.71,0.92,10.31v5.84c0,5.98-1.69,13.11-9.76,13.11c-6.77,0-9.92-4.18-9.92-13.17V11.56c0-5.4,0.18-5.79,2.69-6.01   l1.32-0.1l0.08-0.06c0.25-0.17,0.38-0.51,0.35-0.94c-0.02-0.35-0.17-0.79-0.5-0.95l-0.09-0.04l-0.1,0   c-2.41,0.1-4.11,0.15-6.23,0.15c-2.09,0-3.88-0.05-6.28-0.15l-0.1,0l-0.09,0.04c-0.33,0.16-0.48,0.6-0.5,0.95   c-0.03,0.43,0.1,0.77,0.35,0.94l0.09,0.06l1.37,0.1c2.51,0.22,2.69,0.61,2.69,6.01v11.98c0,6.14,1.26,9.93,4.09,12.28   c2.24,1.91,5.52,2.88,9.75,2.88c4,0,7.83-1.47,9.98-3.83c2.46-2.64,3.66-6.69,3.66-12.4v-5.74c0-2.57,0-8.6,0.68-10.19   c0.24-0.51,1.11-0.9,2.21-0.99l1.38-0.11L333.35,5.31L333.35,5.31z M274.99,70.33c0.73-0.49,0.49-2.68-0.24-3.05   c-5.24,0.24-9.38,0.37-14.13,0.37c-5.24,0-9.38-0.24-15.35-0.37c-0.73,0.37-0.98,2.56-0.24,3.05l3.17,0.24   c6.34,0.49,7.19,2.56,7.19,15.35v43.86c0,12.79-0.25,14.01-7.07,15.23l-2.07,0.37c-0.73,0.73-0.49,2.68,0.24,3.05   c4.75-0.12,8.9-0.37,14.13-0.37c4.75,0,8.89,0.12,15.47,0.37c0.73-0.37,0.97-2.56,0.24-3.05l-3.53-0.37   c-6.82-0.73-7.43-2.44-7.43-15.23v-17.18c0-3.65,0.24-3.9,6.09-3.9h34.85c5.85,0,6.09,0.24,6.09,3.9v17.18   c0,12.79,0,14.01-7.43,15.23l-2.31,0.37c-0.73,0.73-0.49,2.68,0.24,3.05c5.36-0.24,9.75-0.37,14.74-0.37   c4.75,0,8.9,0.12,14.74,0.37c0.73-0.37,0.97-2.56,0.24-3.05l-2.93-0.37c-7.07-0.85-7.31-2.44-7.31-15.23V85.93   c0-12.79,0.24-14.62,7.31-15.35l2.56-0.24c0.73-0.49,0.49-2.68-0.24-3.05c-5.48,0.24-9.62,0.37-14.38,0.37   c-4.99,0-9.14-0.12-14.74-0.37c-0.73,0.37-0.97,2.56-0.24,3.05l2.31,0.24c7.19,0.73,7.43,2.56,7.43,15.35v14.01   c0,3.78-0.24,3.9-6.09,3.9h-34.85c-5.85,0-6.09-0.12-6.09-3.9V85.93c0-12.79,0.24-14.62,7.31-15.35L274.99,70.33L274.99,70.33z    M270.08,30.67l0.02-0.12l-0.05-0.11c-0.22-0.49-0.76-0.71-1.2-0.71c-0.25,0-0.48,0.07-0.66,0.19l-0.12,0.14   c-1.46,2.91-2.77,4.38-3.43,4.75c-1.09,0.55-2.63,0.72-6.33,0.72c-4.23,0-5.32-0.51-5.86-1.04c-0.72-0.77-0.86-2.42-0.86-5.01   v-7.16c0-0.98,0-0.98,1.29-0.98h2.95c1.77,0,3.1,0.04,3.81,0.24c0.71,0.18,1.07,0.64,1.29,1.64l0.46,1.98l0.08,0.16   c0.19,0.23,0.55,0.37,0.95,0.37c0.46,0,0.84-0.17,1.01-0.47l0.05-0.09v-0.1c0-0.5-0.04-1.15-0.08-1.89   c-0.06-0.93-0.12-1.97-0.12-2.99c0-1.06,0.06-2.15,0.12-3.11c0.04-0.78,0.09-1.47,0.09-2.02v-0.1l-0.05-0.09   c-0.17-0.3-0.55-0.47-1.01-0.47c-0.4,0-0.76,0.14-0.95,0.37l-0.49,2.25c-0.23,1.16-0.52,1.33-0.96,1.48   c-0.54,0.18-2.07,0.29-4.19,0.29h-2.95c-1.29,0-1.29,0-1.29-1.03V7.6c0-1.64,0-1.64,1.13-1.64h3.66c2.16,0,3.8,0.05,4.83,0.29   c2.32,0.58,2.78,2.04,3.49,4.26l0.1,0.3l0.07,0.13c0.17,0.21,0.47,0.33,0.83,0.33c0.35,0,0.84-0.12,1.07-0.46l0.08-0.11l-0.07-0.75   c-0.26-2.96-0.5-5.47-0.78-6.24l-0.12-0.33l-0.34,0.08c-0.56,0.14-3.71,0.14-6.76,0.14h-9.54c-1.95,0-3.63-0.04-5.97-0.15l-0.1,0   l-0.09,0.04c-0.42,0.2-0.49,0.8-0.5,0.98c-0.03,0.44,0.1,0.8,0.35,0.97l0.98,0.16c2.6,0.31,2.75,0.65,2.75,6.01v18.28   c0,5.5-0.32,5.74-2.79,5.96l-1.81,0.16l-0.1,0.1c-0.29,0.29-0.33,0.76-0.28,1.11c0.06,0.38,0.24,0.66,0.48,0.78l0.09,0.04l0.1,0   c2.93-0.1,4.7-0.15,6.89-0.15h4.57c4.43,0,8.87,0.05,13.6,0.15l0.25,0.01l0.11-0.23C268.44,36.4,269.72,32.46,270.08,30.67   L270.08,30.67z M227.65,29.89V11.61c0-5.41,0.15-5.75,2.69-6.01l1.06-0.1l0.18-0.06c0.25-0.17,0.38-0.52,0.36-0.96   c-0.01-0.18-0.08-0.78-0.5-0.98l-0.09-0.04l-0.1,0c-2.45,0.11-4.13,0.15-5.98,0.15c-2.2,0-3.97-0.06-6.12-0.15l-0.1,0l-0.09,0.04   c-0.42,0.21-0.49,0.8-0.5,0.98c-0.03,0.44,0.1,0.8,0.35,0.97l1.14,0.16c2.59,0.27,2.75,0.6,2.75,6.01v5.84c0,1.24,0,1.24-2.15,1.24   h-14.52c-2.15,0-2.15,0-2.15-1.24v-5.84c0-5.41,0.15-5.75,2.7-6.01l0.96-0.1l0.18-0.06c0.25-0.17,0.38-0.52,0.35-0.96   c-0.01-0.18-0.08-0.77-0.5-0.98l-0.09-0.04l-0.1,0c-2.31,0.11-4.01,0.15-5.87,0.15c-1.33,0-2.48-0.04-3.74-0.08   c-0.81-0.03-1.67-0.05-2.64-0.07l-0.1,0l-0.08,0.04c-0.42,0.21-0.49,0.8-0.5,0.98c-0.03,0.44,0.1,0.8,0.35,0.97l0.08,0.06   l1.42,0.11c2.24,0.17,2.63,0.63,2.63,6.01v18.28c0,5.29-0.1,5.51-2.62,5.96l-0.98,0.17l-0.09,0.09c-0.29,0.29-0.33,0.76-0.28,1.11   c0.06,0.38,0.24,0.66,0.48,0.78l0.09,0.04l0.1,0c0.7-0.02,1.36-0.04,2.03-0.06c1.2-0.04,2.44-0.09,3.85-0.09   c1.91,0,3.53,0.05,6.44,0.15l0.1,0l0.09-0.04c0.33-0.17,0.47-0.62,0.5-0.99c0.03-0.44-0.1-0.79-0.36-0.95l-1.65-0.21   c-2.44-0.26-2.75-0.51-2.75-5.96v-7.16c0-1.23,0-1.23,2.15-1.23h14.52c2.15,0,2.15,0,2.15,1.23v7.16c0,5.4-0.05,5.51-2.77,5.96   l-1.09,0.17l-0.09,0.09c-0.29,0.29-0.33,0.77-0.28,1.11c0.06,0.37,0.24,0.66,0.48,0.78l0.09,0.04l0.1,0   c2.43-0.11,4.2-0.15,6.12-0.15c2,0,3.76,0.06,6.13,0.15l0.1,0l0.09-0.04c0.42-0.21,0.49-0.8,0.5-0.98c0.03-0.44-0.1-0.79-0.35-0.96   l-1.39-0.21C227.77,35.53,227.65,35.25,227.65,29.89L227.65,29.89z M185.91,2.82l0.04-0.15l-0.07-0.13   c-0.2-0.38-0.76-0.41-0.93-0.41c-0.13,0-0.31,0.01-0.48,0.08l-0.13,0.05l-0.07,0.12c-0.65,1.13-0.92,1.22-3.62,1.22h-20.99   c-2.27,0-3.29-0.12-3.51-1.25l-0.02-0.12l-0.09-0.09c-0.14-0.14-0.37-0.21-0.7-0.21c-0.12,0-0.53,0.01-0.76,0.16l-0.14,0.09   l-0.03,0.16c-0.36,2.02-1.11,5.23-1.91,7.5l-0.06,0.16l0.07,0.15c0.3,0.61,1.35,0.91,1.9,0.49l0.08-0.06l0.04-0.09   c0.52-1.17,1-2.28,2.19-3.37c1.12-1.03,3.65-1.17,5.98-1.17h2.79c1.13,0,1.13,0,1.13,1.23v22.7c0,5.5-0.32,5.74-2.79,5.96   l-1.83,0.15l-0.17,0.06c-0.3,0.19-0.47,0.56-0.45,1.01c0.01,0.34,0.15,0.77,0.48,0.93l0.09,0.04l0.1,0   c3.11-0.09,4.99-0.15,7.04-0.15c1.98,0,3.62,0.05,6.64,0.15l0.1,0l0.09-0.04c0.33-0.17,0.47-0.62,0.5-0.99   c0.03-0.44-0.1-0.79-0.36-0.95l-1.81-0.21c-2.54-0.22-2.69-0.55-2.69-5.96V7.13c0-0.52,0-1.01,0.08-1.09   c0.09-0.09,0.64-0.09,1-0.09h3.6c2.72,0,4.57,0.39,5.66,1.19c0.48,0.35,0.9,1.64,1.11,3.44l0.01,0.11l0.07,0.09   c0.19,0.23,0.53,0.36,0.92,0.36c0.48,0,0.88-0.21,1.05-0.54l0.05-0.1l-0.01-0.11C185.01,8.94,185.36,4.85,185.91,2.82L185.91,2.82z    M151.33,108.35c0,15.72,7.55,26.8,17.3,33.51c8.89,5.97,19.37,8.16,30.34,8.16c7.8,0,16.57-1.83,19.25-2.8   c1.34-0.48,2.8-0.97,4.26-1.22c1.83-2.31,5-10.35,5.85-16.69c-0.49-0.85-2.31-1.09-3.17-0.49c-2.8,7.19-9.75,17.42-25.46,17.42   c-19.98,0-36.19-14.13-36.19-39.72c0-25.22,15.84-37.04,34.48-37.04c17.67,0,23.15,9.5,24.98,17.79c0.85,0.73,2.68,0.61,3.29-0.24   c-0.97-7.43-1.58-15.11-1.71-17.91c-1.1,0.12-1.95-0.12-3.41-0.49c-5.73-1.58-14.99-2.92-21.57-2.92c-12.67,0-24,3.41-32.9,10.35   C157.42,83.25,151.33,94.82,151.33,108.35L151.33,108.35z M119.64,87.79l0-84.87C51.46-3.65,0,2.92,0,2.92S0,87.78,0,87.8   c5.43,57.53,59.31,64.29,59.83,64.19C69.45,150.26,114.62,141.18,119.64,87.79L119.64,87.79z M116.66,87.32   c-4.77,51.25-47.67,59.97-56.8,61.64c-0.49,0.09-51.66-6.4-56.82-61.63c0-0.02,0-81.49,0-81.49s48.87-6.31,113.62,0L116.66,87.32   L116.66,87.32z M99.28,117.48c1.91-2.73,3.01-5.68,3.66-8.86c-1.11,1.45-2.75,2.72-4.39,3.37   C97.4,115.65,97.95,119.43,99.28,117.48L99.28,117.48z M101.12,109.27c1.37-1.15,2.15-3.11,3.91-3.7   c-1.33-1.22-2.63,1.21-3.31,0.37c1.22-1.93,2-3.4,2.13-5.81c0.07-1.3,1.58-2.51,1.93-3.23c-1.45,0.21-5.33,2.5-6.11,3.81   c-2.61,3.45-2.47,6.68-13.38,11.49c-0.54,0,2.02-1.86,2.74-4.02c0.34-1.01,1.78-5.68,0.79-7.94c-2.25,2.29-1.79,3.04-2.43,4.73   c-1.63,4.46-2.52,4.88-6.58,7.63c-0.54,0.37-3.66,5.19-7.71,5.42c0.41-0.11,0.18-1.12,1.54-2.01c4.53-2.97,2.81-9.38,8.72-10.44   c-2.95-1.05-4.96,1.82-5.51,1.53c2.38-3.3,0.29-6.1,0.63-8.79c-0.79,0.42-1.59,1.39-1.67,2.19c-0.45,4.8-2.69,5.64-2.92,7.71   c0.48,3.43-2.28,6.09-4.29,8.5c-0.39-1.99,0.13-3.77,2.64-5.42c1.39-0.91-0.13-3.64-0.13-3.64c-0.56,2.99-2.25,3.9-3.29,4.05   c-0.91,0.13,3.21-4.18,2.73-8.13c-0.21-1.76-0.72-0.97-1-2.95c-3.55,3.95-0.95,6.39-4.6,10.95c-1.72,2.16-2.37,5.95-2.6,6.05   c0.04-5.65,0.22-4,2.73-8.59c2.07-3.77-0.11-7.29-0.4-9.57c-4.52,3.11-4.15,9.12-4.26,7.82c-0.11-1.28-0.68-3.53-0.07-5.57   c1.01-3.38-1.13-8.54-1.13-8.54c-6.33,9.93-1.02,21.53-1.42,21.38c-2.75-4.3-4.75-4.47-5.35-7.77c-0.33-1.79-3.59-11.62-9.58-11.8   c3.02,2.6,2.29,2.96,2.49,7.22c-1.92,10.67,13,11.77,12,17.3c-2.05-3.28-5.17-4.66-9.87-7.22c-2.08-1.65-4.43-2.38-4.56-4.96   c0.25-1.88,0.36-1.49,0.03-3.93c-0.23-1.74-1.95-0.69-3.21-4.33c-2.69,2.44-1.71,5.2-1.49,6.77c0.06,0.44,0.37,2.1-0.04,3.07   c-0.96-0.66-1.62-2.02-2.69-3.38c-1.93-2.47-1.91-5.48-2.88-7.56c-0.45-0.97-1.09-2.28-1.47-2.3l-0.07,0.04   c-0.47,3.88-0.24,7.27,1.52,10.17c0,0-0.48,0.83-0.88,1.05c-1.67-0.44-4.05-1.85-5.01-4.57c-2.08,1.75-0.6,4-0.7,3.96   c-4.67-2.39,0.05-11.67-6.6-11.4c1.64,1.79,0.6,4.08,0.46,6.22c-0.04,3.48,4.38,6.18,4.38,6.18c-4.93-1.67-5.94,0.64-5.88,0.64   c0,0,7.26,3.15,18.72,4.34c1.47,0.15,3.58,1.88,3.23,1.88c-1.47-0.12-4.38-2.01-8.59,1.72c2.47,0.07,4.17,4.09,8.19,1.78   c10.37-2.94,14.22,2.21,15.9,3.54c-0.36,0.65-7.97-4.78-14.01-1.18c-3.21,1.92-8.37,0.18-12.41-2.84   c1.63,4.17,8.58,8.86,10.87,8.86c2.82,0,6.41-3.67,10.5-3.47c6.54,0.32,7.45,6.17,6.73,5.71c0,0-5.15-8.51-11.76,0.58   c3.09-1.42,7.23-1.05,10.85,0.66c0.49,0.23-0.89,1.75-1.86,2.86c-0.64,0.72-3.39,4.81-6.38,0.78c-0.45-0.6-1.87-4.34-11.2-3.54   c3.52,1.59,7.42,5.76,9.34,7.66c4.89,4.84,12.28-5.88,12.56-4.68c0,2.41,1.24,3.58,1.89,4.88c1.64,3.28-2.08,2.73-4.1,1.89   c0,0,3.86,6.01,7.09,2.67c3.58-3.71-4.68-6.5-2.06-9.45c1.48-1.66,6.67,3.71,9.02,3.73c6.34,0.71,6.01-5.32,9.36-5.14   c-3.15-3.19-6.5-1.46-7.2-0.64c-2.11,2.46-4.56,0.81-6.26-0.52c-0.93-1.22-2.48-1.41-3.87-1.04c-0.66,0.05,1.33-2.33,3.92-1.83   c5.84,1.13,11.69-0.96,13.12-1.77c2.35-1.32,3.67-3.56,6.29-6.06c-0.82,0.16-5.67,2.86-7.23,3.64c-4.68,2.35-7.6-0.7-8.13-0.69   c-0.9,0.03-0.67-0.68,0.74-1.13c4.8-1.07,8.11-5.3,12.68-6.96C90.44,111.96,96.85,113.49,101.12,109.27L101.12,109.27z    M91.59,102.94c-0.15,1-0.15,1.78-0.46,2.91c-0.03,0.11,1.12,0.57,1.64,1.02c0.74-0.69,1.4-1.03,2.17-2   c-0.17-0.11-3.25-2.79-3.25-2.67C91.67,102.56,91.66,102.51,91.59,102.94L91.59,102.94z M92.07,107.52c0,0-1.18-0.89-1.25-0.72   c-0.19,0.52-0.45,1.1-0.79,1.79C89.72,109.21,90.64,108.76,92.07,107.52L92.07,107.52z M106,95.42c-0.29-11-7.04-23.21-5.2-20.94   c4.6,5.68,6.07,17.99,9.22,28.59c0,0,2.02,1.03,1.6-12.42c-0.09-2.73-1.2-6.35-2.55-8.88c-2.67-4.99-8.08-13.41-7.92-13.48   c1.3-1.06,4.48,6.2,7.24,9.06c1.79,1.85,6.76,3.66,7.11,3.42c-3.99-7.73-13.65-15.01-12.64-15.92c7.11,6.67,9.36,6.98,9.65,6.63   l-6.41-6.22c-1.81-2.43-4.2-4.29-3.87-4.22c2.86,0.63-1.49-2.38-4.85-3.29c-0.61-0.16-1.57-0.22-1.61-0.52   c-0.06-0.52,0.79-0.3,1.5-0.52c0.46-0.13,0.92-0.49,0.94-1.15c-1.28,0.28-2.6-0.02-3.69-0.51c-2.27-1.05-6.32-2.27-8.19-1.54   c-1.09,0.43-1.3,0.37-2.48,1.28c-0.52-0.22-1.95-1.13-3.97,1.31c-0.62,0.75-1.38,1.63-1.41,2.28c-0.09,1.63,0.03,0.08,0.44,1.63   c0.16,0.65-0.57,1.84-3.55,2.84c-1.15,0.39-0.86,1.53-0.86,1.53c0.57-0.28,1.48-0.92,2.87-0.27c2.72,1.28,3.26-0.74,4.95-2.18   c0,0-0.47,1.81,0,1.91c2.12,0.44,1.41,2.03,1.14,2.26c-2.67,2.38-1.55,3.28-2.5,4.75c-0.9,1.39-2.28,1.91-4.34,1.85   c-2.85-0.09,3.73-4.39-2.56-6.18c0.99,1.65,1.39,2.97-0.81,4.25c-1.39,0.8-0.68,4.9-4.24,3c0,0-0.29,3.03-0.7,3.16   c4.83,4.23,2.13,6.54,2.37,12.58c1.51,3.85-0.15,5.68-0.53,5.89c0.24,2.61,0.49,4.03,2.11,6.15c1.18,1.54-0.11,3.9,1.1,5.55   c1.11-3.92,2.29-2.29,2.61-7.74c0.44-0.92,2.28-2.53,3.32-2.63c-0.02,3.29,1.2,6.28,0.94,7.67c0,0,2.77-0.5,3.63-0.2   c0.68,0.23,1.21,1.13,1.23,1.68c-0.94,0.59-0.95,0.36-2.37,1.4c-2.49,1.81-3.64,5.51-3.64,5.51c-0.01,0,5.85-4.67,6.27-5.51   c0.33-0.67,0.65-1.7,0.96-2.76c0.03-0.12-3.02-1.9-3.86-3.53c-2.62-5.09,4.06,3.01,4.21,2.31c0.39-1.76,1.62-3.42,1.62-3.42   c-0.43-0.5-1.47-0.81-3.07-3.62C81.55,89.83,89.43,99,89.43,99c2.09-1.2,2.1,0.4,2.37,2.09c0.02,0.16,3.55,2.75,3.72,2.92   c0.99-0.93,1.71-2.18,2.12-3.05c0.05-0.12-6.36-5.8-7.46-7.68c-8.84-15.16,7.15,6.73,7.91,6.13c0.42-1.19,0.57-2.82,0.52-5.03   c0-0.05-3.01-2.13-4.93-5.31c-7.43-12.27,4.88,3.66,4.87,3.54c-0.15-2.63-2.3-14.02-0.81-10.6c0.76,1.76,3.16,9.04,2.72,16.45   C101.27,97.13,104.7,95.76,106,95.42L106,95.42z M110.84,22.37c0.06,0.45,0.11,0.76,0.13,0.97   C110.94,23.14,110.9,22.82,110.84,22.37c0.01,0-0.21-4.1-4.61-4.1c-1.43,0-3.17,1.74-7.62-0.19v6.95c1.8,0.53,6.75-2.29,8.72-3.15   C108.74,21.28,110.74,21.68,110.84,22.37L110.84,22.37z M98.49,32.44v6.95c0,0,3.88-0.03,8.19-2.81c1.29-0.83,3.2-0.49,4.15,0.26   h0.01c0,0-0.58-4.55-4.44-3.99C99.31,33.9,98.49,32.44,98.49,32.44L98.49,32.44z M71.97,43.48c3.69,0,18.22,3.98,25.22,3.51V10.46   c0,0-10.31,1.46-19.23-1.83c-7.28-2.69-17.29,2.01-17.29,2.01c0.01,1.24,0,35.83,0,35.83S64.35,43.48,71.97,43.48L71.97,43.48z    M64.1,31.46c0.35,0.03,1.4,0.05,1.77,0.05c-0.04,0.78-0.04,6.2,0,6.76c0.05,0.56,0.53,0.73,1.01,0.51   c0.24-0.1,0.46,0.07,0.15,0.33c-0.54,0.4-1.18,1.34-1.48,1.7c-0.61-0.42-1.28-0.95-1.23-1.45C64.39,38.48,64.13,32.19,64.1,31.46   L64.1,31.46z M66.01,23.55c1.06-0.58,3.44-0.95,4.26-0.69c0.41,0.11,0.83,0,0.83-0.19c0-0.28,0.38-0.2,0.38,0   c0,0.21-0.01,2.81-0.03,3.06c0,0.25-0.38,0.23-0.38,0c0-0.37,0-0.49-0.33-0.99c-0.95-1.43-3.58-1.55-4.89,0.17   c-0.45,0.58-0.61,1.59-0.11,1.76c0.49,0.17,2.36,0.02,2.97-0.1c0.6-0.11,2.11-0.36,2.29-0.48c0.17-0.1,0.4-0.25,0.4,0.05   c0,0.31,0,1.3-0.01,1.6c0,0.31-0.24,0.16-0.4,0.04c-0.18-0.1-1.59-0.25-2.21-0.29c-1.02-0.09-2.57-0.41-3.08-0.25   c-0.51,0.15-0.11,0.94,0.33,1.53c1.29,1.74,3.69,1.79,4.65,0.37c0.35-0.51,0.35-0.62,0.35-0.98c0-0.23,0.39-0.27,0.39,0   c0,0.24-0.02,2.4-0.02,2.61c0,0.21-0.4,0.27-0.4-0.01c0.02-0.46-0.27-0.43-0.8-0.27c-1.4,0.37-3.26,0.49-4.37-0.13   c-1.17-0.67-2.19-0.89-2.22-3.47C63.62,25.33,65.07,24.09,66.01,23.55L66.01,23.55z M73.66,12.42c-0.63,0.19-1.08,0.81-1.23,1.45   c-0.12,0.65-2.26,6.84-2.51,7.25c-0.51-1.93-2.65-6.53-3.33-7.51c-0.59-0.87-1.15-0.7-1.69-0.72c-0.52,0-0.33-0.5,0.1-0.46   c0.6,0.07,3.97,0.37,4.93,0.51c0.34,0.07,0.35,0.38-0.1,0.52c-0.23,0.06-0.77,0.32-0.77,0.59c0,0.36,1.23,3.06,1.56,3.57   c0.29-0.69,1.44-3.64,1.21-4.29c-0.25-0.65-0.35-0.75-0.82-0.8c-0.48-0.06-0.48-0.34,0.1-0.43c0.58-0.09,2.18-0.23,2.66-0.17   C74.25,11.97,74.31,12.25,73.66,12.42L73.66,12.42z M77.3,12.5l-0.63,0.55h-0.52l-0.53-0.52l-0.02-1.02l0.85-0.72l0.85,0.83V12.5   L77.3,12.5z M78.77,19.66l-1.13,1.47h-1.05c-0.52-0.52-0.87-0.93-0.97-1.35l-0.06-3.52l-1.31-0.75c-0.24,0.33-0.73,0.33-0.54,0.05   l1.81-1.59l0.39-0.04l1.15,1.15l-0.02,3.64C77.61,19.36,77.95,19.51,78.77,19.66L78.77,19.66z M85.13,15.48c-0.27,0-3,0.33-3,0.33   c-0.14,0.07,0.14,3.45,0.24,3.72c0.08,0.28,0.35,0.7,0.66,0.43c0.28-0.28,0.6,0.18,0.27,0.46c-0.19,0.15-0.79,1.35-1.07,1.52   c-0.43,0.27-1.05-0.62-1.26-1.17c-0.33-0.92-0.55-3.23-0.54-4.77c0.09,0.03-1.27-0.54-0.66-0.79c1.2-0.51,2.36-2.11,2.5-2.52   c0.15-0.42,0.53-0.24,0.33,0.17c-0.4,0.83-0.35,1.44-0.19,1.93c0.06,0.13,2.37,0.08,2.71,0.08C85.33,14.89,85.32,15.48,85.13,15.48   L85.13,15.48z M81.99,27.13c-0.23,1.18,0.79,2.15,1.57,2.56c0.63,0.33,1.71,0.15,1.97,0.1c0.26-0.04,0.19-0.12,0.38-0.3   c0.2-0.19,0.43-0.02,0.27,0.17c-0.18,0.19-1.76,1.69-2.19,1.99c-0.4,0.1-1.29,0.07-1.81-0.6c-0.94-1.17-1.62-1.6-1.32-3.74   c0.21-1.45,2.62-2.71,3.18-3.02c0.22,0.22,1.32,1.38,1.8,1.76c-0.19,0.24-0.8,0.51-1.38,0.51c-0.6,0-1-0.5-1.4-0.94   C82.77,25.9,82.16,26.26,81.99,27.13L81.99,27.13z M91.65,21.37l-1.46,1.6c-0.43-0.31-0.69-0.63-0.81-1.17   c-1.12,0.22-1.88,0.88-2.39,1.28c-0.46-0.42-1.16-1.53-1.16-2.3c-0.02-0.76,0.59-1.89,1-2.28c0.04,0.02,0.08,0.04,0.12,0.07   c-0.24-0.15-0.47-0.29-0.65-0.44c-0.16-0.14-0.21-0.52,0-0.82c0.29-0.38,1.2-1.52,2.09-1.66c0.47-0.06,1.27,0.06,2.37,1.04   c-0.14,0.17-0.14,3.37-0.14,3.7C91.01,20.86,91.65,21.37,91.65,21.37L91.65,21.37z M94.65,28.61c-0.47-0.02-0.97-0.11-1.23-0.18   c-0.42-0.11-0.24-0.59,0.1-0.59c0.34,0,0.87,0.1,1.12,0.19C94.87,28.13,94.98,28.64,94.65,28.61L94.65,28.61z M94.62,29.74   c-0.49-0.04-0.97-0.11-1.23-0.18c-0.42-0.13-0.25-0.58,0.1-0.58c0.33,0.01,0.86,0.11,1.1,0.19C94.83,29.26,94.93,29.78,94.62,29.74   L94.62,29.74z M87.01,36.48c0.48-0.28,1.63-1.32,2.03-1.6c0.66,0.51,1.09,1.02,1.42,1.39c0.44-0.23,1.13-0.73,1.46-1   c0.58,0.41,1.23,0.95,1.47,1.23c0.31-0.28,0.69-0.06,0.33,0.29c-0.33,0.31-1.09,0.98-1.38,1.2c-0.42-0.23-1.16-1.07-1.4-1.25   c-0.12,0.11-0.37,0.22-0.58,0.34c-0.01,0.46,0,4.25-0.03,4.71c-0.62,0.04-1.13,0.08-1.56-0.01c-0.04-0.6,0.02-3.89,0-4.41   C88.75,36.72,87.71,36.49,87.01,36.48L87.01,36.48z M86.76,29.18c0.06-1.89,1.31-3.5,3.34-4.22c1.6,0.53,2.27,2.15,2.32,3.24   c0.04,0.89-0.55,2.05-0.95,2.77c-0.63,0.42-1.27,1.03-1.86,1.6C87.67,32.57,86.72,30.29,86.76,29.18L86.76,29.18z M79.24,35.39   c0.58-0.65,1.21-1.07,1.57-1.43c0.62,0.46,0.82,0.74,1.15,1.26c-0.01,0.83-0.19,2.58-0.13,3.19c0.03,0.59,2.4,1,2.51,0.12   c0.11-0.87,0.03-2,0-2.51c-0.04-0.4-0.98-0.59-1.45-0.52c0.64-0.67,1.18-1.16,1.58-1.53c0.57,0.43,1.13,1.04,1.47,1.56   c-0.02,0.89-0.17,2.96-0.05,3.51c0.16,0.57,0.1,0.61,0.53,0.89c-0.44,0.41-0.76,0.59-1.06,0.91c-0.45-0.13-1.2-0.8-1.15-1.4   c-0.54,0.37-2.14,1.04-2.72,1.19c-0.58-0.6-1.02-0.76-1.05-1.48C80.4,38.4,80.6,36.46,80.36,36   C80.13,35.53,79.72,35.43,79.24,35.39L79.24,35.39z M77.89,30.06c-0.58-0.33-1.37-1.09-1.8-1.72c-0.77,0.99-0.96,1.83-2.37,2.2   c0.82-0.68,1.57-2.2,1.51-3.64c-0.06-1.3-0.77-1.94-1.4-2.18c-0.54,0.26-1,0.61-1.28,0.73c-0.3,0.12-0.38-0.34-0.17-0.45   c0.69-0.33,2.2-1.48,2.4-1.71c0.64,0.11,1.43,0.67,1.54,1.18c0.48-0.3,1.34-1.23,1.6-1.45c0.29,0.51,1.16,1.14,2.12,1.49   c-0.88,1.5-2.83,0.6-3.11,0.23c-0.31,0.52-0.39,0.84-0.07,1.5c0.4,0.9,2.01,1.75,2.84,1.97C79.45,28.5,78.3,29.79,77.89,30.06   L77.89,30.06z M75.64,34.62c0.09,0.02-1.25-0.51-0.68-0.79c1.01-0.5,2.01-1.55,2.17-1.98c0.15-0.41,0.54-0.22,0.34,0.19   c-0.2,0.41-0.34,1.43-0.22,1.74c0.04,0.14,0.81,0.21,1.16,0.21c0.2,0,0.18,0.6-0.02,0.6c-0.25-0.01-1.2,0.01-1.2,0.01   c-0.14,0.07-0.04,3.39,0.05,3.68c0.11,0.27,0.89,0.47,1.18,0.19c0.29-0.27,0.59,0.01,0.24,0.27c-0.18,0.16-0.78,1.1-1.26,1.29   c-0.49,0.19-1.23-0.13-1.55-0.61C75.31,38.63,75.62,36.14,75.64,34.62L75.64,34.62z M72.56,40.01c-0.49-0.37-0.91-0.47-1.07-1.06   c-1.27,0.49-1.75,1.22-2.51,1.76c-0.45-0.42-0.82-1.16-0.83-1.93c-0.02-0.75,0.73-1.78,1.15-2.17c-0.05-0.05-0.08-0.05-0.14-0.11   c-0.17-0.14-0.4-1.25-0.18-1.54c0.28-0.4,1.41-1.96,2.3-2.03c0.61-0.06,1.09,0.7,1.61,1.26c-0.13,0.15-0.07,2.86-0.09,3.19   c0.57,0.61,0.8,0.75,1.14,0.52c0.34-0.23,0.48,0,0.24,0.23C73.93,38.36,72.85,39.68,72.56,40.01L72.56,40.01z M71.44,36.7   c0-0.58-0.01-1.14-0.05-1.42c0.05-0.42-0.86-1.04-1.09-1.05c-0.26,0-0.46,0.1-0.79,0.59c-0.16,0.26-0.12,1.29,0.02,1.4   C70.28,36.86,70.76,36.78,71.44,36.7L71.44,36.7z M69.91,37.05c-0.68,1.29-0.12,1.56,0.26,1.87c0.48-0.24,0.9-0.45,1.24-0.69   c0-0.23,0.01-0.67,0.02-1.16C70.66,37.16,70.41,37.33,69.91,37.05L69.91,37.05z M88.18,29.36c0.31,0.81,1.69,1.87,2.06,2.05   c0.57-0.69,0.88-1.95,0.75-3.01c-0.09-0.82-1.15-1.71-2.06-2.05C87.77,27.06,87.77,28.27,88.18,29.36L88.18,29.36z M88.15,21.8   c0.48-0.23,0.81-0.33,1.18-0.35c-0.02-0.18-0.04-0.37-0.04-0.61c0-0.18,0.02-0.67,0.02-1.22c-0.64-0.2-1.45-0.54-2.14-0.93   c0.1,0.06,0.21,0.12,0.31,0.18C86.73,20.25,87.75,21.48,88.15,21.8L88.15,21.8z M86.67,17.94c0.51,0.43,1.93,1.09,2.65,1.35   c0-0.61,0-1.21-0.05-1.5c0.05-0.41-1.4-1.18-1.62-1.18c-0.26-0.02-0.63,0.41-0.96,0.89C86.52,17.77,86.53,17.83,86.67,17.94   L86.67,17.94z M59.36,51.05c-1.15,0.13-2.54,0.81-2.89,2.02c-0.7,0.69-0.67-1.16-2.09-0.35c-0.61,0.82,0.97,2.64,0.6,2.75   c-1.55,0.47-1.36-2.33-2.24-2.4c-1.27,0.45-4.48,3.38-1.33,5.71c-0.1-1.57,2.87-3.28,3.85,0.19c2.98-0.23,3.98,1.58,4.35,2.6   c4.39,0.78,3.12,3.69,3,3.69c-0.42-0.62-2.3-3.53-5.39-1.53c-0.72,0.46-1.95,0.92-2.57,0.31c0.06,0.97,1.29,1.85,2.13,1.62   c2.75-0.75,3.44,1.8,1.34,2.5c0.45,0.7,1.31,0.66,2.11,0.17c1.18-0.72,1.32-1.36,1.75-1.79c0.75,3.58-3.78,3.92-5.23,4.14   c0.22,0.76,0.71,0.93,1.62,1.2c-4.78,0.16-5.72,4.65-5.44,7.23c1.08,0.08,2.74-2.26,2.59-0.92c-3.39,3.59-4.53,8.4-2.75,11.46   c0.85-0.35,1.11-1.28,1.41-2.04c0.13-0.09,1.87,0.68-0.91,4.02c-0.19,0.87-1.17,3.48,0.97,4.11c0.82-0.96,0.7-1.8,0.88-2.79   c0.62-0.25,1.03,1.77,0.79,2.38c-2.79,1.15-2.44,9.72,0.79,14.32c-1.5-3.34-1.3-7.63,0-11.07c1-2.65,3.19-8.6,3.25-8.53   c1.25,1.53,2.82,8.09,2.82,10.81c1.75-1.52,2.09-3.18,3.52-4.3c0.68,2.38,0.95,3.96,1.49,6.06c0.69-2.05,2.53-4.38-0.09-11.04   c0.54-0.49,1.53,2.31,1.85,2.18c0.24-0.09,0.6-1.49-0.3-4.1c-1.84-1.72-2.25-4.24-1.96-4.43c0.24-0.16,1.07,2.62,2.04,2.76   c0.2-2.15,0.72-4.35,0.56-6.02c-0.04-0.44-0.76-2.66-2.79-4.49c-1.18-1.06-1.63-3.28-1.53-3.73c1.14,1.05,0.89,1.82,1.86,2.24   c0.4-0.9,0.13-4.25-1.04-5.72c-0.67-1.11-0.35-0.96,0.45-0.29c1.05,1.25,0.55,1.15,1.45,1.67c1.99-4.69,0.18-5.6,0.32-5.93   c0.12-0.3,1.54,2.19,2.73,1.23c-1.96-1.03-1.9-2.6-2.12-4.3c-0.17-1.34-1.03-1.84-0.7-2.17c1.95,1.47,2.49-0.16,2.55-0.48   c-0.37,0.21-2.11,0.44-2.32-2.26c-0.08-1.06-1.72-1.53-1.71-1.53c1-0.19,4.22-0.37,3.45-3.56c-0.39,0.75-1.35,1.94-3.34,1.47   c0,0,1.28-0.35,1.05-1.73C65.09,54.12,62.58,50.59,59.36,51.05L59.36,51.05z M65.09,55.26c-2.04,0.4-3.57,2.63-5.9,1.68   c-0.3-0.2-0.93-0.37-0.85-0.83c0.42,0.24,1.07,0.39,1.52,0.46c0,0-1.25-1.03-0.15-2.31c-1.4,0.88-1.89,0.64-1.89,0.18   c0-0.21,1.84-1.55,3.57-0.89c1.25,0.47,2.33,1.43,3.7,1.63V55.26L65.09,55.26z M61.79,55.3c0,0.48-0.61,1.15-0.61,1.15l2.22-1.12   c-0.45-0.29-1.69-1-2.22-1.15C61.17,54.17,61.78,54.65,61.79,55.3L61.79,55.3z M48.67,43.48c5.57,0.37,10.32,2.94,10.32,2.94V10.5   c0,0-8.19-5.73-21.5-0.6c-3.91,1.51-13.44,0.24-13.44,0.24v36.71C32.41,47.43,43.29,43.13,48.67,43.48L48.67,43.48z M44.7,24.15   c1.07,0.34,2.66,0.09,3.16,1.51c0.54,1.5-0.44,3.43-1.68,3.52c-1.05,0.09-1.99-0.26-2.57-0.22c-0.27,0.02-0.47,0.11-0.52,0.4   c-0.04,0.32-0.46,0.45-0.54,0.04c-0.09-0.4-0.21-2.11-0.21-2.6c0-0.5,0.46-0.55,0.55,0c0.09,0.53,0.25,0.91,0.66,1.37   c0.32,0.36,2.37,0.87,3.12,0.27c0.61-0.49,0.46-1.56-0.17-1.97c-0.63-0.42-3.17-1.01-3.6-1.73c-0.74-1.24,0.58-2.28,1.16-2.61   c0.91-0.5,1.96-0.34,2.32-0.34c0.35,0,0.83,0.12,0.85-0.27c0.03-0.38,0.32-0.35,0.35,0.05c0.12,1.11,0.23,0.44,0.19,1.62   c0,0.54-0.19,0.55-0.42,0.13c-0.15-0.27-1.71-1.58-2.97-0.77C43.31,23.27,43.72,23.89,44.7,24.15L44.7,24.15z M47.77,31.52   c-0.46,0.44-0.83,0.85-1.24,1.3c-0.35-0.23-0.88-0.69-1.29-1.04c0.67-0.31,1.04-0.72,1.27-1.17   C46.77,31.19,47.31,31.43,47.77,31.52L47.77,31.52z M40.94,34.29c0.57-0.41,1.53-2.2,1.66-2.6c0.12-0.41,0.36-0.27,0.32,0.17   c-0.05,0.63-0.34,2.04-0.23,2.32c0.05,0.14,0.95,0.13,1.25,0.13c0.2,0,0.21,0.58,0.02,0.58c-0.24,0-1.25,0.15-1.25,0.15   c-0.14,0.06-0.07,2.15,0.13,2.37c0.4,0.38,0.71,0.65,1.26,0.07c0.27-0.27,0.54-0.02,0.23,0.26c-0.17,0.16-0.93,1.08-1.1,1.54   c-0.17,0.45-1.17,0.1-1.49-0.37c-0.51-0.76-0.29-2.29-0.33-3.78C41.51,35.16,40.46,34.65,40.94,34.29L40.94,34.29z M40.18,29.95   c-0.37,0.32-1.17-0.19-1.46-0.68c-0.46-0.78-0.32-2.61-0.25-4.1c0.06,0-0.26-0.37-0.57-0.43c-0.39-0.1-0.46-0.24,0.15-0.49   c0.75-0.29,1.9-2.08,2.06-2.49c0.14-0.4,0.37-0.02,0.15,0.37c-0.46,0.89-0.27,1.92-0.19,2.23c0.05,0.14,1.46-0.06,1.75-0.06   c0.2,0.01,0.17,0.6-0.01,0.58c-0.24,0-2.08,0.22-2.08,0.22c-0.13,0.07,0.15,2.96,0.34,3.18c0.03,0.03,0.61,0.54,0.83,0.32   c0.28-0.26,0.55,0.02,0.22,0.29C40.92,29.04,40.6,29.61,40.18,29.95L40.18,29.95z M33.57,34.39c0.68-0.54,1.04-0.94,1.51-1.38   c0.4,0.64,0.59,1.25,0.95,1.51c0.48-0.41,1.29-0.92,1.66-1.32c0.35,0.17,0.97,0.55,1.02,1.81c0.03,1.26,0.2,3.24,0.2,3.68   c0,0.23,0.06,0.16,0.43,0.08c0.34-0.09,0.48,0.08,0.22,0.31c-0.27,0.22-1.51,1.09-1.84,1.46c-0.44-0.82-0.52-1.4-0.34-2.22   c0.14-0.67,0.02-2.47,0.02-2.88c0-0.41-0.62-0.54-0.88-0.77c-0.37,0.27-0.41,0.32-0.73,0.63c0,0.54-0.07,4.34,0.01,4.83   c-0.85,0.03-0.77-0.02-1.26-0.02c-0.04-0.73-0.02-3.66-0.06-4.29C34.43,35.21,33.89,34.75,33.57,34.39L33.57,34.39z M27.87,36.45   c0.36-2.47,2.76-3.48,3.48-3.96c0.13,0.72,0.96,1.97,1.49,2.47c-0.81,0.67-2.68,2.22-3.39,2.76c0.39,0.72,1.87,1.23,2.37,0.69   c0.37-0.37,0.82-0.24,0.41,0.24c-0.54,0.62-1.09,1.51-1.36,2.05C29.79,40.24,27.55,38.82,27.87,36.45L27.87,36.45z M27.26,25.03   c0.6-0.89,2-1.74,2.95-2.08c0.3,0.35,0.66,0.9,1.11,1.48c-0.45,0.35-0.91,0.81-1.17,1.12c-0.2-0.23-1.35-1.94-2.15-0.74   c-0.44,0.64-0.9,2.5,0.59,3.65c0.72,0.55,1.49,0.73,2.48,0.57c-0.5,0.66-0.63,0.85-0.92,1.42c-1.44,0.26-2.02-0.2-2.73-0.79   C25.92,28.43,26.39,26.35,27.26,25.03L27.26,25.03z M33.72,21.75c-0.25-0.36-0.31-0.69-0.82-0.55c-1.29,0.37-2.71,0.76-3.73,0.16   c-1.09-0.67-2.04-0.88-2.06-3.38c-0.02-1.52,1.32-2.72,2.19-3.24c0.99-0.57,2.7-0.2,3.48,0.03c0.37,0.12,0.66,0.08,0.68-0.41   c0.01-0.26,0.42-0.2,0.41,0c0,0.22-0.01,3.29-0.01,3.54c-0.01,0.24-0.51,0.26-0.5,0.03c0-0.35-0.12-1.01-0.24-1.56   c-0.17-0.81-2.29-2.3-3.81-0.3c-0.04,0.1-0.65,1.15-0.57,1.96c0.05,0.61,0.15,1.46,0.56,2.03c1.2,1.7,2.9,1.13,3.8-0.26   c0.32-0.5,0.27-1.12,0.29-1.48c0-0.22,0.48-0.24,0.48,0c0,0.25-0.02,2.3-0.02,2.49c0.01,0.3,0.23,0.53,0.34,0.68   C34.47,21.95,34.13,22.31,33.72,21.75L33.72,21.75z M34.83,23.54c0.56-0.06,1.04,1.08,1.54,1.63c-0.14,0.15-0.14,3.54-0.14,3.86   c0.12,0.19,0.51,0.42,0.68,0.27c0.27-0.27,0.45,0,0.21,0.22c-0.21,0.22-1.32,1.17-1.6,1.48c-0.39-0.3-0.52-0.73-0.58-1.31   c-0.68,0.16-1.31,0.54-1.71,1.15c-0.76-0.34-1.34-1-1.36-1.73c-0.02-0.76,0.5-1.2,1.06-1.72c-0.1-0.08-0.18-0.14-0.29-0.24   c-0.16-0.13-0.36-1.36-0.22-1.7C32.77,24.6,33.99,23.61,34.83,23.54L34.83,23.54z M40.95,15.27c-0.32,0.32-1.05,0.78-1.34,1   c-0.37-0.22-0.84-0.9-1.07-1.08c-0.1,0.1-0.32,0.22-0.54,0.33c0,0.44,0.02,4.45-0.02,4.9c-0.56,0.03-1.05,0.07-1.45-0.02   c-0.04-0.58,0.04-3.78,0.01-4.3c-0.05-0.64-0.61-0.68-1.35-0.9c0.42-0.51,1.2-1.08,1.56-1.35c0.64,0.5,1.03,0.5,1.35,0.86   c0.41-0.23,1.14-0.67,1.46-0.93c0.3,0.35,0.86,0.93,1.08,1.19C40.93,14.71,41.28,14.95,40.95,15.27L40.95,15.27z M46.77,19.18   c-0.36,0.18-1.09,0.94-1.68,0.94c-1.76-0.07-3.98-1.35-3.65-3.71c0.34-2.46,2.28-3.4,3.11-3.43c0.95,0.07,1.17,0.89,1.71,1.39   c-0.81,0.67-2.14,1.98-2.93,2.78c0.19,0.42,1.1,1.97,3.04,1.48C47.26,18.42,47.55,18.79,46.77,19.18L46.77,19.18z M53.76,14.88   c-0.19,0.23-0.91,0.82-1.75,1.48c0.13,0.02,0.25,0.05,0.38,0.12c1.34,0.78,1.8,1.89,0.48,2.93c-0.72,0.58-1.89,1.23-3.16,1.26   c-0.84,0.02-2.33-0.68-2.6-0.98c0.68-0.64,1.42-1.34,1.95-1.79c-0.83-0.64-1.61-1.5-0.97-2.48c0.48-0.74,1.95-1.92,3.25-1.87   C52.64,13.62,53.22,14.51,53.76,14.88L53.76,14.88z M54.58,21.63l0.79,0.82v0.85l-0.59,0.53h-0.49l-0.49-0.5l-0.02-0.99   L54.58,21.63L54.58,21.63z M56.08,17.65c-1.84,0.07-1.37-0.77-1.06-0.75C56.58,16.98,56.37,17.64,56.08,17.65L56.08,17.65z    M56.05,18.75C54.2,18.56,54.68,17.98,55,18C56.72,18.1,56.34,18.78,56.05,18.75L56.05,18.75z M56.88,29.64l-0.68,0.74l-0.86,0.74   c-0.49-0.51-0.84-0.64-0.92-1.04l-0.03-3.33l-0.79-0.48c-0.46,0.41-0.83,0.23-0.42-0.14l1.54-1.42l0.36-0.05l0.67,0.99l-0.03,3.54   C56.11,29.54,56.11,29.49,56.88,29.64L56.88,29.64z M50.01,38.25c-0.01-0.79,0.4-1.42,0.96-1.99c-0.04-0.04-0.06-0.05-0.1-0.08   c-0.16-0.13-0.42-1.53-0.22-1.82c0.27-0.39,1.5-1.57,2.33-1.65c0.57-0.06,1.41,1.17,1.9,1.72c-0.14,0.16,0.17,3.55,0.17,3.87   c0.17,0.28,0.76,0.48,0.94,0.2c0.23-0.3,0.45,0.02,0.23,0.24c-0.23,0.21-1.07,0.9-1.34,1.21c-0.38-0.3-1.02-0.63-1.43-1.13   c-0.84,0.16-1.72,0.77-2.4,1.27C50.29,39.76,50.04,39.01,50.01,38.25L50.01,38.25z M48.76,28.19c-0.52-1.43,0.42-2.76,0.88-3.15   c0.37-0.3,1.21-1.02,1.76-1.37c0.53,0.32,0.94,0.55,1.21,0.68c-0.1,0.26-0.22,0.78-0.78,0.81c-0.85,0.02-1.51-0.2-1.97,0.29   c-0.46,0.49-0.1,1.89,0.47,2.42c0.43,0.41,1.6,0.93,1.82,0.45c0.28-0.62,0.7-0.3,0.29,0.24c-0.28,0.35-0.78,1.12-1.04,1.62   C50.5,30.11,49.28,29.65,48.76,28.19L48.76,28.19z M49.1,38.08l-0.67,0.74l-0.64,0.65c-0.49-0.51-0.85-0.6-0.93-1l-0.02-3.23   l-1.01-0.52c-0.47,0.39-0.83,0.22-0.42-0.13l1.53-1.43l0.37-0.05l0.98,1.43l0.02,3.05C48.7,37.95,48.35,37.94,49.1,38.08   L49.1,38.08z M51.49,36.66c-1.08,0.9,0.14,1.73,0.47,2.03c0.37-0.18,0.84-0.26,1.21-0.4c-0.05-0.15-0.12-0.28-0.12-0.46   c0-0.16,0.03-0.52,0.06-0.91C52.39,37,52.06,37.05,51.49,36.66L51.49,36.66z M53.14,36.55c0.03-0.53,0.06-1.08,0.01-1.37   c0.07-0.4-1.19-1.16-1.39-1.16c-0.26,0-0.26,0.14-0.56,0.62c-0.15,0.25-0.03,1.03,0.1,1.14C51.98,36.37,52.52,36.56,53.14,36.55   L53.14,36.55z M51.02,16.4c0.36-0.29,0.69-0.56,0.81-0.65c-0.54-0.5-1.44-0.98-1.84-1.04c-0.4-0.04-1.22,0.31-0.9,0.73   c0.31,0.4,0.62,0.9,1.29,1C50.6,16.46,50.81,16.44,51.02,16.4L51.02,16.4z M50.43,17.61c-0.6,0.47-1.13,0.9-1.42,1.14   c0.22,0.41,1.6,1.41,2.38,1.06c0.76-0.35,1.12-1.11,0.42-1.51C51.32,18.01,50.87,17.81,50.43,17.61L50.43,17.61z M43.19,16.67   c0.36-0.26,1.21-1.24,1.77-1.77c-0.31-0.19-0.87-0.58-1.09-1.12C42.89,14.56,42.7,15.1,43.19,16.67L43.19,16.67z M34.91,29.17   c0-0.17-0.01-0.32,0-0.5c0-0.2,0-0.72,0-1.27c-0.63,0.39-0.89,0.69-1.54,0.31c-1.07,0.86,0.56,1.4,0.91,1.69   C34.52,29.26,34.73,29.22,34.91,29.17L34.91,29.17z M34.9,26.98c-0.01-0.43-0.03-0.84-0.07-1.06c0.05-0.4-0.7-1.32-0.92-1.33   c-0.24,0-0.76,0.46-1.05,0.91c-0.15,0.27-0.18,0.97,0.14,1.34C33.66,27.56,33.96,27.58,34.9,26.98L34.9,26.98z M30.19,33.87   c-2.04,1.25-1.68,2.63-1,3.47c0.37-0.26,1.68-1.15,2.22-1.69C31.09,35.47,30.4,34.42,30.19,33.87L30.19,33.87z M17.82,38.75h4.53   v-4.46h-4.53V38.75L17.82,38.75z M17.82,23.21h4.53v-4.46h-4.53V23.21L17.82,23.21z M12.48,32.24c-5.32,0-5.32,7.8,0,7.8   C17.63,40.03,17.6,32.24,12.48,32.24L12.48,32.24z M12.48,16.66c-5.09,0-5.2,7.8,0,7.8C17.6,24.46,17.6,16.66,12.48,16.66   L12.48,16.66z M58.25,62.24c-0.3-0.68-0.81-1.32-1.55-1.66c-3.04-1.45-8.87,1.68-8.81-2.88c0,0-2.08,1.55-1.13,3.17   C48.93,64.58,54.98,59.98,58.25,62.24L58.25,62.24z M30.94,99.31c-1.7,1.7-2.29,1.74-2.19,2.47c0.38,1.04,1.13,1.77,1.93,2.65   c1,0.82,1.37,1.56,0.64-0.83C30.85,102.02,30.96,100.87,30.94,99.31L30.94,99.31z M19.19,67.17l0.09,0.09   c-0.02,3.5-9.86,8.53-14.07,10.79c6.52,2.25,12.69-3.8,11.94-2.33c-0.88,1.72-8.84,8.58-12.31,12.25c2.7,0.75,5.18-1.43,7.14-3.1   c2.14-1.82,5.71-6.39,5.17-4.12c-5.78,7.14-10.34,21.96-7.53,22.91c1.61-3.36,8.26-20.49,8.68-20.41c0.44,0.08-0.52,4.52-0.67,7.46   c-0.33,6.46-0.37,9.51,1.03,15.87c0.72-0.98,1.41-0.96,2.55-0.88c0.14-0.62,0.1-0.46-0.62-1.4c-1.85-2.45,0.28-5.79-0.61-7.82   c-0.74-1.7-1.16-0.34-1.5-2.11c0.52-0.47,1.9-0.62,2.46-0.71c0.6-6.63,2.82-10,1.99-5.82c-0.42,2.12-1.07,5.63-0.76,5.73   c0.31,0.1,0.33,0.1,0.6,0.24c0.12,0.06,11.14-18.06,5.03-5.5c-0.8,1.65-4.06,6.09-4.06,6.09c0.86,0.88,1.67,1.91,1.77,2.53   c0.03,0.17,14.77-19.4,4.73-3.63c-0.62,0.96-3.63,4.2-4.4,5.13c-0.1,0.12,0.28,3.67,0.28,3.67c1.53-1.06,3.72-3.2,4.74-4.57   c-0.14-2,0.33-1.73,0.44-3.69c0.47-0.3,1.08,0.53,1.82,1.2c0.35,0.31,10.12-16.69,3.99-3.94c-0.98,2.05-3.16,4.47-3.26,4.67   c0.41,0.44,1.03,1.84,1.73,3.47c0.03,0.06,13.06-18.8,5.14-4.54c-0.62,1.12-4.55,5.85-4.5,5.97c0.96,2.36,1.81,4.66,1.81,4.65   c-0.24-1.84-0.61-5.46,3.2-8.45c0.49,3.27,1.37,3.41,2.51,4.41c0.5,0.44,1.43,2.31,1.54,0.72c0.32-4.65-1.19-4.54-2.31-6.51   c-0.27-0.47-0.22-1.54-0.01-1.47c9.39,0.28,9.08,9.07,10.64,9.07c-0.71-2.24-0.91-4.45-0.06-6.25c-2.52-1.78-1.89-4.83-1.41-6.16   c-2.83-2.92-1.2-9.14,0.15-10.45c-1.82-2.64,0.42-4.45-0.06-6.07c-0.76-5.74-5.88-4.03-7.03-9.5c-0.8,0.97-2.28,4.28-1.59,5.38   c0.8,1.26,2.5,1.37,2.61,2.29c0.04,0.39,0.17,1.49-0.11,1.72c-0.97,0.17-1.63-0.71-2.62-1.11c-1.99-0.79-6.8,2.51-7.09-0.4   c-0.18-1.83,0.63-0.51,0.54-2.21c-0.08-1.75-0.96-0.52-0.97-2.77c-0.01-1.65,1.98-2.17,2.13-2.84c0.35-1.64,3.33,2.41,5.08-1.88   c-1.01,0.14-3.07-0.57-2.88-1.57c0.52-2.69,0.56-9.19-5.52-7.79c-2.18,0.5-8.26,3.7-9.11,0.22c-2.19,3.88,2.14,3.2,3.45,3.12   c-0.52,0.36-1.17,0.94-2.79,0.6C22.9,59.67,10.38,67.62,6.76,69.62C11.62,71.88,19.08,67.17,19.19,67.17L19.19,67.17z    M22.76,110.54c-1.18-0.5-2.46-0.83-3.55-1.57c0.77,2.58,1.33,4.84,2.77,7.57C22.79,118.09,24.21,114.35,22.76,110.54L22.76,110.54   z"/>
</g>
</svg>