<?xml version="1.0" encoding="utf-8"?>
<!-- Generator: Adobe Illustrator 16.0.4, SVG Export Plug-In . SVG Version: 6.00 Build 0)  -->
<!DOCTYPE svg PUBLIC "-//W3C//DTD SVG 1.1//EN" "http://www.w3.org/Graphics/SVG/1.1/DTD/svg11.dtd">
<svg version="1.1" id="Layer_1" xmlns="http://www.w3.org/2000/svg" xmlns:xlink="http://www.w3.org/1999/xlink" x="0px" y="0px"
	 width="404.371px" height="58.07px" viewBox="0 0 404.371 58.07" enable-background="new 0 0 404.371 58.07" xml:space="preserve">
<g>
	<rect x="291.88" y="1.42" fill="#FFFFFF" width="1.25" height="55.891"/>
</g>
<g>
	<path fill="#FFFFFF" d="M305.5,1.83h5.76c1.602,0,2.84,0.45,3.67,1.28c0.701,0.7,1.08,1.689,1.08,2.88v0.04
		c0,2.03-1.1,3.31-2.699,3.91l3.08,4.5h-3.24l-2.699-4.03h-2.182v4.03h-2.77V1.83z M311.08,7.96c1.35,0,2.121-0.72,2.121-1.779V6.14
		c0-1.19-0.83-1.801-2.182-1.801h-2.75v3.62H311.08z"/>
	<path fill="#FFFFFF" d="M317.57,9.67V9.63c0-2.75,1.961-5.02,4.77-5.02c3.221,0,4.701,2.5,4.701,5.24c0,0.22-0.021,0.47-0.041,0.72
		h-6.719c0.27,1.24,1.129,1.89,2.359,1.89c0.92,0,1.58-0.29,2.34-0.99l1.57,1.391c-0.9,1.12-2.201,1.8-3.939,1.8
		C319.72,14.65,317.57,12.62,317.57,9.67z M324.38,8.86c-0.16-1.22-0.881-2.05-2.041-2.05c-1.129,0-1.869,0.81-2.09,2.05H324.38z"/>
	<path fill="#FFFFFF" d="M328.179,13.16l1.17-1.8c1.041,0.76,2.141,1.149,3.041,1.149c0.789,0,1.15-0.29,1.15-0.72v-0.04
		c0-0.59-0.941-0.79-2-1.12c-1.35-0.399-2.881-1.029-2.881-2.899V7.7c0-1.96,1.58-3.06,3.531-3.06c1.219,0,2.559,0.409,3.6,1.119
		L334.75,7.65c-0.959-0.561-1.91-0.9-2.609-0.9c-0.67,0-1.01,0.29-1.01,0.67v0.04c0,0.54,0.92,0.79,1.959,1.15
		c1.352,0.45,2.92,1.1,2.92,2.859v0.04c0,2.141-1.6,3.11-3.689,3.11C330.97,14.62,329.451,14.17,328.179,13.16z"/>
	<path fill="#FFFFFF" d="M337.371,9.67V9.63c0-2.75,1.959-5.02,4.77-5.02c3.221,0,4.699,2.5,4.699,5.24c0,0.22-0.02,0.47-0.039,0.72
		h-6.721c0.27,1.24,1.131,1.89,2.361,1.89c0.92,0,1.578-0.29,2.34-0.99l1.568,1.391c-0.898,1.12-2.199,1.8-3.939,1.8
		C339.519,14.65,337.371,12.62,337.371,9.67z M344.179,8.86c-0.16-1.22-0.879-2.05-2.039-2.05c-1.131,0-1.871,0.81-2.09,2.05
		H344.179z"/>
	<path fill="#FFFFFF" d="M348.169,11.67v-0.04c0-2.109,1.6-3.08,3.891-3.08c0.971,0,1.67,0.16,2.359,0.4V8.78
		c0-1.13-0.699-1.76-2.07-1.76c-1.039,0-1.779,0.199-2.658,0.52L349,5.45c1.061-0.47,2.111-0.77,3.74-0.77
		c1.49,0,2.57,0.399,3.26,1.079c0.721,0.721,1.041,1.78,1.041,3.08v5.601h-2.65V13.4c-0.67,0.74-1.58,1.22-2.92,1.22
		C349.669,14.62,348.169,13.57,348.169,11.67z M354.46,11.03v-0.49c-0.471-0.22-1.08-0.359-1.75-0.359
		c-1.17,0-1.891,0.47-1.891,1.329v0.04c0,0.74,0.609,1.17,1.49,1.17C353.589,12.73,354.46,12.02,354.46,11.03z"/>
	<path fill="#FFFFFF" d="M359.419,4.79h2.74v1.94c0.561-1.33,1.461-2.2,3.08-2.12v2.859h-0.141c-1.818,0-2.939,1.101-2.939,3.4v3.57
		h-2.74V4.79L359.419,4.79z"/>
	<path fill="#FFFFFF" d="M366.32,9.67V9.63c0-2.75,2.109-5.02,5.061-5.02c1.82,0,2.949,0.609,3.85,1.62l-1.68,1.8
		c-0.609-0.65-1.221-1.061-2.201-1.061c-1.369,0-2.34,1.211-2.34,2.631v0.04c0,1.479,0.961,2.67,2.451,2.67
		c0.92,0,1.549-0.4,2.209-1.03l1.6,1.62c-0.939,1.03-2.02,1.76-3.939,1.76C368.441,14.65,366.32,12.42,366.32,9.67z"/>
	<path fill="#FFFFFF" d="M376.919,1.29h2.74v4.86c0.631-0.811,1.439-1.55,2.83-1.55c2.07,0,3.279,1.369,3.279,3.58v6.25h-2.738V9.05
		c0-1.3-0.611-1.96-1.66-1.96c-1.041,0-1.711,0.67-1.711,1.96v5.381h-2.74V1.29z"/>
</g>
<g>
	<path fill="#FFFFFF" d="M304.94,29.18v-0.04c0-3.58,2.7-6.521,6.569-6.521c2.381,0,3.801,0.79,4.971,1.95l-1.76,2.03
		c-0.971-0.881-1.961-1.42-3.221-1.42c-2.119,0-3.66,1.76-3.66,3.92v0.04c0,2.159,1.49,3.96,3.66,3.96c1.441,0,2.32-0.58,3.311-1.48
		l1.76,1.78c-1.289,1.39-2.74,2.25-5.17,2.25C307.691,35.66,304.94,32.8,304.94,29.18z"/>
	<path fill="#FFFFFF" d="M317.72,30.67v-0.04c0-2.77,2.23-5.02,5.24-5.02c2.99,0,5.199,2.21,5.199,4.99v0.04
		c0,2.77-2.23,5.02-5.24,5.02C319.929,35.66,317.72,33.44,317.72,30.67z M325.46,30.67v-0.04c0-1.42-1.031-2.66-2.541-2.66
		c-1.57,0-2.5,1.211-2.5,2.631v0.04c0,1.42,1.031,2.67,2.541,2.67C324.519,33.3,325.46,32.09,325.46,30.67z"/>
	<path fill="#FFFFFF" d="M330.121,25.79h2.74v1.37c0.629-0.81,1.459-1.55,2.85-1.55c1.26,0,2.209,0.56,2.719,1.53
		c0.852-0.99,1.861-1.53,3.17-1.53c2.041,0,3.262,1.22,3.262,3.55v6.28h-2.74v-5.38c0-1.301-0.58-1.96-1.602-1.96
		c-1.029,0-1.658,0.67-1.658,1.96v5.38h-2.74v-5.38c0-1.301-0.58-1.96-1.602-1.96c-1.029,0-1.658,0.67-1.658,1.96v5.38h-2.74V25.79
		L330.121,25.79z"/>
	<path fill="#FFFFFF" d="M347.269,25.79h2.74v1.391c0.67-0.9,1.59-1.57,3.01-1.57c2.25,0,4.391,1.76,4.391,4.99v0.04
		c0,3.22-2.109,4.989-4.391,4.989c-1.459,0-2.359-0.67-3.01-1.439v4.14h-2.74V25.79z M354.669,30.64V30.6
		c0-1.601-1.08-2.66-2.359-2.66s-2.34,1.06-2.34,2.66v0.04c0,1.6,1.061,2.67,2.34,2.67C353.589,33.3,354.669,32.26,354.669,30.64z"
		/>
	<path fill="#FFFFFF" d="M359.349,32.04v-6.25h2.74v5.38c0,1.3,0.611,1.96,1.66,1.96c1.051,0,1.711-0.67,1.711-1.96v-5.38h2.74v9.65
		h-2.74v-1.37c-0.631,0.81-1.441,1.55-2.83,1.55C360.56,35.62,359.349,34.25,359.349,32.04z"/>
	<path fill="#FFFFFF" d="M371.121,32.71V28.14h-1.15V25.8h1.15v-2.47h2.74v2.47h2.27v2.341h-2.27v4.119
		c0,0.631,0.27,0.94,0.879,0.94c0.5,0,0.961-0.13,1.35-0.34v2.2c-0.58,0.34-1.24,0.56-2.16,0.56
		C372.259,35.6,371.121,34.94,371.121,32.71z"/>
	<path fill="#FFFFFF" d="M378.179,22.3h2.881v2.431h-2.881V22.3z M378.25,25.79h2.74v9.65h-2.74V25.79z"/>
	<path fill="#FFFFFF" d="M383.509,25.79h2.74v1.37c0.631-0.81,1.441-1.55,2.83-1.55c2.07,0,3.281,1.37,3.281,3.58v6.25h-2.74v-5.38
		c0-1.301-0.611-1.96-1.66-1.96c-1.051,0-1.711,0.67-1.711,1.96v5.38h-2.74V25.79z"/>
	<path fill="#FFFFFF" d="M394.72,37.35l0.939-2.051c0.99,0.561,1.98,0.881,3.26,0.881c1.871,0,2.75-0.9,2.75-2.631v-0.47
		c-0.809,0.97-1.689,1.57-3.15,1.57c-2.25,0-4.289-1.641-4.289-4.5v-0.04c0-2.88,2.07-4.5,4.289-4.5c1.49,0,2.381,0.63,3.121,1.439
		v-1.26h2.74v7.47c0,1.73-0.41,2.99-1.221,3.801c-0.9,0.899-2.289,1.3-4.16,1.3C397.419,38.36,395.951,38,394.72,37.35z
		 M401.669,30.15v-0.04c0-1.311-1.029-2.23-2.359-2.23s-2.34,0.92-2.34,2.23v0.04c0,1.33,1.01,2.229,2.34,2.229
		C400.65,32.38,401.669,31.46,401.669,30.15z"/>
</g>
<g>
	<path fill="#FFFFFF" d="M304.94,50.18v-0.04c0-3.58,2.7-6.521,6.569-6.521c2.381,0,3.801,0.79,4.971,1.95l-1.76,2.03
		c-0.971-0.881-1.961-1.42-3.221-1.42c-2.119,0-3.66,1.76-3.66,3.92v0.04c0,2.159,1.49,3.96,3.66,3.96c1.441,0,2.32-0.58,3.311-1.48
		l1.76,1.78c-1.289,1.39-2.74,2.25-5.17,2.25C307.691,56.66,304.94,53.8,304.94,50.18z"/>
	<path fill="#FFFFFF" d="M317.75,51.68v-0.04c0-2.75,1.961-5.021,4.77-5.021c3.221,0,4.701,2.5,4.701,5.24
		c0,0.22-0.02,0.47-0.041,0.72h-6.719c0.27,1.24,1.129,1.89,2.359,1.89c0.92,0,1.58-0.289,2.34-0.989l1.57,1.39
		c-0.9,1.12-2.199,1.8-3.939,1.8C319.9,56.66,317.75,54.63,317.75,51.68z M324.56,50.87c-0.16-1.22-0.881-2.05-2.041-2.05
		c-1.129,0-1.869,0.81-2.09,2.05H324.56z"/>
	<path fill="#FFFFFF" d="M329.201,46.8h2.74v1.37c0.629-0.81,1.439-1.55,2.828-1.55c2.07,0,3.281,1.37,3.281,3.58v6.25h-2.74v-5.38
		c0-1.3-0.609-1.96-1.66-1.96s-1.709,0.67-1.709,1.96v5.38h-2.74V46.8z"/>
	<path fill="#FFFFFF" d="M340.791,53.71V49.14h-1.15V46.8h1.15v-2.47h2.74v2.47h2.27v2.341h-2.27v4.119
		c0,0.631,0.27,0.94,0.879,0.94c0.5,0,0.961-0.13,1.35-0.34v2.2c-0.58,0.34-1.24,0.56-2.16,0.56
		C341.929,56.61,340.791,55.94,340.791,53.71z"/>
	<path fill="#FFFFFF" d="M347.201,51.68v-0.04c0-2.75,1.959-5.021,4.77-5.021c3.221,0,4.699,2.5,4.699,5.24
		c0,0.22-0.02,0.47-0.039,0.72h-6.721c0.27,1.24,1.131,1.89,2.359,1.89c0.922,0,1.58-0.289,2.342-0.989l1.568,1.39
		c-0.898,1.12-2.199,1.8-3.939,1.8C349.339,56.66,347.201,54.63,347.201,51.68z M354.009,50.87c-0.16-1.22-0.879-2.05-2.039-2.05
		c-1.131,0-1.871,0.81-2.09,2.05H354.009z"/>
	<path fill="#FFFFFF" d="M358.65,46.8h2.74v1.94c0.561-1.33,1.459-2.2,3.08-2.12v2.86h-0.141c-1.82,0-2.939,1.1-2.939,3.399v3.57
		h-2.74V46.8L358.65,46.8z"/>
</g>
<g>
	<path fill="#FFFFFF" d="M15.22,13.1c-0.18,0.14,0.21,0.33,0.18,0.319c0.01,0.57-0.07,1.15,0.12,1.44c0.12,0.18,0.49,0.31,0.56,0.14
		c0.06-0.17,0.34-0.53,0.41-0.59c0.12-0.11,0.01-0.2-0.08-0.1c-0.2,0.22-0.32,0.12-0.47-0.03c-0.07-0.08-0.1-0.88-0.05-0.9
		c0,0,0.38-0.06,0.46-0.06c0.07,0,0.06-0.22-0.01-0.22c-0.11,0-0.45,0-0.46-0.051c-0.04-0.109,0.07-0.649,0.08-0.89
		c0.02-0.17-0.07-0.22-0.12-0.06C15.79,12.26,15.43,12.94,15.22,13.1 M16.21,11.07c0.22-0.021,0.57,0.11,0.96,0.08
		c0.46-0.04,0.83-0.771,0.62-1.34c-0.19-0.54-0.78-0.45-1.17-0.58C16.25,9.13,16.1,8.89,16.5,8.62c0.47-0.31,1.05,0.19,1.1,0.29
		c0.09,0.16,0.16,0.16,0.16-0.05c0.01-0.45-0.03-0.2-0.07-0.62c-0.01-0.15-0.12-0.17-0.13-0.021c-0.01,0.15-0.19,0.101-0.32,0.101
		c-0.13,0-0.53-0.07-0.86,0.13c-0.21,0.13-0.71,0.52-0.43,1c0.16,0.28,1.1,0.5,1.34,0.66c0.24,0.16,0.29,0.56,0.06,0.75
		c-0.28,0.229-1.04,0.04-1.16-0.101c-0.15-0.18-0.21-0.319-0.25-0.52c-0.03-0.21-0.2-0.19-0.2,0s0.04,0.84,0.08,0.99
		c0.03,0.16,0.19,0.109,0.2-0.011C16.04,11.11,16.11,11.08,16.21,11.07 M17.29,11.69c-0.08,0.17-0.22,0.33-0.47,0.439
		c0.15,0.141,0.35,0.311,0.48,0.4c0.15-0.17,0.29-0.33,0.46-0.5C17.59,12,17.39,11.92,17.29,11.69 M14.94,11.44
		c0.16-0.13,0.28-0.351,0.34-0.4c0.12-0.1,0.02-0.21-0.08-0.109c-0.08,0.079-0.3-0.11-0.31-0.12c-0.07-0.08-0.17-1.19-0.12-1.21
		c0,0,0.69-0.091,0.78-0.091c0.07,0,0.08-0.22,0-0.22c-0.11,0-0.63,0.07-0.65,0.021C14.87,9.19,14.8,8.8,14.97,8.46
		c0.08-0.149,0-0.29-0.06-0.14c-0.06,0.149-0.49,0.84-0.77,0.95c-0.23,0.1-0.2,0.149-0.05,0.189c0.12,0.021,0.24,0.17,0.21,0.16
		c-0.02,0.57-0.08,1.271,0.1,1.561C14.5,11.37,14.8,11.56,14.94,11.44 M13.04,12.61c-0.17,0.17-0.31,0.32-0.56,0.52
		c0.12,0.141,0.32,0.311,0.33,0.551c0.02,0.239,0.01,1.359,0.02,1.64c0.19,0,0.15,0.02,0.47,0.01c-0.03-0.189,0-1.64,0-1.85
		c0.12-0.12,0.14-0.13,0.27-0.24c0.1,0.09,0.33,0.14,0.33,0.3s0.05,0.84-0.01,1.101c-0.07,0.31-0.04,0.529,0.13,0.85
		c0.12-0.14,0.59-0.47,0.69-0.56c0.1-0.091,0.05-0.15-0.08-0.12c-0.14,0.029-0.16,0.06-0.16-0.03c0-0.17-0.06-0.92-0.07-1.41
		c-0.02-0.479-0.25-0.62-0.38-0.689c-0.13,0.149-0.44,0.35-0.62,0.5C13.26,13.09,13.19,12.86,13.04,12.61 M11.22,12.94
		c0.08,0.21,0.34,0.609,0.45,0.68c-0.2,0.21-0.69,0.55-0.82,0.64C10.6,13.94,10.46,13.42,11.22,12.94 M10.36,13.92
		c-0.12,0.91,0.72,1.45,1.12,1.62c0.1-0.21,0.3-0.55,0.51-0.78c0.15-0.18-0.02-0.229-0.15-0.09c-0.19,0.21-0.74,0.011-0.88-0.26
		c0.27-0.21,0.96-0.8,1.26-1.06c-0.2-0.19-0.51-0.67-0.56-0.94C11.39,12.6,10.5,12.98,10.36,13.92 M10.13,9.56
		c-0.32,0.5-0.5,1.3,0.06,1.77c0.26,0.22,0.48,0.4,1.01,0.3c0.11-0.22,0.15-0.29,0.34-0.54c-0.37,0.061-0.65-0.01-0.92-0.22
		c-0.55-0.439-0.38-1.15-0.22-1.39c0.3-0.46,0.72,0.189,0.8,0.279c0.1-0.119,0.27-0.29,0.44-0.43c-0.17-0.22-0.3-0.43-0.41-0.57
		C10.88,8.9,10.36,9.219,10.13,9.56 M12.71,8.21c-0.04-0.06-0.12-0.149-0.13-0.26c0-0.07,0.01-0.85,0.01-0.95
		c0-0.09-0.18-0.08-0.18,0C12.4,7.14,12.42,7.37,12.3,7.57c-0.33,0.53-0.97,0.75-1.41,0.1c-0.15-0.21-0.19-0.54-0.21-0.77
		c-0.03-0.311,0.2-0.71,0.21-0.75c0.57-0.76,1.35-0.2,1.42,0.109c0.04,0.21,0.09,0.46,0.09,0.591c0,0.09,0.18,0.08,0.18-0.011
		c0-0.09,0-1.27,0-1.35s-0.15-0.1-0.15,0c-0.01,0.18-0.11,0.2-0.25,0.16c-0.29-0.09-0.92-0.23-1.29-0.01
		C10.57,5.84,10.07,6.3,10.08,6.88c0.01,0.95,0.36,1.03,0.77,1.29c0.38,0.23,0.91,0.08,1.39-0.06c0.19-0.05,0.21,0.07,0.31,0.21
		C12.69,8.52,12.82,8.39,12.71,8.21 M12.98,10.95c0,0.07,0,0.13,0,0.19c-0.07,0.02-0.14,0.029-0.24,0.079
		c-0.13-0.109-0.73-0.319-0.34-0.649c0.24,0.149,0.34,0.03,0.57-0.12C12.98,10.68,12.98,10.88,12.98,10.95 M12.98,10.3
		c-0.35,0.23-0.46,0.23-0.7-0.05c-0.12-0.14-0.11-0.41-0.05-0.51c0.11-0.17,0.3-0.35,0.39-0.35C12.7,9.4,12.98,9.75,12.96,9.9
		C12.96,9.98,12.97,10.14,12.98,10.3 M12.95,8.99c-0.31,0.03-0.76,0.41-0.9,0.729C12,9.85,12.07,10.32,12.13,10.37
		c0.04,0.04,0.07,0.061,0.11,0.09c-0.21,0.2-0.4,0.36-0.39,0.66c0.01,0.28,0.23,0.53,0.51,0.66c0.15-0.24,0.39-0.38,0.64-0.44
		c0.02,0.221,0.07,0.391,0.22,0.5c0.1-0.12,0.51-0.479,0.59-0.56c0.09-0.08,0.02-0.19-0.08-0.08c-0.06,0.06-0.21-0.03-0.25-0.1
		c0-0.12,0-1.42,0.05-1.471C13.33,9.41,13.16,8.969,12.95,8.99 M15.23,5.83c0.12-0.12-0.01-0.21-0.12-0.11
		c-0.08-0.1-0.29-0.319-0.4-0.46c-0.12,0.101-0.39,0.271-0.54,0.36c-0.12-0.14-0.27-0.14-0.5-0.33c-0.13,0.101-0.42,0.32-0.58,0.521
		c0.28,0.08,0.48,0.1,0.5,0.34c0.01,0.2-0.02,1.42,0,1.64c0.15,0.03,0.33,0.021,0.54,0.01c0.02-0.17,0.01-1.699,0.01-1.869
		C14.22,5.88,14.3,5.84,14.34,5.8c0.09,0.07,0.26,0.33,0.4,0.41C14.83,6.13,15.11,5.96,15.23,5.83 M16.06,6.37
		c-0.18-0.6-0.11-0.81,0.25-1.11c0.08,0.21,0.29,0.36,0.41,0.431C16.51,5.9,16.19,6.27,16.06,6.37 M17.24,7.11
		C16.52,7.3,16.18,6.7,16.11,6.54c0.29-0.31,0.79-0.81,1.09-1.06c-0.2-0.19-0.28-0.5-0.64-0.53c-0.31,0.01-1.03,0.37-1.16,1.31
		c-0.12,0.9,0.7,1.391,1.36,1.421c0.22,0,0.49-0.29,0.62-0.36C17.68,7.18,17.57,7.04,17.24,7.11 M19.27,6.02
		c-0.04,0.04-0.17,0.14-0.3,0.25c-0.08,0.01-0.16,0.02-0.24,0.01c-0.25-0.04-0.37-0.23-0.48-0.38c-0.12-0.16,0.19-0.29,0.33-0.28
		C18.74,5.64,19.07,5.83,19.27,6.02 M18.75,6.73c0.16,0.069,0.33,0.149,0.51,0.26c0.26,0.15,0.13,0.44-0.16,0.58s-0.8-0.25-0.88-0.4
		C18.33,7.07,18.53,6.91,18.75,6.73 M19.99,5.68c-0.2-0.141-0.42-0.48-0.9-0.5c-0.48-0.021-1.03,0.43-1.21,0.71
		C17.64,6.26,17.93,6.59,18.24,6.84c-0.2,0.17-0.47,0.44-0.72,0.681c0.1,0.109,0.66,0.38,0.97,0.38c0.47-0.01,0.91-0.26,1.17-0.48
		C20.15,7.02,19.98,6.6,19.48,6.3c-0.05-0.029-0.09-0.04-0.14-0.05C19.65,6,19.92,5.77,19.99,5.68 M20.59,8.58L20.3,8.27L20,8.54
		v0.37l0.18,0.19h0.18l0.22-0.2V8.58H20.59z M20.46,6.45c-0.11-0.01-0.29,0.32,0.39,0.29C20.96,6.74,21.04,6.49,20.46,6.45
		 M20.45,6.88c-0.12-0.01-0.3,0.21,0.39,0.29C20.94,7.17,21.09,6.92,20.45,6.88 M20.89,11.6l0.25-0.28
		c-0.29-0.05-0.29-0.04-0.44-0.18l0.01-1.351l-0.25-0.38L20.33,9.43l-0.57,0.539c-0.15,0.141-0.02,0.211,0.16,0.051l0.29,0.18
		l0.01,1.27c0.03,0.15,0.16,0.211,0.34,0.4L20.89,11.6z M19.14,14.01c0.21,0.15,0.33,0.131,0.6,0.101
		c-0.01,0.149-0.02,0.29-0.02,0.35c0,0.07,0.03,0.12,0.04,0.17c-0.14,0.051-0.31,0.08-0.45,0.15C19.2,14.67,18.74,14.35,19.14,14.01
		 M19.76,13.96c-0.23,0-0.43-0.069-0.68-0.3c-0.05-0.04-0.09-0.34-0.04-0.43c0.11-0.181,0.11-0.24,0.21-0.24
		c0.07,0,0.54,0.29,0.52,0.44C19.78,13.55,19.77,13.76,19.76,13.96 M18.95,13.85c-0.2,0.22-0.36,0.46-0.36,0.76
		c0.01,0.29,0.1,0.58,0.39,0.71c0.25-0.19,0.58-0.42,0.89-0.48c0.15,0.19,0.39,0.32,0.53,0.431c0.1-0.12,0.41-0.38,0.5-0.46
		c0.08-0.091,0-0.21-0.09-0.091c-0.07,0.11-0.29,0.03-0.35-0.079c0-0.12-0.11-1.421-0.06-1.48c-0.18-0.21-0.5-0.68-0.71-0.66
		c-0.31,0.03-0.77,0.48-0.87,0.63c-0.08,0.11,0.02,0.65,0.08,0.7C18.93,13.83,18.94,13.84,18.95,13.85 M18.13,10.77
		c0.19,0.56,0.64,0.739,0.98,0.76c0.1-0.19,0.29-0.48,0.39-0.62c0.15-0.21,0-0.33-0.11-0.09c-0.08,0.18-0.52-0.021-0.68-0.17
		c-0.21-0.2-0.34-0.74-0.18-0.931c0.17-0.189,0.42-0.1,0.73-0.109C19.47,9.6,19.51,9.4,19.55,9.3c-0.1-0.05-0.25-0.14-0.45-0.26
		c-0.21,0.13-0.52,0.41-0.66,0.53C18.29,9.71,17.94,10.219,18.13,10.77 M18.01,14.83l0.25-0.28c-0.28-0.05-0.15-0.05-0.3-0.189
		l-0.01-1.17l-0.36-0.55l-0.14,0.02l-0.57,0.54c-0.15,0.13-0.02,0.2,0.16,0.05l0.38,0.2l0.01,1.24c0.03,0.149,0.16,0.189,0.35,0.38
		L18.01,14.83z M22.74,21.56c0,0,0.23-0.261,0.23-0.44c0-0.25-0.23-0.43-0.23-0.43c0.2,0.06,0.66,0.33,0.82,0.439L22.74,21.56z
		 M24.2,21.11v-0.03c-0.51-0.08-0.91-0.439-1.37-0.62c-0.64-0.25-1.33,0.26-1.33,0.34c0,0.181,0.18,0.271,0.7-0.069
		c-0.41,0.489,0.05,0.88,0.05,0.88c-0.17-0.03-0.41-0.08-0.57-0.18c-0.03,0.18,0.2,0.239,0.31,0.319
		C22.87,22.12,23.44,21.26,24.2,21.11 M30.04,12.98c-0.13,0.14-0.37,0.3-0.58,0.55c0.18,0.01,0.33,0.05,0.42,0.229
		c0.09,0.181,0.01,0.921,0.03,1.2c0.01,0.28,0.18,0.34,0.39,0.57c0.21-0.061,0.81-0.311,1.01-0.45c-0.02,0.23,0.26,0.48,0.43,0.53
		c0.11-0.12,0.23-0.19,0.4-0.351c-0.16-0.109-0.14-0.119-0.2-0.34c-0.05-0.21,0.01-1,0.02-1.34c-0.13-0.2-0.33-0.43-0.55-0.59
		c-0.15,0.14-0.35,0.33-0.59,0.58c0.18-0.021,0.52,0.05,0.54,0.2c0.01,0.199,0.04,0.63,0,0.96c-0.04,0.34-0.92,0.18-0.93-0.04
		c-0.02-0.23,0.04-0.9,0.05-1.221C30.35,13.26,30.27,13.15,30.04,12.98 M30.48,10.37c0.06-0.33,0.29-0.47,0.4-0.57
		c0.15,0.17,0.3,0.36,0.52,0.36c0.22,0,0.44-0.1,0.51-0.19c-0.18-0.149-0.59-0.59-0.67-0.67c-0.21,0.12-1.11,0.601-1.18,1.15
		c-0.11,0.82,0.14,0.98,0.49,1.43c0.2,0.25,0.52,0.271,0.67,0.23c0.16-0.11,0.75-0.69,0.82-0.76c0.06-0.07-0.03-0.131-0.1-0.061
		S31.9,11.39,31.8,11.4c-0.1,0.02-0.5,0.08-0.73-0.04C30.77,11.19,30.4,10.82,30.48,10.37 M27.97,10.28
		c0.02,0.55-0.26,1.13-0.56,1.39c0.52-0.14,0.59-0.46,0.88-0.84c0.16,0.24,0.45,0.53,0.67,0.66c0.15-0.1,0.58-0.6,0.67-0.7
		c-0.31-0.09-0.91-0.41-1.06-0.75c-0.12-0.25-0.09-0.37,0.03-0.58c0.1,0.141,0.83,0.49,1.16-0.09C29.41,9.24,29.08,9,28.98,8.8
		c-0.1,0.08-0.42,0.44-0.59,0.551c-0.04-0.2-0.34-0.41-0.57-0.45c-0.08,0.08-0.64,0.52-0.89,0.649c-0.08,0.04-0.05,0.221,0.06,0.17
		c0.1-0.05,0.28-0.18,0.48-0.279C27.69,9.54,27.95,9.78,27.97,10.28 M27.87,12.92c-0.21,0.11,0.29,0.311,0.25,0.3
		c-0.01,0.58-0.12,1.53,0.07,1.841c0.12,0.18,0.39,0.31,0.58,0.229c0.18-0.07,0.4-0.43,0.47-0.49c0.13-0.1,0.02-0.21-0.09-0.1
		c-0.11,0.1-0.4,0.03-0.44-0.08c-0.03-0.11-0.07-1.38-0.02-1.41c0,0,0.35-0.01,0.45,0c0.07,0,0.08-0.229,0.01-0.229
		c-0.13,0-0.41-0.03-0.43-0.08c-0.04-0.12,0.01-0.51,0.08-0.66c0.08-0.16-0.07-0.23-0.12-0.07C28.62,12.33,28.25,12.73,27.87,12.92
		 M25.84,13.3c0.12-0.189,0.2-0.229,0.29-0.229c0.09,0.01,0.42,0.24,0.41,0.399c0.02,0.101,0.02,0.32,0.02,0.54
		c-0.25,0.03-0.43,0.061-0.71-0.18C25.8,13.79,25.78,13.4,25.84,13.3 M25.99,14.16c0.19,0.11,0.28,0.04,0.57,0.01
		c0,0.181-0.01,0.351-0.01,0.44c-0.13,0.09-0.28,0.17-0.46,0.26C25.95,14.75,25.74,14.65,25.99,14.16 M25.76,13.98
		c-0.16,0.149-0.43,0.54-0.43,0.83s0.14,0.58,0.31,0.739c0.28-0.199,0.46-0.479,0.93-0.67c0.06,0.23,0.21,0.261,0.4,0.4
		c0.11-0.12,0.51-0.63,0.6-0.72c0.09-0.091,0.04-0.181-0.09-0.091c-0.13,0.091-0.21,0.03-0.42-0.199c0.01-0.13-0.01-1.16,0.04-1.221
		c-0.19-0.21-0.37-0.5-0.6-0.479c-0.33,0.03-0.75,0.62-0.86,0.78c-0.08,0.109,0,0.529,0.07,0.59
		C25.73,13.96,25.74,13.96,25.76,13.98 M23.83,12.02c0.01,0.279,0.11,2.68,0.08,3.02c-0.02,0.19,0.23,0.391,0.46,0.55
		c0.11-0.14,0.35-0.5,0.55-0.649c0.12-0.101,0.04-0.16-0.06-0.13c-0.18,0.09-0.36,0.02-0.38-0.19s-0.02-2.28,0-2.58
		C24.35,12.04,23.96,12.03,23.83,12.02 M23.66,10.27c0.01,0.979,0.39,1.069,0.83,1.319c0.41,0.24,1.1,0.19,1.62,0.051
		c0.2-0.061,0.3-0.07,0.3,0.1c0,0.11,0.15,0.08,0.15,0s0.01-0.91,0.01-1c0-0.1-0.15-0.09-0.15,0c0,0.14,0,0.18-0.13,0.38
		c-0.36,0.54-1.25,0.521-1.73-0.14c-0.16-0.23-0.31-0.53-0.12-0.59c0.19-0.061,0.76,0.06,1.14,0.1c0.23,0.01,0.75,0.07,0.82,0.11
		c0.06,0.04,0.15,0.1,0.15-0.021s0-0.5,0-0.61c0-0.109-0.09-0.06-0.15-0.02c-0.06,0.05-0.63,0.14-0.85,0.18
		c-0.23,0.04-0.92,0.101-1.1,0.04c-0.19-0.06-0.12-0.45,0.04-0.67c0.49-0.66,1.46-0.609,1.82-0.06c0.12,0.189,0.12,0.24,0.12,0.38
		c0,0.09,0.14,0.1,0.14,0c0.01-0.09,0.01-1.09,0.01-1.17s-0.14-0.11-0.14,0c0,0.069-0.16,0.12-0.31,0.069
		c-0.3-0.1-1.19,0.04-1.58,0.261C24.19,9.2,23.65,9.68,23.66,10.27 M27.43,4.56C27.25,4.54,26.65,4.59,26.44,4.63
		c-0.22,0.03-0.22,0.141-0.04,0.16c0.18,0.021,0.21,0.061,0.31,0.3c0.09,0.25-0.34,1.37-0.45,1.641c-0.12-0.19-0.58-1.221-0.58-1.36
		c0-0.1,0.2-0.2,0.29-0.229c0.17-0.051,0.17-0.171,0.04-0.2c-0.36-0.05-1.61-0.17-1.83-0.19c-0.16-0.01-0.23,0.181-0.04,0.181
		c0.2,0.01,0.41-0.061,0.63,0.279c0.25,0.37,1.05,2.13,1.24,2.87c0.09-0.16,0.89-2.52,0.93-2.77C27,5.06,27.17,4.83,27.4,4.76
		C27.63,4.68,27.61,4.57,27.43,4.56 M28.5,4.99l0.24-0.21V4.44l-0.32-0.32L28.1,4.4l0.01,0.39l0.2,0.2H28.5z M28.86,8.07l0.42-0.561
		c-0.3-0.05-0.43-0.109-0.64-0.359l0.01-1.391L28.22,5.32l-0.15,0.02L27.4,5.94C27.33,6.05,27.51,6.05,27.6,5.92l0.49,0.29
		l0.02,1.34c0.04,0.16,0.17,0.32,0.36,0.521H28.86z M31.65,5.69c-0.13,0-0.99,0.02-1.01-0.03c-0.06-0.19-0.08-0.42,0.07-0.74
		c0.07-0.16-0.07-0.229-0.12-0.069c-0.05,0.159-0.48,0.77-0.93,0.96c-0.23,0.09,0.28,0.31,0.25,0.3c0,0.59,0.08,1.47,0.2,1.82
		c0.08,0.21,0.31,0.55,0.47,0.449c0.1-0.069,0.33-0.52,0.4-0.58c0.12-0.1,0-0.279-0.1-0.17c-0.12,0.101-0.21-0.06-0.24-0.17
		c-0.04-0.1-0.14-1.399-0.09-1.42c0,0,1.01-0.13,1.11-0.13C31.72,5.92,31.72,5.69,31.65,5.69 M33.21,8.19
		c-0.14,0.01-0.26,0.05-0.44,0.13c-0.15-0.12-0.52-0.59-0.25-1.12c-0.04-0.02-0.08-0.04-0.12-0.07c0.26,0.15,0.56,0.28,0.79,0.36
		c0,0.21-0.01,0.4-0.01,0.47C33.2,8.05,33.2,8.12,33.21,8.19 M33.21,7.37c-0.27-0.1-0.79-0.35-0.99-0.52
		c-0.05-0.04-0.06-0.07,0.01-0.17c0.12-0.19,0.26-0.351,0.36-0.341c0.08,0,0.62,0.29,0.6,0.45C33.21,6.9,33.21,7.14,33.21,7.37
		 M33.53,8.77l0.54-0.61c0,0-0.24-0.19-0.38-0.38c0-0.13,0-1.35,0.05-1.41c-0.41-0.37-0.71-0.42-0.88-0.4
		C32.53,6.02,32.19,6.46,32.08,6.6c-0.08,0.119-0.06,0.26,0,0.31c0.07,0.06,0.15,0.11,0.24,0.17c-0.02-0.01-0.03-0.02-0.05-0.02
		c-0.15,0.149-0.38,0.58-0.37,0.87c0,0.289,0.26,0.72,0.43,0.88c0.19-0.15,0.48-0.41,0.89-0.49C33.28,8.53,33.38,8.66,33.53,8.77
		 M33.55,12c-0.14-0.069-0.65-0.47-0.77-0.78c-0.15-0.42-0.15-0.88,0.28-1.149c0.34,0.13,0.73,0.47,0.77,0.78
		C33.88,11.25,33.77,11.74,33.55,12 M34.01,11.83c0.15-0.27,0.37-0.72,0.35-1.06c-0.02-0.42-0.27-1.04-0.86-1.24
		c-0.75,0.28-1.22,0.89-1.24,1.61c-0.01,0.42,0.34,1.3,1.06,1.3C33.54,12.23,33.78,11.99,34.01,11.83 M34.72,13.94
		c-0.09-0.11-0.33-0.311-0.55-0.471c-0.12,0.11-0.38,0.301-0.54,0.381c-0.12-0.141-0.28-0.33-0.53-0.53
		c-0.15,0.1-0.57,0.5-0.75,0.61c0.26,0.01,0.65,0.09,0.66,0.34c0.01,0.199-0.01,1.46,0,1.689c0.16,0.04,0.35,0.021,0.58,0
		c0.01-0.18,0.01-1.62,0.01-1.8c0.08-0.04,0.17-0.09,0.21-0.13c0.09,0.07,0.36,0.39,0.52,0.479c0.11-0.079,0.39-0.34,0.51-0.46
		C34.98,13.92,34.84,13.84,34.72,13.94 M34.72,11.29c0.1,0.03,0.27,0.061,0.46,0.07c0.11,0.01,0.08-0.18-0.01-0.22
		c-0.09-0.03-0.29-0.07-0.41-0.07C34.63,11.07,34.57,11.24,34.72,11.29 M35.18,10.71c-0.09-0.04-0.29-0.069-0.42-0.069
		c-0.12,0-0.19,0.18-0.04,0.22c0.1,0.03,0.28,0.06,0.46,0.07C35.31,10.94,35.27,10.75,35.18,10.71 M38.27,41.5
		c-0.24,1.21-0.65,2.34-1.36,3.38c-0.5,0.74-0.7-0.699-0.27-2.09C37.25,42.54,37.86,42.05,38.27,41.5 M37.59,41.74
		c-1.59,1.61-3.97,1.03-5.84,1.89c-1.7,0.641-2.93,2.25-4.71,2.66c-0.52,0.17-0.61,0.44-0.28,0.43c0.2-0.01,1.28,1.16,3.02,0.261
		c0.58-0.3,2.38-1.33,2.69-1.391C31.49,46.55,31,47.4,30.13,47.9c-0.53,0.31-2.71,1.109-4.88,0.67c-0.96-0.19-1.7,0.72-1.46,0.7
		c0.52-0.141,1.09-0.07,1.44,0.399c0.63,0.511,1.54,1.141,2.33,0.2c0.26-0.31,1.51-0.979,2.68,0.24c-1.25-0.07-1.12,2.24-3.48,1.96
		c-0.87-0.01-2.8-2.061-3.35-1.42c-0.98,1.13,2.1,2.2,0.77,3.609c-1.2,1.28-2.64-1.02-2.64-1.02c0.75,0.32,2.13,0.53,1.52-0.72
		c-0.24-0.5-0.7-0.94-0.7-1.86c-0.1-0.46-2.85,3.64-4.67,1.79c-0.71-0.729-2.16-2.32-3.47-2.93c3.47-0.3,4,1.12,4.16,1.35
		c1.11,1.54,2.14-0.02,2.37-0.3c0.36-0.42,0.87-1,0.69-1.09c-1.35-0.66-2.88-0.79-4.03-0.25c2.46-3.471,4.37-0.221,4.37-0.221
		c0.27,0.171-0.07-2.06-2.5-2.18c-1.52-0.08-2.86,1.33-3.9,1.33c-0.85,0-3.43-1.79-4.04-3.39c1.5,1.149,3.42,1.819,4.61,1.09
		c2.25-1.38,5.08,0.7,5.21,0.45c-0.63-0.5-2.06-2.471-5.91-1.351c-1.5,0.88-2.13-0.66-3.05-0.68c1.56-1.43,2.65-0.7,3.19-0.66
		c0.13,0-0.65-0.66-1.2-0.72c-4.26-0.46-6.96-1.66-6.96-1.66c-0.02,0,0.36-0.88,2.19-0.25c0,0-1.64-1.03-1.63-2.36
		c0.05-0.819,0.44-1.699-0.17-2.38c2.47-0.1,0.72,3.44,2.45,4.351c0.04,0.01-0.51-0.851,0.26-1.511c0.36,1.04,1.24,1.58,1.86,1.75
		c0.15-0.08,0.33-0.399,0.33-0.399c-0.65-1.11-0.74-2.4-0.56-3.891l0.03-0.01c0.14,0.01,0.38,0.51,0.55,0.88
		c0.36,0.801,0.35,1.94,1.07,2.891c0.4,0.52,0.64,1.04,1,1.29c0.15-0.37,0.04-1,0.02-1.17c-0.08-0.601-0.45-1.66,0.55-2.591
		c0.47,1.391,1.1,0.99,1.19,1.65c0.12,0.93,0.08,0.78-0.01,1.5c0.05,0.99,0.92,1.26,1.7,1.9c1.75,0.979,2.91,1.51,3.67,2.76
		c0.37-2.11-5.18-2.54-4.46-6.61c-0.07-1.63,0.2-1.76-0.92-2.76c2.23,0.07,3.44,3.82,3.56,4.51c0.22,1.26,0.97,1.33,1.99,2.97
		c0.15,0.061-1.83-4.38,0.53-8.17c0,0,0.79,1.971,0.42,3.261c-0.23,0.779-0.02,1.64,0.03,2.13c0.04,0.5-0.1-1.8,1.58-2.99
		c0.1,0.87,0.92,2.21,0.15,3.66c-0.93,1.75-1,1.12-1.02,3.28c0.08-0.04,0.33-1.49,0.97-2.311c1.35-1.74,0.39-2.67,1.71-4.18
		c0.1,0.75,0.29,0.46,0.37,1.13c0.18,1.51-1.35,3.15-1.02,3.1c0.39-0.06,1.02-0.41,1.23-1.55c0,0,0.56,1.04,0.05,1.39
		c-0.93,0.631-1.13,1.311-0.98,2.07c0.75-0.92,1.77-1.939,1.6-3.25c0.08-0.79,0.92-1.109,1.08-2.95c0.03-0.3,0.32-0.67,0.62-0.84
		c-0.13,1.03,0.65,2.101-0.24,3.36c0.2,0.109,0.95-0.98,2.05-0.58c-2.2,0.41-1.56,2.86-3.24,3.99c-0.51,0.34-0.42,0.729-0.57,0.77
		c1.5-0.09,2.66-1.93,2.87-2.07c1.51-1.05,1.84-1.21,2.45-2.92c0.24-0.649,0.06-0.93,0.9-1.81c0.37,0.86-0.17,2.65-0.29,3.03
		c-0.27,0.819-1.22,1.529-1.02,1.529c4.05-1.84,4-3.069,4.97-4.39c0.29-0.5,1.73-1.38,2.27-1.46c-0.13,0.28-0.69,0.74-0.72,1.24
		c-0.05,0.92-0.34,1.479-0.79,2.22c0.25,0.32,0.74-0.61,1.23-0.14C38.39,40.55,38.1,41.3,37.59,41.74 M33.88,40.44
		C34,40,34,39.71,34.05,39.32c0.02-0.16,0.03-0.14,0.04-0.28c0-0.04,1.15,0.98,1.21,1.021c-0.29,0.37-0.53,0.5-0.81,0.76
		C34.3,40.65,33.87,40.48,33.88,40.44 M34.23,41.07c-0.53,0.479-0.87,0.649-0.76,0.41c0.13-0.261,0.22-0.49,0.3-0.69
		C33.79,40.73,34.23,41.07,34.23,41.07 M39.41,36.45c-0.48,0.13-1.76,0.65-2.07,1.17c0.16-2.83-0.73-5.61-1.01-6.29
		c-0.55-1.31,0.25,3.04,0.3,4.05c0,0.04-4.57-6.04-1.81-1.35c0.72,1.21,1.83,2.01,1.83,2.03c0.02,0.85-0.04,1.47-0.19,1.92
		c-0.28,0.229-6.23-8.13-2.94-2.34c0.41,0.72,2.79,2.89,2.77,2.939c-0.15,0.33-0.42,0.811-0.79,1.17
		c-0.06-0.069-1.37-1.06-1.38-1.12c-0.1-0.649-0.1-1.26-0.88-0.8c0,0-2.93-3.51-1.57-1.05c0.59,1.07,0.98,1.189,1.14,1.38
		c0,0-0.45,0.63-0.6,1.31c-0.06,0.271-2.54-2.829-1.57-0.88c0.31,0.62,1.45,1.301,1.44,1.351c-0.12,0.41-0.23,0.8-0.36,1.05
		c-0.16,0.32-2.34,2.11-2.33,2.11c0,0,0.43-1.41,1.35-2.11c0.53-0.4,0.53-0.31,0.88-0.54c-0.01-0.21-0.2-0.55-0.46-0.64
		c-0.32-0.11-1.35,0.08-1.35,0.08c0.1-0.53-0.35-1.671-0.35-2.931c-0.39,0.04-1.07,0.66-1.23,1.01c-0.12,2.08-0.56,1.461-0.97,2.961
		c-0.45-0.631,0.03-1.53-0.41-2.12c-0.6-0.811-0.69-1.351-0.79-2.351c0.14-0.08,0.76-0.779,0.2-2.25c-0.09-2.31,0.91-3.189-0.88-4.8
		c0.15-0.05,0.26-1.21,0.26-1.21c1.32,0.72,1.06-0.84,1.57-1.15c0.82-0.489,0.67-0.989,0.3-1.619c2.34,0.68-0.11,2.329,0.95,2.359
		c0.77,0.021,1.28-0.17,1.61-0.71c0.35-0.56-0.06-0.899,0.93-1.81c0.1-0.09,0.36-0.7-0.43-0.86c-0.17-0.04,0-0.729,0-0.729
		c-0.63,0.55-0.83,1.319-1.84,0.829c-0.52-0.25-0.85,0-1.07,0.101c0,0-0.11-0.43,0.32-0.58c1.11-0.38,1.38-0.84,1.32-1.08
		c-0.15-0.59-0.2,0-0.16-0.62c0.01-0.25,0.29-0.58,0.53-0.87c0.75-0.93,1.28-0.58,1.48-0.5c0.44-0.35,0.51-0.319,0.92-0.49
		c0.7-0.279,2.2,0.19,3.05,0.591c0.41,0.189,0.9,0.3,1.37,0.199c0,0.25-0.18,0.391-0.35,0.44c-0.26,0.08-0.58,0-0.56,0.2
		c0.01,0.12,0.37,0.14,0.6,0.2c1.25,0.35,2.87,1.5,1.8,1.26c-0.12-0.03,0.77,0.68,1.44,1.609l2.38,2.381
		c-0.11,0.13-0.95,0.01-3.59-2.53c-0.38,0.34,3.22,3.13,4.7,6.08c-0.13,0.09-1.98-0.601-2.64-1.311c-1.03-1.09-2.21-3.859-2.69-3.46
		c-0.06,0.021,1.95,3.24,2.94,5.15c0.5,0.96,0.92,2.35,0.95,3.39c0.16,5.141-0.59,4.74-0.59,4.74c-1.17-4.05-1.72-8.75-3.43-10.92
		C36.79,27.59,39.3,32.25,39.41,36.45 M41.26,8.92c-0.01-0.08-0.03-0.2-0.05-0.37c-0.04-0.27-0.78-0.42-1.3-0.18
		c-0.73,0.33-2.57,1.41-3.24,1.2V6.91c1.65,0.74,2.3,0.07,2.83,0.07c1.63,0,1.71,1.56,1.71,1.56C41.23,8.719,41.25,8.84,41.26,8.92
		 M39.56,12.55c1.44-0.21,1.65,1.53,1.65,1.53l0,0c-0.35-0.29-1.06-0.42-1.54-0.1c-1.6,1.06-3.05,1.069-3.05,1.069V12.39
		C36.62,12.39,36.92,12.95,39.56,12.55 M36.13,17.95c-2.6,0.18-8-1.34-9.38-1.34c-2.83,0-4.2,1.14-4.2,1.14s0-13.21,0-13.689
		c0,0,3.72-1.79,6.43-0.771C32.3,4.55,36.13,4,36.13,4V17.95z M25.35,20.01c0.09,0.53-0.39,0.66-0.39,0.66
		c0.74,0.181,1.1-0.279,1.24-0.56c0.29,1.22-0.91,1.29-1.28,1.359c0,0,0.61,0.181,0.64,0.591c0.08,1.029,0.73,0.939,0.86,0.859
		c-0.02,0.12-0.22,0.75-0.95,0.19c-0.12,0.12,0.2,0.32,0.26,0.83c0.08,0.649,0.06,1.25,0.79,1.64c-0.45,0.36-0.97-0.58-1.02-0.47
		c-0.05,0.13,0.62,0.47-0.12,2.26c-0.34-0.2-0.15-0.16-0.54-0.64c-0.3-0.26-0.42-0.32-0.17,0.109c0.44,0.561,0.54,1.841,0.39,2.181
		c-0.36-0.16-0.27-0.46-0.69-0.86c-0.04,0.17,0.13,1.021,0.57,1.42c0.76,0.7,1.02,1.55,1.04,1.72c0.06,0.641-0.13,1.48-0.21,2.301
		c-0.36-0.051-0.67-1.11-0.76-1.051c-0.11,0.07,0.04,1.04,0.73,1.69c0.33,1,0.2,1.53,0.11,1.57c-0.12,0.05-0.49-1.021-0.69-0.83
		c0.98,2.55,0.29,3.43,0.04,4.22c-0.2-0.8-0.3-1.41-0.56-2.32c-0.53,0.431-0.66,1.061-1.31,1.641c0-1.04-0.58-3.551-1.05-4.13
		c-0.02-0.03-0.84,2.25-1.21,3.26c-0.48,1.31-0.56,2.95,0,4.229c-1.2-1.76-1.33-5.029-0.29-5.47c0.09-0.229-0.06-1-0.29-0.91
		c-0.07,0.38-0.02,0.7-0.33,1.07c-0.8-0.24-0.43-1.24-0.36-1.57c1.03-1.27,0.39-1.569,0.34-1.53c-0.11,0.29-0.21,0.65-0.52,0.78
		c-0.66-1.17-0.24-3.01,1.02-4.38c0.05-0.51-0.56,0.38-0.96,0.35c-0.1-0.989,0.24-2.699,2.02-2.76c-0.34-0.1-0.52-0.17-0.6-0.46
		c0.54-0.08,2.22-0.21,1.95-1.58c-0.16,0.17-0.21,0.41-0.65,0.69c-0.3,0.18-0.62,0.2-0.79-0.07c0.78-0.27,0.52-1.24-0.5-0.96
		c-0.31,0.09-0.77-0.25-0.79-0.62c0.23,0.23,0.69,0.061,0.95-0.12c1.15-0.77,1.85,0.341,2,0.58c0.05,0,0.52-1.109-1.11-1.41
		c-0.14-0.39-0.51-1.079-1.62-0.989c-0.37-1.32-1.47-0.67-1.43-0.07c-1.17-0.89,0.02-2.01,0.49-2.18c0.33,0.029,0.26,1.1,0.83,0.92
		c0.14-0.04-0.45-0.74-0.22-1.05c0.53-0.311,0.52,0.399,0.78,0.13c0.13-0.46,0.65-0.721,1.07-0.771
		C23.27,19.33,24.2,20.68,25.35,20.01 M21.93,17.74c0,0-1.77-0.98-3.84-1.12c-2-0.14-6.05,1.51-9.15,1.29V3.88c0,0,3.54,0.48,5-0.09
		c4.95-1.96,7.99,0.23,7.99,0.23V17.74z M8.31,14.8H6.62V13.1h1.69V14.8z M8.31,8.87H6.62v-1.7h1.69V8.87z M4.64,15.29
		c-1.98,0-1.98-2.979,0-2.979C6.54,12.32,6.56,15.29,4.64,15.29 M4.64,9.34c-1.93,0-1.89-2.979,0-2.979
		C6.54,6.36,6.54,9.34,4.64,9.34 M17.39,23.26c-0.35-0.619,0.42-1.21,0.42-1.21c-0.02,1.74,2.14,0.551,3.27,1.101
		c0.27,0.13,0.46,0.37,0.57,0.63C20.44,22.91,18.19,24.67,17.39,23.26 M11.53,38c0.01,0.601-0.03,1.04,0.14,1.65
		c0.27,0.92,0.14,0.63-0.24,0.319c-0.3-0.34-0.58-0.619-0.72-1.02C10.68,38.67,10.9,38.65,11.53,38 M7.17,25.69l-0.03-0.03
		c-0.04,0-2.82,1.8-4.62,0.94c1.34-0.761,6-3.801,7.27-4.66c0.6,0.13,0.84-0.09,1.04-0.23c-0.49,0.03-2.1,0.29-1.28-1.189
		c0.31,1.33,2.57,0.109,3.39-0.09c2.26-0.54,2.25,1.949,2.05,2.979c-0.07,0.38,0.69,0.65,1.07,0.6
		c-0.65,1.641-1.75,0.091-1.89,0.721c-0.05,0.25-0.79,0.45-0.79,1.08c0.01,0.859,0.33,0.39,0.36,1.06c0.03,0.65-0.27,0.14-0.2,0.84
		c0.11,1.11,1.9-0.149,2.64,0.15c0.37,0.149,0.61,0.49,0.98,0.42c0.1-0.09,0.06-0.51,0.04-0.66c-0.04-0.35-0.67-0.39-0.97-0.88
		c-0.26-0.42,0.29-1.68,0.59-2.06c0.43,2.09,2.33,1.43,2.61,3.63c0.18,0.62-0.65,1.31,0.02,2.319c-0.5,0.5-1.1,2.88-0.05,3.99
		c-0.18,0.5-0.41,1.67,0.52,2.35c-0.31,0.69-0.24,1.53,0.02,2.391c-0.58,0-0.47-3.36-3.96-3.46c-0.08-0.03-0.1,0.38,0,0.56
		c0.42,0.76,0.98,0.71,0.86,2.49c-0.04,0.61-0.39-0.11-0.57-0.27c-0.42-0.381-0.75-0.44-0.93-1.69c-1.42,1.14-1.28,2.53-1.19,3.23
		c0,0-0.31-0.881-0.67-1.78c-0.02-0.05,1.44-1.851,1.67-2.28c2.94-5.45-1.9,1.76-1.91,1.74c-0.26-0.62-0.49-1.16-0.64-1.33
		c0.04-0.08,0.85-1,1.21-1.78c2.28-4.87-1.35,1.62-1.48,1.5c-0.27-0.25-0.5-0.569-0.67-0.46c-0.04,0.75-0.22,0.65-0.17,1.41
		c-0.38,0.52-1.19,1.34-1.76,1.75c0,0-0.14-1.35-0.1-1.4c0.29-0.359,1.41-1.59,1.64-1.96c3.73-6.02-1.75,1.45-1.76,1.391
		c-0.04-0.24-0.34-0.63-0.66-0.971c0,0,1.21-1.689,1.51-2.319c2.27-4.8-1.83,2.13-1.87,2.1c-0.1-0.05-0.11-0.05-0.22-0.09
		s0.12-1.38,0.28-2.19c0.31-1.6-0.52-0.31-0.74,2.221C7.6,35.8,7.09,35.86,6.89,36.04c0.12,0.681,0.28,0.16,0.56,0.811
		c0.33,0.779-0.46,2.05,0.23,2.989c0.27,0.36,0.28,0.301,0.23,0.54c-0.42-0.029-0.68-0.04-0.95,0.341
		c-0.52-2.431-0.5-3.591-0.38-6.061c0.05-1.12,0.41-2.82,0.25-2.85c-0.16-0.03-2.63,6.51-3.23,7.8c-1.04-0.36,0.65-6.03,2.8-8.75
		c0.2-0.87-1.13,0.88-1.92,1.58C3.73,33.06,2.8,33.89,1.8,33.6c1.29-1.4,4.25-4.021,4.58-4.681c0.28-0.56-2.02,1.75-4.44,0.891
		C3.5,28.95,7.16,27.03,7.17,25.69 M7.14,41.63c0.4,0.28,0.88,0.41,1.32,0.601c0.54,1.46,0.01,2.88-0.29,2.29
		C7.64,43.48,7.43,42.62,7.14,41.63 M44.48,33.54V1.12C19.13-1.4,0,1.12,0,1.12s0,32.42,0,32.43C2.02,55.52,22.05,58.1,22.24,58.07
		C25.82,57.4,42.62,53.93,44.48,33.54 M56.26,41.39c0,6,2.81,10.239,6.43,12.8c3.31,2.279,7.2,3.12,11.28,3.12
		c2.9,0,6.16-0.7,7.16-1.07c0.5-0.19,1.04-0.37,1.58-0.47c0.68-0.88,1.86-3.96,2.17-6.38c-0.18-0.33-0.86-0.421-1.18-0.19
		c-1.04,2.75-3.62,6.66-9.47,6.66c-7.43,0-13.45-5.4-13.45-15.17c0-9.63,5.89-14.15,12.82-14.15c6.57,0,8.61,3.63,9.29,6.8
		c0.32,0.28,1,0.23,1.22-0.09c-0.36-2.84-0.59-5.77-0.63-6.84c-0.41,0.05-0.72-0.05-1.27-0.19c-2.13-0.6-5.57-1.119-8.02-1.119
		c-4.71,0-8.92,1.3-12.23,3.949C58.53,31.8,56.26,36.23,56.26,41.39 M69.12,1.08l0.01-0.05l-0.02-0.05
		c-0.07-0.15-0.28-0.16-0.35-0.16c-0.05,0-0.12,0-0.18,0.03l-0.05,0.02L68.5,0.91c-0.24,0.43-0.34,0.47-1.35,0.47h-7.8
		c-0.84,0-1.22-0.04-1.3-0.479l-0.01-0.04l-0.03-0.03c-0.05-0.05-0.14-0.08-0.26-0.08c-0.04,0-0.2,0-0.28,0.061l-0.05,0.04V0.9
		c-0.13,0.77-0.41,2-0.71,2.87l-0.02,0.06l0.03,0.061c0.11,0.229,0.5,0.35,0.71,0.189l0.03-0.02l0.02-0.04
		c0.19-0.45,0.37-0.87,0.81-1.29c0.42-0.391,1.36-0.44,2.22-0.44h1.04c0.42,0,0.42,0,0.42,0.47v8.671c0,2.1-0.12,2.189-1.04,2.279
		l-0.68,0.061l-0.06,0.02c-0.11,0.07-0.17,0.21-0.17,0.391c0.01,0.13,0.06,0.289,0.18,0.359l0.03,0.021h0.04
		c1.16-0.04,1.85-0.061,2.62-0.061c0.74,0,1.35,0.021,2.47,0.061h0.04l0.03-0.021c0.12-0.06,0.18-0.24,0.18-0.38
		c0.01-0.17-0.04-0.3-0.13-0.36l-0.67-0.08c-0.94-0.079-1-0.21-1-2.279V2.73c0-0.2,0-0.391,0.03-0.42c0.03-0.03,0.24-0.03,0.37-0.03
		h1.34c1.01,0,1.7,0.15,2.1,0.46c0.18,0.13,0.33,0.62,0.41,1.31v0.04l0.03,0.03c0.07,0.09,0.2,0.14,0.34,0.14
		c0.18,0,0.33-0.079,0.39-0.21l0.02-0.04v-0.04C68.78,3.41,68.92,1.85,69.12,1.08 M84.64,11.42V4.44c0-2.07,0.06-2.2,1-2.3l0.4-0.04
		l0.07-0.021c0.09-0.06,0.14-0.2,0.13-0.37c0-0.069-0.03-0.3-0.19-0.38l-0.03-0.02h-0.04c-0.91,0.04-1.54,0.06-2.22,0.06
		c-0.82,0-1.48-0.02-2.28-0.06h-0.04l-0.03,0.02c-0.16,0.08-0.18,0.311-0.19,0.37c-0.01,0.17,0.04,0.3,0.13,0.37l0.42,0.06
		c0.96,0.101,1.02,0.23,1.02,2.301V6.66c0,0.47,0,0.47-0.8,0.47h-5.4c-0.8,0-0.8,0-0.8-0.47V4.44c0-2.07,0.06-2.2,1-2.3l0.36-0.04
		l0.06-0.021c0.09-0.07,0.14-0.2,0.13-0.37c0-0.069-0.03-0.29-0.19-0.37l-0.03-0.02h-0.04c-0.86,0.04-1.49,0.06-2.18,0.06
		c-0.49,0-0.92-0.01-1.39-0.029c-0.3-0.011-0.62-0.021-0.98-0.03h-0.04l-0.03,0.02c-0.16,0.08-0.18,0.301-0.19,0.37
		c-0.01,0.17,0.04,0.3,0.13,0.37L72.43,2.1l0.53,0.04c0.83,0.069,0.98,0.239,0.98,2.3v6.979c0,2.021-0.04,2.101-0.98,2.28
		l-0.36,0.07L72.57,13.8c-0.11,0.11-0.12,0.29-0.1,0.42c0.02,0.141,0.09,0.25,0.18,0.301l0.03,0.02h0.04
		c0.26-0.01,0.51-0.02,0.75-0.02c0.45-0.021,0.91-0.03,1.43-0.03c0.71,0,1.31,0.02,2.39,0.06h0.04l0.03-0.02
		c0.12-0.061,0.18-0.24,0.18-0.38c0.01-0.17-0.04-0.3-0.13-0.36l-0.61-0.08c-0.9-0.1-1.02-0.189-1.02-2.279V8.68
		c0-0.471,0-0.471,0.8-0.471H82c0.8,0,0.8,0,0.8,0.471v2.739c0,2.061-0.02,2.11-1.03,2.28l-0.41,0.06l-0.03,0.03
		c-0.11,0.11-0.12,0.29-0.1,0.42c0.02,0.141,0.09,0.25,0.18,0.3l0.03,0.021h0.04c0.9-0.04,1.56-0.061,2.28-0.061
		c0.74,0,1.4,0.021,2.28,0.061h0.04l0.03-0.021c0.16-0.079,0.18-0.31,0.19-0.369c0.01-0.171-0.04-0.301-0.13-0.37l-0.51-0.08
		C84.68,13.57,84.64,13.469,84.64,11.42 M100.41,11.719l0.01-0.05l-0.02-0.04c-0.08-0.189-0.28-0.27-0.44-0.27
		c-0.09,0-0.18,0.03-0.24,0.07l-0.05,0.06c-0.54,1.11-1.03,1.67-1.27,1.81c-0.41,0.21-0.98,0.28-2.35,0.28
		c-1.57,0-1.98-0.189-2.18-0.399c-0.27-0.29-0.32-0.921-0.32-1.921V8.53c0-0.38,0-0.38,0.48-0.38h1.1c0.66,0,1.15,0.02,1.42,0.09
		c0.26,0.07,0.4,0.24,0.48,0.63l0.17,0.75l0.03,0.061c0.07,0.09,0.2,0.14,0.35,0.14c0.17,0,0.31-0.07,0.38-0.18l0.02-0.03V9.57
		c0-0.19-0.01-0.44-0.03-0.72C97.93,8.5,97.91,8.09,97.91,7.71c0-0.41,0.02-0.819,0.04-1.189c0.02-0.301,0.03-0.561,0.03-0.771V5.71
		l-0.02-0.04c-0.06-0.109-0.2-0.18-0.38-0.18c-0.15,0-0.28,0.05-0.35,0.14l-0.2,0.87c-0.09,0.44-0.19,0.51-0.36,0.57
		c-0.2,0.07-0.77,0.11-1.56,0.11h-1.1c-0.48,0-0.48,0-0.48-0.391V2.9c0-0.63,0-0.63,0.42-0.63h1.36c0.8,0,1.41,0.02,1.8,0.109
		c0.86,0.221,1.03,0.78,1.29,1.63l0.04,0.12l0.03,0.051C98.53,4.26,98.64,4.3,98.78,4.3c0.13,0,0.31-0.05,0.4-0.17l0.03-0.04
		L99.19,3.8C99.09,2.67,99,1.71,98.9,1.42l-0.04-0.13l-0.13,0.03c-0.21,0.05-1.38,0.05-2.51,0.05h-3.55c-0.73,0-1.35-0.02-2.22-0.06
		h-0.04l-0.03,0.02C90.22,1.41,90.2,1.64,90.19,1.7c-0.01,0.17,0.04,0.3,0.13,0.37l0.37,0.06c0.97,0.12,1.02,0.25,1.02,2.301v6.979
		c0,2.1-0.12,2.19-1.04,2.28L90,13.75l-0.04,0.04c-0.11,0.11-0.12,0.29-0.1,0.42c0.02,0.141,0.09,0.25,0.18,0.3l0.03,0.021h0.04
		c1.09-0.04,1.75-0.061,2.56-0.061h1.7c1.65,0,3.3,0.021,5.06,0.061h0.09l0.04-0.09C99.8,13.91,100.28,12.4,100.41,11.719
		 M102.24,26.87c0.27-0.189,0.18-1.02-0.09-1.16c-1.95,0.09-3.49,0.141-5.25,0.141c-1.95,0-3.49-0.091-5.71-0.141
		c-0.27,0.141-0.36,0.98-0.09,1.16l1.18,0.09c2.36,0.19,2.67,0.98,2.67,5.86v16.76c0,4.89-0.09,5.351-2.63,5.82l-0.77,0.14
		c-0.27,0.28-0.18,1.021,0.09,1.16c1.77-0.05,3.31-0.14,5.26-0.14c1.77,0,3.31,0.05,5.75,0.14c0.27-0.14,0.36-0.98,0.09-1.16
		l-1.31-0.14c-2.54-0.28-2.76-0.931-2.76-5.82v-6.56c0-1.4,0.09-1.49,2.26-1.49h12.96c2.17,0,2.27,0.09,2.27,1.49v6.56
		c0,4.89,0,5.351-2.76,5.82l-0.86,0.14c-0.27,0.28-0.18,1.021,0.09,1.16c1.99-0.09,3.62-0.14,5.48-0.14c1.77,0,3.31,0.05,5.48,0.14
		c0.27-0.14,0.36-0.98,0.09-1.16l-1.09-0.14c-2.63-0.33-2.72-0.931-2.72-5.82V32.83c0-4.89,0.09-5.59,2.72-5.86l0.95-0.09
		c0.27-0.189,0.18-1.02-0.09-1.16c-2.04,0.091-3.58,0.141-5.35,0.141c-1.86,0-3.4-0.05-5.48-0.141c-0.27,0.141-0.36,0.98-0.09,1.16
		l0.86,0.09c2.67,0.28,2.76,0.98,2.76,5.86v5.351c0,1.439-0.09,1.489-2.27,1.489h-12.96c-2.17,0-2.26-0.05-2.26-1.489V32.83
		c0-4.89,0.09-5.59,2.72-5.86L102.24,26.87z M123.94,2.03c0.08-0.1,0.12-0.26,0.1-0.41c-0.02-0.12-0.08-0.22-0.17-0.28l-0.04-0.02
		h-0.05c-0.66,0.04-1.17,0.06-1.97,0.06c-0.72,0-1.42-0.02-2.14-0.06h-0.05l-0.04,0.03c-0.09,0.06-0.15,0.17-0.17,0.3
		c-0.02,0.149,0.02,0.29,0.1,0.38l0.04,0.05l0.53,0.04c0.43,0.04,0.73,0.16,0.83,0.33c0.22,0.4,0.34,1.8,0.34,3.94V8.62
		c0,2.29-0.63,5.01-3.63,5.01c-2.51,0-3.69-1.6-3.69-5.029V4.42c0-2.06,0.07-2.21,1-2.3l0.49-0.04l0.03-0.02
		c0.1-0.061,0.14-0.19,0.13-0.36c-0.01-0.14-0.06-0.3-0.19-0.37l-0.03-0.02h-0.04c-0.9,0.04-1.53,0.06-2.31,0.06
		c-0.77,0-1.44-0.02-2.33-0.06h-0.04l-0.03,0.02c-0.12,0.061-0.18,0.23-0.19,0.36c-0.01,0.16,0.04,0.29,0.13,0.359l0.03,0.021
		l0.51,0.04c0.93,0.08,1,0.229,1,2.3v4.58c0,2.34,0.47,3.79,1.52,4.69c0.83,0.729,2.05,1.1,3.62,1.1c1.49,0,2.91-0.561,3.71-1.46
		c0.92-1.01,1.36-2.561,1.36-4.74V6.39c0-0.98,0-3.29,0.25-3.891c0.09-0.2,0.41-0.34,0.82-0.38l0.51-0.04L123.94,2.03z M140.86,2.06
		c0.09-0.091,0.14-0.25,0.12-0.4c-0.02-0.14-0.08-0.25-0.18-0.32l-0.04-0.029h-0.05c-0.62,0.04-1.11,0.06-1.94,0.06
		c-0.67,0-1.29-0.02-2.22-0.06h-0.03l-0.03,0.01c-0.11,0.04-0.19,0.149-0.21,0.29c-0.03,0.17,0.02,0.35,0.13,0.45l0.03,0.029
		l0.36,0.04c0.65,0.08,0.98,0.181,1.06,0.32c0.23,0.37,0.35,1.8,0.35,3.93v4.15c0,0.189,0,0.41-0.01,0.55
		c-0.65-0.689-1.34-1.479-2.19-2.46l-2.62-3.03c-1.87-2.149-2.94-3.56-3.18-4.199l-0.04-0.11l-0.11,0.02
		c-0.23,0.04-0.54,0.051-0.85,0.051c-0.33,0-1.33,0-2.12-0.061h-0.04l-0.04,0.021c-0.1,0.05-0.17,0.159-0.19,0.29
		c-0.03,0.159,0.02,0.33,0.11,0.43l0.04,0.04l0.37,0.04c0.5,0.06,0.88,0.21,1.08,0.42c0.35,0.4,0.38,0.75,0.38,1.3v5.78
		c0,0.939,0,3.13-0.23,3.76c-0.04,0.101-0.21,0.23-0.72,0.3l-0.56,0.061l-0.04,0.04c-0.08,0.09-0.13,0.22-0.12,0.37
		c0.01,0.149,0.07,0.27,0.17,0.34l0.04,0.029h0.05c0.66-0.039,1.16-0.06,1.96-0.06c0.64,0,1.28,0.021,2.2,0.06h0.05l0.04-0.029
		c0.09-0.061,0.15-0.17,0.17-0.29c0.02-0.141-0.01-0.29-0.1-0.4l-0.04-0.05l-0.65-0.06c-0.45-0.04-0.77-0.15-0.85-0.29
		c-0.2-0.37-0.32-1.811-0.32-3.94V5.23c0-0.351,0.01-0.721,0.04-0.98c0.3,0.34,0.8,0.95,1.25,1.5c0.31,0.38,0.59,0.72,0.78,0.94
		l4.38,5.12c1.46,1.699,2.15,2.55,2.41,2.92l0.04,0.06h0.08c0.25,0,0.43-0.12,0.5-0.32l0.01-0.029v-0.03
		c-0.03-0.229-0.06-1-0.06-3.38v-4.9c0-0.989-0.01-3.06,0.27-3.67c0.02-0.05,0.25-0.21,0.95-0.33l0.31-0.05L140.86,2.06z
		 M138.52,49.49V32.92c0-4.93,0.09-5.72,2.76-5.96l1.13-0.09c0.27-0.189,0.18-1.02-0.09-1.16c-2.26,0.09-3.8,0.141-5.62,0.141
		c-1.9,0-3.44-0.051-5.71-0.141c-0.27,0.141-0.36,0.98-0.09,1.16l1.13,0.09c2.67,0.23,2.76,1.021,2.76,5.96v16.57
		c0,4.93-0.09,5.58-2.76,5.91l-1.13,0.14c-0.27,0.28-0.18,1.021,0.09,1.16c2.27-0.09,3.81-0.14,5.71-0.14
		c1.81,0,3.35,0.05,5.62,0.14c0.27-0.14,0.36-0.98,0.09-1.16l-1.13-0.14C138.61,55.07,138.52,54.42,138.52,49.49 M148,11.38V4.48
		c0-2.101,0.07-2.25,1.02-2.33l0.51-0.04l0.03-0.021c0.1-0.069,0.14-0.199,0.13-0.37c0-0.069-0.03-0.3-0.19-0.369l-0.03-0.021h-0.04
		c-0.89,0.04-1.56,0.061-2.33,0.061c-0.81,0-1.46-0.021-2.37-0.061h-0.04l-0.03,0.021c-0.16,0.08-0.18,0.31-0.19,0.38
		c-0.01,0.17,0.04,0.3,0.13,0.37l0.03,0.02l0.51,0.04c0.95,0.08,1.02,0.24,1.02,2.33v6.9c0,2.09-0.05,2.199-1.02,2.319l-0.52,0.061
		l-0.03,0.04c-0.11,0.109-0.12,0.29-0.1,0.42c0.02,0.14,0.09,0.25,0.18,0.3l0.03,0.02h0.04c0.96-0.04,1.59-0.06,2.37-0.06
		c0.75,0,1.4,0.02,2.33,0.06h0.04l0.03-0.02c0.16-0.08,0.18-0.311,0.19-0.38c0.01-0.17-0.04-0.3-0.13-0.37l-0.53-0.08
		C148.04,13.57,148,13.46,148,11.38 M153.79,29.06c-3.44,2.75-5.71,7.17-5.71,12.33c0,6,2.81,10.239,6.43,12.8
		c3.31,2.279,7.2,3.12,11.28,3.12c2.9,0,6.16-0.7,7.16-1.07c0.5-0.19,1.04-0.37,1.58-0.47c0.68-0.88,1.86-3.96,2.18-6.38
		c-0.18-0.33-0.86-0.421-1.18-0.19c-1.04,2.75-3.62,6.66-9.47,6.66c-7.43,0-13.46-5.4-13.46-15.17c0-9.63,5.89-14.15,12.82-14.15
		c6.57,0,8.61,3.63,9.29,6.8c0.32,0.28,1,0.23,1.22-0.09c-0.36-2.84-0.59-5.77-0.63-6.84c-0.41,0.05-0.72-0.05-1.27-0.19
		c-2.13-0.6-5.57-1.119-8.02-1.119C161.31,25.1,157.09,26.4,153.79,29.06 M166.11,2.06c0.1-0.11,0.12-0.29,0.1-0.42
		c-0.02-0.141-0.08-0.25-0.17-0.301L166,1.32h-0.04c-0.63,0.04-1.21,0.06-1.82,0.06c-0.74,0-1.45-0.02-1.95-0.06h-0.04l-0.04,0.02
		c-0.1,0.061-0.18,0.19-0.19,0.341c-0.02,0.159,0.03,0.3,0.13,0.38l0.03,0.029l0.38,0.04c0.66,0.08,0.72,0.221,0.72,0.221
		c0,0.13-0.02,0.319-0.16,0.699c-0.33,0.841-1.23,3.061-1.75,4.341c-0.14,0.329-0.32,0.76-0.51,1.229
		c-0.36,0.87-0.79,1.93-1.16,2.771c-0.89-2.11-1.72-4.221-2.55-6.381c-0.55-1.39-0.87-2.409-0.93-2.659
		c0.03-0.061,0.19-0.15,0.76-0.221l0.32-0.04l0.03-0.029c0.1-0.08,0.15-0.23,0.13-0.38c-0.01-0.15-0.08-0.28-0.19-0.341l-0.04-0.02
		h-0.04c-0.84,0.04-1.5,0.06-2.28,0.06c-0.79,0-1.39-0.02-1.95-0.06h-0.05l-0.04,0.03c-0.11,0.069-0.18,0.199-0.19,0.35
		c-0.01,0.15,0.04,0.29,0.14,0.37l0.04,0.03l0.38,0.04c0.73,0.09,0.98,0.43,1.41,1.5l3.32,8.42c0.4,1.01,0.68,1.87,0.86,2.56
		l0.02,0.07l0.07,0.029c0.11,0.051,0.22,0.07,0.34,0.07c0.11,0,0.21-0.03,0.29-0.08l0.04-0.029l0.02-0.051
		c0.32-1.04,1.23-3.33,1.96-5.05l1.02-2.38c0.88-2.04,1.6-3.58,2.1-4.44c0.24-0.399,0.49-0.579,0.87-0.609l0.62-0.04L166.11,2.06z
		 M179.06,11.719l0.01-0.05l-0.02-0.04c-0.08-0.189-0.28-0.27-0.44-0.27c-0.09,0-0.18,0.03-0.24,0.07l-0.04,0.06
		c-0.54,1.11-1.03,1.67-1.28,1.81c-0.41,0.21-0.98,0.28-2.35,0.28c-1.57,0-1.98-0.189-2.18-0.399c-0.27-0.29-0.32-0.921-0.32-1.921
		V8.53c0-0.38,0-0.38,0.48-0.38h1.1c0.66,0,1.15,0.02,1.42,0.09c0.26,0.07,0.4,0.24,0.48,0.63l0.17,0.75l0.03,0.061
		c0.07,0.09,0.2,0.14,0.35,0.14c0.17,0,0.31-0.07,0.38-0.18l0.02-0.03V9.57c0-0.19-0.02-0.44-0.03-0.72
		c-0.02-0.351-0.05-0.761-0.05-1.141c0-0.41,0.02-0.819,0.04-1.189c0.02-0.301,0.03-0.561,0.03-0.771V5.71l-0.02-0.04
		c-0.06-0.109-0.2-0.18-0.38-0.18c-0.15,0-0.28,0.05-0.35,0.14l-0.18,0.86c-0.08,0.44-0.19,0.51-0.36,0.57
		c-0.2,0.069-0.77,0.109-1.56,0.109h-1.1c-0.48,0-0.48,0-0.48-0.39V2.9c0-0.63,0-0.63,0.42-0.63h1.36c0.8,0,1.41,0.02,1.8,0.109
		c0.86,0.221,1.03,0.78,1.29,1.63l0.04,0.12l0.03,0.051c0.06,0.079,0.17,0.119,0.31,0.119c0.13,0,0.31-0.05,0.4-0.17l0.03-0.04
		l-0.02-0.29c-0.1-1.13-0.19-2.09-0.29-2.38l-0.04-0.13l-0.13,0.03c-0.21,0.05-1.38,0.05-2.51,0.05h-3.55
		c-0.73,0-1.35-0.02-2.22-0.06h-0.04l-0.03,0.02c-0.16,0.08-0.18,0.311-0.19,0.37c-0.01,0.17,0.04,0.3,0.13,0.37l0.37,0.06
		c0.96,0.12,1.02,0.25,1.02,2.301v6.979c0,2.1-0.12,2.19-1.04,2.28l-0.67,0.06l-0.04,0.04c-0.11,0.11-0.12,0.29-0.1,0.42
		c0.02,0.141,0.09,0.25,0.18,0.3l0.03,0.021h0.04c1.09-0.04,1.75-0.061,2.56-0.061h1.7c1.65,0,3.3,0.021,5.06,0.061h0.09l0.04-0.09
		C178.45,13.9,178.93,12.4,179.06,11.719 M188.81,7.34c-0.54,0.42-1.27,0.471-1.86,0.471c-0.85,0-1.12-0.03-1.19-0.061
		c-0.02-0.08-0.02-0.31-0.02-0.53V2.69c0-0.44,0-0.471,1.08-0.471c2.12,0,2.88,1.53,2.88,2.841C189.7,6.13,189.42,6.86,188.81,7.34
		 M194.5,14.56c0.09-0.07,0.13-0.19,0.11-0.301c-0.02-0.109-0.08-0.189-0.17-0.229l-0.04-0.01c-0.45-0.03-0.9-0.221-1.22-0.511
		c-1.3-1.119-2.33-2.75-3.76-5.119c-0.1-0.16-0.11-0.24-0.11-0.271c0.63-0.27,2.4-1.22,2.4-3.36c0-1.619-0.9-2.439-1.64-2.85
		c-0.95-0.53-2.16-0.6-3.22-0.6c-1.73,0-3.07,0.05-4.22,0.149l-0.05,0.021c-0.11,0.06-0.18,0.18-0.19,0.33
		c-0.01,0.17,0.05,0.33,0.15,0.409l0.03,0.021l0.64,0.08c0.62,0.08,0.7,0.21,0.7,2.12v6.96c0,2.05-0.05,2.16-1,2.28l-0.53,0.06
		l-0.04,0.04c-0.11,0.13-0.12,0.31-0.09,0.439c0.03,0.131,0.09,0.23,0.18,0.271l0.03,0.02h0.04c0.84-0.04,1.53-0.06,2.35-0.06
		c0.78,0,1.44,0.02,2.24,0.06h0.04l0.03-0.02c0.14-0.07,0.17-0.26,0.18-0.33c0.02-0.17-0.02-0.32-0.12-0.4l-0.03-0.029l-0.44-0.061
		c-0.97-0.14-1.01-0.22-1.01-2.279V8.969c0-0.279,0-0.279,0.74-0.279c0.73,0,0.97,0.18,1.22,0.55c0.29,0.43,0.62,0.97,0.94,1.5
		c0.34,0.55,0.66,1.07,0.91,1.43c1.3,1.9,2.27,2.511,4.03,2.511c0.36,0,0.68-0.04,0.88-0.101L194.5,14.56z M199.26,3.969
		c0-0.75,0.27-2,2.1-2c1.66,0,2.17,1.11,2.431,2.08l0.029,0.061c0.061,0.08,0.16,0.12,0.29,0.12c0.14,0,0.33-0.061,0.42-0.19
		L204.55,4V3.95c0-0.79-0.16-1.9-0.35-2.42l-0.041-0.1h-0.1c-0.13,0-0.391-0.03-0.62-0.11c-0.45-0.12-1.16-0.26-1.79-0.26
		c-2.39,0-4,1.399-4,3.479c0,1.771,1.32,2.93,2.1,3.46l1.79,1.2c1.299,0.86,1.48,1.75,1.48,2.59c0,1.04-0.69,2.08-2.21,2.08
		c-1.91,0-2.74-1.51-3.11-2.78l-0.02-0.04c-0.06-0.09-0.16-0.13-0.29-0.13c-0.13,0-0.31,0.05-0.4,0.19l-0.03,0.04v0.05
		c0.04,0.88,0.28,2.31,0.53,2.78l0.02,0.04l0.04,0.02c0.37,0.22,1.41,0.74,3.02,0.74c2.49,0,4.17-1.5,4.17-3.74
		c0-1.55-0.789-2.81-2.43-3.85l-1.51-0.971C200.22,5.86,199.26,5.08,199.26,3.969 M197.41,42.74h-5.57c-1.27,0-1.31-0.05-0.95-1.12
		l2.85-8.1c0.5-1.4,0.95-2.511,1.09-2.75h0.09c0.27,0.56,0.68,1.819,1.04,2.93l2.45,7.59C198.81,42.55,198.72,42.74,197.41,42.74
		 M209.089,55.4c-1.949-0.23-2.539-0.931-3.85-4.931l-6.21-18.71c-0.68-2.05-1.4-4.189-1.99-6.239c-0.09-0.33-0.41-0.42-0.68-0.42
		c-0.5,0.6-1.27,1.439-2.36,1.77c0.14,0.75-0.13,1.63-0.77,3.3l-4.62,12.57c-1.9,5.21-3.17,8.24-3.99,10.38
		c-0.63,1.68-1.63,2.19-2.72,2.28l-1.5,0.14c-0.27,0.23-0.18,0.98,0.09,1.16c1.22-0.05,2.85-0.14,4.35-0.14
		c2.13,0.05,3.54,0.05,4.71,0.14c0.41-0.19,0.41-0.93,0.09-1.16l-1.5-0.14c-1.09-0.09-1.31-0.37-1.31-0.931
		c0-0.51,0.32-1.77,1-3.859l1.58-4.891c0.32-0.979,0.59-1.119,1.72-1.119H198c1.36,0,1.54,0.14,1.86,1.159l1.99,6.33
		c0.36,1.12,0.59,1.96,0.59,2.471c0,0.47-0.63,0.75-1.58,0.84l-1.31,0.14c-0.32,0.23-0.27,0.98,0.09,1.16
		c1.31-0.05,3.03-0.14,5.21-0.14c2.04,0,3.62,0.05,5.479,0.14c0.23-0.19,0.32-0.93,0-1.16L209.089,55.4z M212.21,11.38V4.48
		c0-2.12,0.06-2.25,1.02-2.33l0.51-0.04l0.03-0.021c0.09-0.06,0.14-0.199,0.13-0.37c0-0.069-0.029-0.3-0.189-0.38l-0.03-0.02h-0.04
		c-0.891,0.04-1.561,0.06-2.34,0.06c-0.811,0-1.461-0.02-2.37-0.06h-0.04l-0.03,0.02c-0.149,0.08-0.18,0.311-0.18,0.38
		c-0.011,0.171,0.04,0.301,0.13,0.37l0.029,0.021l0.511,0.04c0.96,0.08,1.021,0.21,1.021,2.33v6.899c0,2.09-0.051,2.2-1.021,2.32
		l-0.521,0.06L208.8,13.8c-0.11,0.11-0.12,0.29-0.1,0.42c0.02,0.141,0.09,0.25,0.18,0.301l0.029,0.02h0.041
		c0.959-0.04,1.59-0.06,2.369-0.06c0.75,0,1.37,0.02,2.34,0.06h0.041l0.029-0.02c0.15-0.08,0.18-0.311,0.189-0.38
		c0.011-0.171-0.039-0.301-0.129-0.36l-0.541-0.08C212.25,13.57,212.21,13.46,212.21,11.38 M229.41,1.08l0.01-0.05l-0.02-0.05
		c-0.07-0.141-0.27-0.16-0.35-0.16c-0.051,0-0.12,0-0.18,0.03l-0.051,0.02l-0.02,0.04c-0.24,0.43-0.34,0.47-1.35,0.47h-7.801
		c-0.84,0-1.22-0.04-1.3-0.479l-0.011-0.04l-0.029-0.03c-0.051-0.05-0.141-0.08-0.26-0.08c-0.041,0-0.2,0-0.28,0.061l-0.05,0.04
		l-0.01,0.06c-0.131,0.771-0.41,2-0.711,2.87l-0.02,0.06l0.029,0.061c0.121,0.229,0.5,0.35,0.711,0.189l0.029-0.02l0.01-0.04
		c0.191-0.45,0.371-0.87,0.811-1.29c0.42-0.39,1.36-0.44,2.23-0.44h1.039c0.42,0,0.42,0,0.42,0.471v8.67
		c0,2.1-0.119,2.189-1.039,2.279l-0.68,0.061l-0.061,0.02c-0.109,0.07-0.18,0.221-0.17,0.391c0,0.13,0.061,0.29,0.18,0.359
		l0.03,0.021h0.04c1.15-0.04,1.85-0.061,2.62-0.061c0.739,0,1.35,0.021,2.47,0.061h0.04l0.03-0.021c0.16-0.08,0.18-0.31,0.189-0.369
		c0.01-0.171-0.039-0.301-0.13-0.37l-0.67-0.08c-0.94-0.08-1-0.21-1-2.28v-8.7c0-0.2,0-0.38,0.03-0.41
		c0.029-0.029,0.24-0.029,0.369-0.029h1.341c1.01,0,1.7,0.149,2.101,0.46c0.18,0.13,0.329,0.62,0.409,1.31v0.04l0.03,0.03
		c0.07,0.09,0.199,0.14,0.34,0.14c0.18,0,0.33-0.08,0.391-0.21l0.02-0.04V4C229.08,3.42,229.21,1.85,229.41,1.08 M237.14,25.8
		c-0.77-0.189-3.17-0.699-5.75-0.699c-6.84,0-11.32,2.189-14.36,5.439c-2.81,3.07-4.079,7.07-4.079,11.03
		c0,4.1,1.449,7.77,4.17,10.57c3.489,3.63,8.43,5.17,13.819,5.17c2.45,0,5.71-0.561,8.11-1.21c0.859-0.23,1.68-0.42,2.22-0.42
		c0.181-0.141,0.181-0.421,0.05-0.561c-0.811-0.33-1.09-1.439-1.09-3.3v-2.61c0-2.37,0.04-3.68,1.95-3.91l0.72-0.09
		c0.32-0.279,0.27-0.979-0.04-1.16c-1.5,0.091-3.04,0.141-4.8,0.141c-2.67,0-5.16-0.05-6.48-0.141c-0.32,0.141-0.359,0.98,0,1.16
		l1.99,0.23c2.811,0.319,2.95,0.6,2.95,4.51v1.86c0,1.489-0.229,2.33-0.45,2.649c-0.5,0.79-2.17,1.4-4.98,1.4
		c-9.1,0-13.59-7.03-13.59-15.97c0-6.98,3.851-13.4,12.641-13.4c4.62,0,8.02,1.58,9.29,6.61c0.271,0.279,1.09,0.229,1.22-0.141
		c-0.41-2.79-0.68-5.21-0.68-6.75C239.4,26.31,238,25.98,237.14,25.8 M243.75,2.06c0.101-0.091,0.15-0.23,0.141-0.37
		c-0.01-0.15-0.08-0.28-0.189-0.351L243.66,1.31h-0.05c-1.34,0.08-2.13,0.08-3.55,0h-0.04l-0.04,0.02c-0.1,0.05-0.18,0.16-0.2,0.3
		c-0.021,0.16,0.021,0.32,0.12,0.42l0.04,0.04l0.39,0.04c0.371,0.051,0.601,0.141,0.66,0.19c-0.06,0.28-0.72,1.54-1.119,2.3
		l-0.091,0.17c-0.46,0.9-0.979,1.88-1.64,3.04c-0.5-0.92-0.98-1.939-1.45-2.92c-0.18-0.39-0.37-0.77-0.55-1.15
		c-0.131-0.279-0.561-1.27-0.57-1.43c0-0.04,0.09-0.12,0.67-0.2l0.29-0.04l0.04-0.04c0.1-0.1,0.15-0.3,0.11-0.46
		c-0.03-0.13-0.11-0.229-0.22-0.27l-0.03-0.01h-0.03c-0.46,0.04-1.141,0.06-2.01,0.06c-0.87,0-1.57-0.02-2.18-0.06h-0.041
		l-0.039,0.02c-0.09,0.05-0.16,0.16-0.18,0.29c-0.021,0.16,0.01,0.32,0.1,0.42l0.029,0.04l0.58,0.11c0.5,0.09,0.75,0.13,1.391,1.39
		l2.23,4.46c0.529,1.061,0.59,1.271,0.59,2.34v0.99c0,2.11-0.051,2.21-1,2.32l-0.641,0.06l-0.04,0.04
		c-0.11,0.11-0.12,0.29-0.101,0.42c0.021,0.141,0.091,0.25,0.181,0.3l0.03,0.021h0.039c1.021-0.04,1.681-0.061,2.471-0.061
		c0.77,0,1.439,0.021,2.561,0.061h0.039l0.03-0.021c0.09-0.05,0.16-0.159,0.181-0.3c0.02-0.13,0-0.31-0.101-0.42l-0.04-0.04
		l-0.77-0.06c-0.871-0.07-1-0.21-1-2.32v-1.01c0-1.45,0.039-1.601,0.869-3.07l1.19-2.109c0.11-0.19,0.21-0.381,0.31-0.551
		c0.74-1.33,1.28-2.29,2.08-2.439l0.57-0.101L243.75,2.06z M253.759,40.04c0-10.189,6.111-13.5,10.83-13.5
		c8.65,0,11.961,8.28,11.961,15.96c0,9.17-5.16,13.36-10.6,13.36C257.02,55.87,253.759,46.93,253.759,40.04 M249.23,41.53
		c0,8.38,6.07,15.78,16.13,15.78c8.74,0,15.72-6.841,15.72-16.24c0-8.19-5.25-15.96-15.72-15.96
		C256.02,25.1,249.23,32.219,249.23,41.53 M264.669,8.469c0,4-2.299,5.421-4.27,5.421c-3.891,0-4.93-4.051-4.93-6.44
		c0-4.04,2.35-5.48,4.369-5.48C263.4,1.96,264.669,5.469,264.669,8.469 M266.839,7.87c0-3.28-2.09-6.8-6.699-6.8
		c-3.91,0-6.87,3.01-6.87,7c0,3.34,2.36,6.72,6.87,6.72C263.97,14.78,266.839,11.81,266.839,7.87 M279.509,4.09l0.021-0.04V4.01
		c-0.04-0.699-0.06-1.609-0.06-2.55V1.28l-0.18,0.04c-0.23,0.05-1.391,0.05-2.521,0.05h-3.47c-0.711,0-1.34-0.02-2.18-0.06h-0.041
		l-0.029,0.02c-0.16,0.08-0.18,0.311-0.19,0.37c-0.01,0.17,0.04,0.3,0.13,0.37l0.36,0.06c0.96,0.12,1,0.23,1,2.301v6.979
		c0,2.05-0.05,2.16-1,2.28l-0.521,0.06l-0.039,0.04c-0.11,0.11-0.121,0.29-0.101,0.42c0.021,0.141,0.09,0.25,0.181,0.3l0.029,0.021
		h0.04c0.88-0.04,1.521-0.061,2.351-0.061c0.76,0,1.42,0.021,2.51,0.061h0.039l0.031-0.021c0.119-0.06,0.18-0.239,0.189-0.38
		c0.01-0.17-0.04-0.3-0.13-0.359l-0.71-0.08c-0.96-0.08-1.02-0.21-1.02-2.28v-2.7c0-0.38,0-0.38,0.479-0.38h1.28
		c0.66,0,1.16,0.021,1.41,0.09c0.27,0.09,0.41,0.261,0.51,0.63l0.199,0.801l0.03,0.029c0.19,0.17,0.591,0.16,0.71-0.029l0.03-0.04
		V9.79c0-0.2-0.011-0.46-0.03-0.75c-0.02-0.35-0.039-0.75-0.039-1.13c0-0.39,0.02-0.81,0.039-1.17c0.02-0.3,0.03-0.57,0.03-0.78V5.9
		l-0.03-0.04c-0.09-0.141-0.279-0.15-0.359-0.15c-0.16,0-0.291,0.05-0.371,0.141l-0.199,0.84c-0.109,0.47-0.23,0.52-0.38,0.569
		c-0.2,0.07-0.78,0.11-1.56,0.11h-1.281c-0.479,0-0.479,0-0.479-0.38V2.9c0-0.63,0-0.63,0.42-0.63h1.15c0.78,0,1.399,0,1.79,0.109
		c0.81,0.221,1.05,0.771,1.21,1.721l0.01,0.05l0.04,0.03c0.07,0.06,0.17,0.1,0.29,0.1C279.27,4.3,279.44,4.24,279.509,4.09"/>
</g>
</svg>
